{
.formatVersion = 3;
familyName = "Puffy ";
customParameters = (
{
name = glyphOrder;
value = (
.notdef,
A,
B,
C,
D,
E,
F,
G,
H,
I,
J,
K,
L,
M,
N,
O,
P,
Q,
R,
S,
T,
U,
V,
W,
X,
Y,
Z,
y,
Thorn,
germandbls,
zero,
one,
two,
three,
four,
five,
six,
seven,
eight,
nine,
acute,
cedilla,
dieresis,
grave,
macron,
circumflex,
caron,
uni02C9,
breve,
dotaccent,
ring,
ogonek,
tilde,
uni0326,
exclam,
quotedbl,
numbersign,
dollar,
percent,
ampersand,
quotesingle,
parenleft,
parenright,
asterisk,
plus,
comma,
hyphen,
period,
slash,
colon,
semicolon,
less,
equal,
greater,
question,
at,
bracketleft,
backslash,
bracketright,
asciicircum,
underscore,
braceleft,
bar,
asciitilde,
braceright,
exclamdown,
cent,
sterling,
yen,
brokenbar,
section,
copyright,
ordfeminine,
ordmasculine,
registered,
degree,
onesuperior,
twosuperior,
threesuperior,
mu,
paragraph,
periodcentered,
bullet,
ellipsis,
endash,
emdash,
perthousand,
guilsinglleft,
guilsinglright,
fraction,
uni2215,
uni2219,
minus,
summation,
infinity,
approxequal,
notequal,
trademark,
Euro,
lira,
franc,
product,
Delta,
lozenge,
hungarumlaut,
quotesinglbase,
quotedblbase,
quoteright,
quoteleft,
quotedblright,
quotedblleft,
dagger,
daggerdbl,
pi,
multiply,
divide,
thorn,
onequarter,
onehalf,
threequarters,
questiondown,
a,
b,
c,
d,
e,
f,
g,
h,
i,
j,
k,
l,
m,
n,
o,
p,
q,
r,
s,
t,
u,
v,
w,
x,
z,
guillemotleft,
guillemotright,
AE,
ae,
Agrave,
Aacute,
Acircumflex,
Atilde,
Adieresis,
Aring,
Ccedilla,
Egrave,
Eacute,
Ecircumflex,
Edieresis,
Igrave,
Iacute,
Icircumflex,
Idieresis,
Eth,
Ntilde,
Ograve,
Oacute,
Ocircumflex,
Otilde,
Odieresis,
Oslash,
Ugrave,
Uacute,
Ucircumflex,
Udieresis,
Yacute,
agrave,
aacute,
acircumflex,
atilde,
adieresis,
aring,
ccedilla,
egrave,
eacute,
ecircumflex,
edieresis,
igrave,
iacute,
icircumflex,
idieresis,
eth,
ntilde,
ograve,
oacute,
ocircumflex,
otilde,
odieresis,
oslash,
ugrave,
uacute,
ucircumflex,
udieresis,
Ydieresis,
Amacron,
amacron,
Abreve,
abreve,
Aogonek,
aogonek,
Cacute,
cacute,
Ccircumflex,

glyphs = (
{
glyphname = A;
layers = (
{
anchors = (
{
name = top;
position = "{291, 669}";
},
{
name = bottom;
position = "{439, 42}";
}
);
layerId = "75E525D2-6D94-455D-A64D-8DDBA529DB5E";
shapes = (
{
closed = 1;
nodes = (
(554,288,o),
(549,376,o),
(525,460,cs),
(510,510,o),
(488,560,o),
(449,596,cs),
(431,613,o),
(409,627,o),
(385,635,c),
(353,647,o),
(324,651,o),
(291,653,cs),
(255,655,o),
(225,650,o),
(190,636,c),
(17,547,o),
(18,286,o),
(31,117,c),
(35,91,o),
(33,63,o),
(50,42,c),
(80,-1,o),
(146,-16,o),
(190,13,c),
(221,37,o),
(217,66,o),
(210,101,c),
(211,108,o),
(202,137,o),
(211,138,c),
(259,137,o),
(306,134,o),
(354,134,c),
(361,132,o),
(357,121,o),
(357,116,c),
(338,33,o),
(439,-34,o),
(510,7,cs),
(565,38,o),
(552,121,o),
(556,177,c),
(556,177,o),
(556,201,o),
(556,201,c)
);
},
{
closed = 1;
nodes = (
(282,300,o),
(249,296,o),
(216,293,cs),
(199,292,o),
(211,332,o),
(212,341,cs),
(218,379,o),
(256,559,o),
(317,506,c),
(336,485,o),
(338,444,o),
(344,417,cs),
(348,396,o),
(351,374,o),
(354,353,cs),
(362,294,o),
(369,300,o),
(315,300,cs)
);
}
);
width = 581;
}
);
leftKerningGroup = A1;
rightKerningGroup = A;
unicode = 65;
},
{
glyphname = B;
layers = (
{
layerId = "75E525D2-6D94-455D-A64D-8DDBA529DB5E";
shapes = (
{
closed = 1;
nodes = (
(392,299,o),
(388,302,o),
(392,305,cs),
(430,339,o),
(453,388,o),
(457,439,cs),
(466,559,o),
(352,644,o),
(243,653,cs),
(185,658,o),
(106,655,o),
(55,620,cs),
(21,596,o),
(26,559,o),
(23,522,cs),
(20,468,o),
(20,414,o),
(20,359,c),
(29,269,o),
(1,0,o),
(130,1,c),
(260,-29,o),
(480,-27,o),
(483,148,c),
(480,210,o),
(444,263,o),
(395,297,cs)
);
},
{
closed = 1;
nodes = (
(290,484,o),
(285,454,o),
(275,434,cs),
(259,404,o),
(226,390,o),
(195,379,c),
(196,420,o),
(199,461,o),
(202,503,cs),
(203,510,o),
(203,517,o),
(204,524,c),
(228,522,o),
(252,515,o),
(271,500,cs)
);
},
{
closed = 1;
nodes = (
(273,122,o),
(233,115,o),
(194,116,c),
(195,141,o),
(194,167,o),
(194,193,c),
(193,200,o),
(193,208,o),
(193,215,c),
(225,211,o),
(257,214,o),
(287,203,cs),
(312,193,o),
(335,164,o),
(307,141,c)
);
}
);
width = 508;
}
);
leftKerningGroup = B1;
rightKerningGroup = B;
unicode = 66;
},
{
glyphname = C;
layers = (
{
anchors = (
{
name = top;
position = "{320, 669}";
},
{
name = bottom;
position = "{325, 39}";
}
);
layerId = "75E525D2-6D94-455D-A64D-8DDBA529DB5E";
shapes = (
{
closed = 1;
nodes = (
(17,509,o),
(238,715,o),
(445,623,cs),
(671,524,o),
(530,260,o),
(393,459,c),
(389,467,o),
(383,474,o),
(376,479,c),
(351,483,o),
(327,468,o),
(308,454,cs),
(243,405,o),
(204,314,o),
(231,234,c),
(246,183,o),
(297,145,o),
(346,182,c),
(363,193,o),
(370,213,o),
(384,227,c),
(412,252,o),
(456,254,o),
(490,240,cs),
(516,229,o),
(532,217,o),
(548,193,cs),
(562,170,o),
(562,137,o),
(546,115,cs),
(538,104,o),
(531,92,o),
(521,83,c),
(490,50,o),
(450,25,o),
(406,12,cs),
(304,-18,o),
(190,19,o),
(116,93,cs),
(60,147,o),
(31,223,o),
(26,300,c)
);
}
);
width = 590;
}
);
leftKerningGroup = C2;
rightKerningGroup = C;
unicode = 67;
},
{
glyphname = D;
layers = (
{
anchors = (
{
name = top;
position = "{281, 674}";
},
{
name = left;
position = "{24, 325}";
}
);
layerId = "75E525D2-6D94-455D-A64D-8DDBA529DB5E";
shapes = (
{
closed = 1;
nodes = (
(277,639,o),
(203,652,o),
(127,649,cs),
(86,648,o),
(44,635,o),
(31,592,cs),
(24,570,o),
(24,545,o),
(23,522,cs),
(20,468,o),
(20,414,o),
(20,359,c),
(26,304,o),
(22,249,o),
(26,193,cs),
(30,137,o),
(34,60,o),
(83,23,c),
(109,2,o),
(144,-1,o),
(176,0,cs),
(311,1,o),
(464,58,o),
(517,191,cs),
(584,358,o),
(514,539,o),
(347,609,cs)
);
},
{
closed = 1;
nodes = (
(285,187,o),
(242,165,o),
(194,154,c),
(194,167,o),
(194,180,o),
(194,193,c),
(191,296,o),
(194,400,o),
(202,503,c),
(202,503,o),
(202,504,o),
(202,505,c),
(234,496,o),
(263,483,o),
(290,463,c),
(359,409,o),
(360,301,o),
(313,232,c)
);
}
);
width = 568;
}
);
leftKerningGroup = B1;
unicode = 68;
},
{
glyphname = E;
layers = (
{
anchors = (
{
name = top;
position = "{243, 669}";
},
{
name = bottom;
position = "{361, 42}";
}
);
layerId = "75E525D2-6D94-455D-A64D-8DDBA529DB5E";
shapes = (
{
closed = 1;
nodes = (
(279,176,o),
(237,169,o),
(194,160,c),
(194,171,o),
(194,182,o),
(194,193,c),
(193,214,o),
(193,235,o),
(193,256,c),
(209,255,o),
(225,255,o),
(242,255,c),
(275,254,o),
(309,257,o),
(342,261,cs),
(372,265,o),
(405,283,o),
(412,314,c),
(418,336,o),
(412,358,o),
(400,376,c),
(389,397,o),
(369,409,o),
(348,418,c),
(319,433,o),
(287,426,o),
(257,423,c),
(237,422,o),
(217,420,o),
(197,417,c),
(198,442,o),
(199,467,o),
(201,492,c),
(261,487,o),
(321,487,o),
(381,484,c),
(481,487,o),
(495,590,o),
(413,636,cs),
(370,660,o),
(320,650,o),
(274,650,cs),
(233,650,o),
(191,651,o),
(150,646,cs),
(112,642,o),
(59,633,o),
(35,599,c),
(21,576,o),
(25,548,o),
(23,522,cs),
(20,468,o),
(20,414,o),
(20,359,cs),
(21,316,o),
(22,271,o),
(24,228,cs),
(26,177,o),
(29,124,o),
(47,77,cs),
(62,36,o),
(86,12,o),
(130,6,cs),
(195,-4,o),
(262,-3,o),
(327,11,cs),
(371,20,o),
(434,21,o),
(459,67,cs),
(471,89,o),
(468,117,o),
(455,138,cs),
(428,182,o),
(370,203,o),
(321,188,cs)
);
}
);
width = 492;
}
);
leftKerningGroup = B1;
rightKerningGroup = H;
unicode = 69;
},
{
glyphname = F;
layers = (
{
layerId = "75E525D2-6D94-455D-A64D-8DDBA529DB5E";
shapes = (
{
closed = 1;
nodes = (
(407,647,o),
(367,654,o),
(327,651,c),
(327,653,o),
(184,648,o),
(170,647,c),
(127,643,o),
(63,638,o),
(35,599,c),
(21,576,o),
(25,548,o),
(23,522,c),
(20,468,o),
(20,414,o),
(20,359,c),
(29,269,o),
(0,6,o),
(131,7,cs),
(149,7,o),
(171,16,o),
(179,32,c),
(199,83,o),
(194,139,o),
(194,193,c),
(193,214,o),
(193,235,o),
(193,256,c),
(209,255,o),
(226,255,o),
(242,255,c),
(275,254,o),
(308,257,o),
(341,261,c),
(372,264,o),
(406,283,o),
(412,316,c),
(426,372,o),
(370,420,o),
(318,427,c),
(287,430,o),
(257,422,o),
(226,421,c),
(216,420,o),
(206,419,o),
(197,417,c),
(198,442,o),
(199,468,o),
(201,493,c),
(203,493,l),
(235,489,o),
(267,488,o),
(300,487,c),
(318,486,o),
(336,485,o),
(353,485,c),
(381,483,o),
(406,482,o),
(431,497,c),
(479,521,o),
(475,587,o),
(437,618,c)
);
}
);
width = 492;
}
);
leftKerningGroup = B1;
rightKerningGroup = F;
unicode = 70;
},
{
glyphname = G;
layers = (
{
anchors = (
{
name = top;
position = "{326, 669}";
},
{
name = bottom;
position = "{328, -7}";
}
);
layerId = "75E525D2-6D94-455D-A64D-8DDBA529DB5E";
shapes = (
{
closed = 1;
nodes = (
(483,343,o),
(429,357,o),
(381,368,cs),
(342,376,o),
(294,378,o),
(269,339,c),
(269,339,o),
(269,338,o),
(269,338,c),
(248,304,o),
(267,261,o),
(296,239,cs),
(312,227,o),
(330,222,o),
(347,213,cs),
(351,211,o),
(366,209,o),
(368,206,c),
(362,197,o),
(355,188,o),
(346,182,cs),
(297,145,o),
(246,183,o),
(231,234,c),
(204,314,o),
(243,405,o),
(308,454,cs),
(327,468,o),
(351,483,o),
(376,479,c),
(383,474,o),
(389,467,o),
(393,459,c),
(530,260,o),
(671,524,o),
(445,623,cs),
(238,715,o),
(17,509,o),
(26,300,cs),
(31,223,o),
(60,147,o),
(116,93,cs),
(190,19,o),
(304,-18,o),
(406,12,cs),
(489,37,o),
(565,109,o),
(575,199,cs),
(579,243,o),
(556,286,o),
(522,313,cs)
);
}
);
width = 601;
}
);
leftKerningGroup = C2;
rightKerningGroup = C;
unicode = 71;
},
{
glyphname = H;
layers = (
{
anchors = (
{
name = top;
position = "{304, 625}";
},
{
name = bottom;
position = "{309, 42}";
}
);
layerId = "75E525D2-6D94-455D-A64D-8DDBA529DB5E";
shapes = (
{
closed = 1;
nodes = (
(533,636,o),
(444,653,o),
(406,599,c),
(392,576,o),
(396,548,o),
(394,522,cs),
(392,486,o),
(391,450,o),
(391,414,c),
(391,414,o),
(391,414,o),
(390,414,cs),
(339,414,o),
(288,411,o),
(237,404,cs),
(223,402,o),
(209,399,o),
(196,396,c),
(197,432,o),
(199,467,o),
(202,503,cs),
(204,529,o),
(211,559,o),
(194,583,c),
(162,636,o),
(73,653,o),
(35,599,c),
(21,576,o),
(25,548,o),
(23,522,cs),
(20,468,o),
(20,414,o),
(20,359,c),
(29,269,o),
(0,6,o),
(131,7,cs),
(149,7,o),
(171,16,o),
(179,32,c),
(199,83,o),
(194,139,o),
(194,193,c),
(193,207,o),
(193,221,o),
(193,235,c),
(260,236,o),
(327,244,o),
(394,247,c),
(397,138,o),
(410,6,o),
(502,7,cs),
(520,7,o),
(542,16,o),
(550,32,c),
(570,83,o),
(565,139,o),
(565,193,c),
(562,296,o),
(565,400,o),
(573,503,cs),
(575,529,o),
(582,559,o),
(565,583,c)
);
}
);
width = 597;
}
);
leftKerningGroup = B1;
rightKerningGroup = H;
unicode = 72;
},
{
glyphname = I;
layers = (
{
anchors = (
{
name = top;
position = "{113, 669}";
},
{
name = bottom;
position = "{123, 42}";
}
);
layerId = "75E525D2-6D94-455D-A64D-8DDBA529DB5E";
shapes = (
{
closed = 1;
nodes = (
(0,6,o),
(29,269,o),
(20,359,c),
(20,414,o),
(20,468,o),
(23,522,cs),
(25,548,o),
(21,576,o),
(35,599,c),
(73,653,o),
(162,636,o),
(194,583,c),
(211,559,o),
(204,529,o),
(202,503,cs),
(194,400,o),
(191,296,o),
(194,193,c),
(194,139,o),
(199,83,o),
(179,32,c),
(171,16,o),
(149,7,o),
(131,7,cs)
);
}
);
width = 226;
}
);
leftKerningGroup = B1;
rightKerningGroup = H;
unicode = 73;
},
{
glyphname = J;
layers = (
{
anchors = (
{
name = top;
position = "{337, 669}";
},
{
name = bottom;
position = "{292, 42}";
}
);
layerId = "75E525D2-6D94-455D-A64D-8DDBA529DB5E";
shapes = (
{
closed = 1;
nodes = (
(306,378,o),
(303,435,o),
(301,492,cs),
(299,534,o),
(286,597,o),
(323,628,cs),
(356,656,o),
(410,646,o),
(438,616,cs),
(475,577,o),
(476,519,o),
(487,469,c),
(519,291,o),
(530,30,o),
(298,-1,cs),
(216,-10,o),
(131,23,o),
(79,87,cs),
(41,132,o),
(18,194,o),
(27,253,c),
(34,289,o),
(71,313,o),
(107,312,c),
(156,314,o),
(207,284,o),
(221,235,cs),
(225,220,o),
(222,204,o),
(225,189,cs),
(227,181,o),
(230,173,o),
(237,168,cs),
(265,150,o),
(292,206,o),
(297,225,cs),
(306,256,o),
(305,289,o),
(306,321,c)
);
}
);
width = 525;
}
);
leftKerningGroup = J;
rightKerningGroup = J;
unicode = 74;
},
{
glyphname = K;
layers = (
{
anchors = (
{
name = top;
position = "{245, 669}";
},
{
name = bottom;
position = "{249, 42}";
}
);
layerId = "75E525D2-6D94-455D-A64D-8DDBA529DB5E";
shapes = (
{
closed = 1;
nodes = (
(368,274,o),
(355,286,o),
(341,296,c),
(335,300,o),
(329,304,o),
(323,309,c),
(320,312,o),
(324,314,o),
(326,316,c),
(396,369,o),
(468,445,o),
(474,536,cs),
(478,599,o),
(411,648,o),
(353,628,c),
(309,614,o),
(291,568,o),
(267,533,c),
(249,508,o),
(230,485,o),
(207,465,c),
(204,463,o),
(202,461,o),
(199,459,c),
(200,474,o),
(201,488,o),
(202,503,cs),
(204,529,o),
(211,559,o),
(194,583,c),
(162,636,o),
(73,653,o),
(35,599,c),
(21,576,o),
(25,548,o),
(23,522,c),
(20,468,o),
(20,414,o),
(20,359,c),
(29,269,o),
(0,6,o),
(131,7,cs),
(149,7,o),
(171,16,o),
(179,32,c),
(199,83,o),
(194,139,o),
(194,193,c),
(199,191,o),
(204,189,o),
(208,187,c),
(236,172,o),
(259,148,o),
(273,119,c),
(287,96,o),
(290,66,o),
(308,45,c),
(347,-9,o),
(451,-22,o),
(476,51,c),
(495,119,o),
(428,216,o),
(381,263,c)
);
}
);
width = 495;
}
);
leftKerningGroup = B1;
rightKerningGroup = K;
unicode = 75;
},
{
glyphname = L;
layers = (
{
anchors = (
{
name = top;
position = "{263, 669}";
},
{
name = bottom;
position = "{261, 10}";
},
{
name = left;
position = "{282, 362}";
}
);
layerId = "75E525D2-6D94-455D-A64D-8DDBA529DB5E";
shapes = (
{
closed = 1;
nodes = (
(380,186,o),
(363,186,o),
(347,181,c),
(322,175,o),
(296,171,o),
(270,167,cs),
(245,164,o),
(220,161,o),
(194,157,c),
(194,169,o),
(194,181,o),
(194,193,c),
(191,296,o),
(194,400,o),
(202,503,cs),
(204,529,o),
(211,559,o),
(194,583,c),
(162,636,o),
(73,653,o),
(35,599,c),
(21,576,o),
(25,548,o),
(23,522,cs),
(20,468,o),
(20,414,o),
(20,359,cs),
(21,314,o),
(22,267,o),
(24,222,cs),
(26,170,o),
(30,115,o),
(51,67,cs),
(65,33,o),
(88,13,o),
(124,7,cs),
(230,-12,o),
(330,0,o),
(434,23,cs),
(448,26,o),
(460,35,o),
(470,45,cs),
(519,99,o),
(458,175,o),
(397,182,c)
);
}
);
width = 503;
}
);
leftKerningGroup = B1;
rightKerningGroup = L;
unicode = 76;
},
{
glyphname = M;
layers = (
{
layerId = "75E525D2-6D94-455D-A64D-8DDBA529DB5E";
shapes = (
{
closed = 1;
nodes = (
(699,524,o),
(700,530,o),
(701,536,cs),
(702,547,o),
(703,559,o),
(701,570,cs),
(694,609,o),
(645,631,o),
(610,631,cs),
(578,631,o),
(555,627,o),
(531,604,cs),
(499,573,o),
(478,536,o),
(454,498,cs),
(427,455,o),
(400,411,o),
(373,368,cs),
(368,359,o),
(364,370,o),
(361,374,cs),
(330,421,o),
(299,468,o),
(266,513,c),
(238,554,o),
(200,595,o),
(155,618,cs),
(116,639,o),
(62,638,o),
(35,599,c),
(21,576,o),
(25,548,o),
(23,522,cs),
(20,468,o),
(20,414,o),
(20,359,c),
(29,269,o),
(0,6,o),
(131,7,cs),
(149,7,o),
(171,16,o),
(179,32,c),
(199,83,o),
(194,139,o),
(194,193,c),
(193,231,o),
(192,270,o),
(193,309,c),
(194,307,o),
(195,306,o),
(196,304,cs),
(239,228,o),
(275,164,o),
(373,159,c),
(427,159,o),
(475,191,o),
(501,238,cs),
(506,246,o),
(511,254,o),
(516,263,c),
(518,151,o),
(527,6,o),
(624,7,cs),
(642,7,o),
(664,16,o),
(672,32,c),
(692,83,o),
(688,139,o),
(687,193,cs),
(686,250,o),
(684,307,o),
(686,363,cs),
(687,415,o),
(693,467,o),
(699,518,c)
);
}
);
width = 723;
}
);
leftKerningGroup = B1;
rightKerningGroup = H;
unicode = 77;
},
{
glyphname = N;
layers = (
{
anchors = (
{
name = top;
position = "{291, 669}";
},
{
name = bottom;
position = "{312, 42}";
}
);
layerId = "75E525D2-6D94-455D-A64D-8DDBA529DB5E";
shapes = (
{
closed = 1;
nodes = (
(533,636,o),
(444,653,o),
(406,599,c),
(392,576,o),
(396,548,o),
(394,522,cs),
(391,468,o),
(391,414,o),
(391,359,c),
(392,346,o),
(393,329,o),
(393,309,c),
(352,367,o),
(313,427,o),
(273,486,cs),
(254,513,o),
(236,541,o),
(217,568,cs),
(182,618,o),
(78,668,o),
(35,599,cs),
(21,576,o),
(25,548,o),
(23,522,cs),
(20,468,o),
(20,414,o),
(20,359,c),
(29,269,o),
(0,6,o),
(131,7,cs),
(149,7,o),
(171,16,o),
(179,32,c),
(199,83,o),
(194,139,o),
(194,193,cs),
(193,235,o),
(192,276,o),
(193,318,c),
(235,256,o),
(282,196,o),
(330,138,c),
(353,112,o),
(404,54,o),
(449,26,c),
(463,14,o),
(480,7,o),
(502,7,cs),
(533,7,o),
(560,32,o),
(562,63,c),
(566,106,o),
(565,149,o),
(565,193,c),
(562,296,o),
(565,400,o),
(573,503,cs),
(575,529,o),
(582,559,o),
(565,583,c)
);
}
);
width = 597;
}
);
leftKerningGroup = B1;
rightKerningGroup = H;
unicode = 78;
},
{
glyphname = O;
layers = (
{
anchors = (
{
name = top;
position = "{344, 669}";
},
{
name = bottom;
position = "{345, 42}";
}
);
layerId = "75E525D2-6D94-455D-A64D-8DDBA529DB5E";
shapes = (
{
closed = 1;
nodes = (
(653,236,o),
(629,177,o),
(587,127,cs),
(504,28,o),
(366,-25,o),
(239,9,cs),
(214,16,o),
(190,25,o),
(168,38,cs),
(-39,156,o),
(-5,446,o),
(168,579,cs),
(235,631,o),
(324,655,o),
(408,640,cs),
(559,614,o),
(667,469,o),
(660,317,c),
(660,310,o),
(660,303,o),
(659,296,cs)
);
},
{
closed = 1;
nodes = (
(221,239,o),
(228,210,o),
(243,189,cs),
(279,141,o),
(350,174,o),
(387,202,cs),
(425,231,o),
(451,273,o),
(463,319,cs),
(472,352,o),
(469,391,o),
(451,421,cs),
(431,456,o),
(374,476,o),
(337,463,cs),
(301,450,o),
(271,411,o),
(253,379,cs),
(232,343,o),
(224,306,o),
(222,265,cs)
);
}
);
width = 686;
}
);
leftKerningGroup = C2;
rightKerningGroup = C;
unicode = 79;
},
{
glyphname = P;
layers = (
{
layerId = "75E525D2-6D94-455D-A64D-8DDBA529DB5E";
shapes = (
{
closed = 1;
nodes = (
(367,607,o),
(299,635,o),
(228,642,cs),
(174,648,o),
(69,653,o),
(35,599,cs),
(21,576,o),
(25,548,o),
(23,522,cs),
(20,468,o),
(20,414,o),
(20,359,c),
(29,269,o),
(0,6,o),
(131,7,cs),
(149,7,o),
(171,16,o),
(179,32,c),
(195,73,o),
(195,118,o),
(194,163,c),
(209,160,o),
(225,159,o),
(239,159,cs),
(313,159,o),
(393,180,o),
(445,236,cs),
(532,332,o),
(507,472,o),
(419,557,cs)
);
},
{
closed = 1;
nodes = (
(253,327,o),
(226,325,o),
(200,325,cs),
(198,325,o),
(195,325,o),
(193,325,c),
(194,383,o),
(197,440,o),
(202,498,c),
(229,493,o),
(255,482,o),
(280,456,cs),
(310,426,o),
(309,369,o),
(275,343,cs)
);
}
);
width = 524;
}
);
leftKerningGroup = B1;
rightKerningGroup = P;
unicode = 80;
},
{
glyphname = Q;
layers = (
{
layerId = "75E525D2-6D94-455D-A64D-8DDBA529DB5E";
shapes = (
{
closed = 1;
nodes = (
(287,315,o),
(362,311,o),
(391,288,cs),
(464,230,o),
(517,123,o),
(544,35,cs),
(553,4,o),
(578,-33,o),
(570,-65,c),
(561,-108,o),
(513,-129,o),
(473,-122,cs),
(444,-117,o),
(415,-105,o),
(397,-81,c),
(379,-61,o),
(375,-34,o),
(364,-10,c),
(352,20,o),
(340,50,o),
(329,80,cs),
(308,133,o),
(287,204,o),
(287,262,cs)
);
},
{
closed = 1;
nodes = (
(653,236,o),
(629,177,o),
(587,127,cs),
(504,28,o),
(366,-25,o),
(239,9,cs),
(214,16,o),
(190,25,o),
(168,38,cs),
(-39,156,o),
(-5,446,o),
(168,579,cs),
(235,631,o),
(324,655,o),
(408,640,cs),
(559,614,o),
(667,469,o),
(660,317,c),
(660,310,o),
(660,303,o),
(659,296,cs)
);
},
{
closed = 1;
nodes = (
(221,239,o),
(228,210,o),
(243,189,cs),
(279,141,o),
(350,174,o),
(387,202,cs),
(425,231,o),
(451,273,o),
(463,319,cs),
(472,352,o),
(469,391,o),
(451,421,cs),
(431,456,o),
(374,476,o),
(337,463,cs),
(301,450,o),
(271,411,o),
(253,379,cs),
(232,343,o),
(224,306,o),
(222,265,cs)
);
}
);
width = 686;
}
);
leftKerningGroup = C2;
rightKerningGroup = C;
unicode = 81;
},
{
glyphname = R;
layers = (
{
anchors = (
{
name = top;
position = "{249, 669}";
},
{
name = bottom;
position = "{252, 42}";
}
);
layerId = "75E525D2-6D94-455D-A64D-8DDBA529DB5E";
shapes = (
{
closed = 1;
nodes = (
(442,257,o),
(494,322,o),
(501,397,cs),
(510,500,o),
(428,589,o),
(338,627,cs),
(285,650,o),
(226,653,o),
(170,650,c),
(125,646,o),
(62,642,o),
(35,599,cs),
(21,576,o),
(25,548,o),
(23,522,c),
(20,468,o),
(20,414,o),
(20,359,c),
(29,269,o),
(0,6,o),
(131,7,cs),
(149,7,o),
(171,16,o),
(179,32,c),
(190,58,o),
(193,86,o),
(194,115,c),
(212,98,o),
(232,84,o),
(253,73,c),
(304,49,o),
(361,16,o),
(418,37,c),
(495,72,o),
(466,160,o),
(398,187,c),
(382,193,o),
(365,199,o),
(348,206,c),
(344,210,o),
(373,220,o),
(377,223,c)
);
},
{
closed = 1;
nodes = (
(279,369,o),
(238,356,o),
(194,350,c),
(195,401,o),
(198,452,o),
(202,503,c),
(213,501,o),
(224,499,o),
(235,496,cs),
(273,485,o),
(318,461,o),
(300,415,c)
);
}
);
width = 527;
}
);
leftKerningGroup = B1;
rightKerningGroup = R;
unicode = 82;
},
{
glyphname = S;
layers = (
{
anchors = (
{
name = top;
position = "{277, 669}";
},
{
name = bottom;
position = "{269, 42}";
}
);
layerId = "75E525D2-6D94-455D-A64D-8DDBA529DB5E";
shapes = (
{
closed = 1;
nodes = (
(346,644,o),
(420,624,o),
(472,574,c),
(488,560,o),
(501,540,o),
(507,519,cs),
(526,453,o),
(454,428,o),
(403,447,c),
(373,453,o),
(347,474,o),
(316,478,cs),
(278,484,o),
(227,462,o),
(221,420,cs),
(216,386,o),
(266,367,o),
(290,352,c),
(336,328,o),
(381,302,o),
(419,268,cs),
(513,184,o),
(515,54,o),
(382,13,cs),
(334,-1,o),
(283,-1,o),
(233,3,c),
(166,14,o),
(56,30,o),
(31,104,cs),
(20,134,o),
(34,168,o),
(62,183,cs),
(97,203,o),
(138,195,o),
(173,180,cs),
(197,170,o),
(224,167,o),
(249,166,c),
(260,166,o),
(272,165,o),
(281,168,c),
(272,178,o),
(258,184,o),
(247,192,c),
(203,218,o),
(155,239,o),
(116,272,c),
(73,305,o),
(36,352,o),
(28,407,c),
(3,552,o),
(146,648,o),
(277,645,cs)
);
}
);
width = 536;
}
);
leftKerningGroup = C2;
rightKerningGroup = C;
unicode = 83;
},
{
glyphname = T;
layers = (
{
anchors = (
{
name = top;
position = "{262, 669}";
},
{
name = bottom;
position = "{281, 17}";
}
);
layerId = "75E525D2-6D94-455D-A64D-8DDBA529DB5E";
shapes = (
{
closed = 1;
nodes = (
(439,651,o),
(415,651,o),
(391,649,cs),
(374,647,o),
(357,648,o),
(340,647,cs),
(271,643,o),
(202,642,o),
(133,638,cs),
(96,636,o),
(38,627,o),
(18,592,cs),
(-4,555,o),
(23,511,o),
(58,494,c),
(94,475,o),
(135,473,o),
(176,472,c),
(178,472,o),
(179,472,o),
(181,472,c),
(180,435,o),
(180,397,o),
(180,359,c),
(189,269,o),
(160,6,o),
(291,7,cs),
(309,7,o),
(331,16,o),
(339,32,c),
(359,83,o),
(354,139,o),
(354,193,c),
(351,288,o),
(353,384,o),
(360,479,c),
(393,481,o),
(426,482,o),
(459,483,c),
(561,499,o),
(547,610,o),
(462,641,c)
);
}
);
width = 541;
}
);
unicode = 84;
},
{
glyphname = U;
layers = (
{
anchors = (
{
name = top;
position = "{291, 669}";
},
{
name = bottom;
position = "{300, 42}";
}
);
layerId = "75E525D2-6D94-455D-A64D-8DDBA529DB5E";
shapes = (
{
closed = 1;
nodes = (
(183,634,o),
(214,594,o),
(218,537,c),
(219,483,o),
(215,428,o),
(219,374,cs),
(223,302,o),
(237,226,o),
(279,166,c),
(283,156,o),
(295,169,o),
(300,172,c),
(327,199,o),
(338,236,o),
(348,271,c),
(370,357,o),
(378,448,o),
(375,536,cs),
(373,570,o),
(369,600,o),
(399,624,cs),
(422,642,o),
(455,645,o),
(483,638,cs),
(537,626,o),
(567,588,o),
(570,534,cs),
(573,483,o),
(573,432,o),
(568,381,cs),
(556,276,o),
(542,162,o),
(475,75,cs),
(424,12,o),
(336,-20,o),
(257,0,c),
(98,35,o),
(38,218,o),
(25,362,cs),
(20,415,o),
(19,467,o),
(21,520,cs),
(25,592,o),
(40,651,o),
(126,645,c)
);
}
);
width = 593;
}
);
leftKerningGroup = U;
rightKerningGroup = U;
unicode = 85;
},
{
glyphname = V;
layers = (
{
layerId = "75E525D2-6D94-455D-A64D-8DDBA529DB5E";
shapes = (
{
closed = 1;
nodes = (
(553,376,o),
(516,218,o),
(430,83,c),
(403,37,o),
(353,4,o),
(299,3,c),
(239,0,o),
(179,32,o),
(150,85,c),
(87,221,o),
(42,366,o),
(14,514,cs),
(7,548,o),
(7,597,o),
(37,622,cs),
(64,646,o),
(107,644,o),
(137,626,cs),
(194,592,o),
(203,523,o),
(218,465,cs),
(227,427,o),
(237,389,o),
(248,352,cs),
(258,318,o),
(266,276,o),
(282,245,cs),
(284,241,o),
(286,230,o),
(289,239,c),
(338,342,o),
(364,453,o),
(384,564,c),
(385,581,o),
(389,598,o),
(402,610,c),
(416,625,o),
(434,635,o),
(454,636,c),
(473,638,o),
(493,637,o),
(511,630,cs),
(553,613,o),
(585,579,o),
(580,532,c)
);
}
);
width = 591;
}
);
leftKerningGroup = V;
rightKerningGroup = V;
unicode = 86;
},
{
glyphname = W;
layers = (
{
anchors = (
{
name = top;
position = "{347, 669}";
},
{
name = bottom;
position = "{369, 42}";
}
);
layerId = "75E525D2-6D94-455D-A64D-8DDBA529DB5E";
shapes = (
{
closed = 1;
nodes = (
(655,636,o),
(567,653,o),
(528,599,c),
(514,576,o),
(518,548,o),
(516,522,cs),
(513,468,o),
(513,414,o),
(513,359,c),
(515,346,o),
(515,329,o),
(515,310,c),
(493,335,o),
(468,357,o),
(441,377,c),
(363,429,o),
(285,415,o),
(231,338,cs),
(219,322,o),
(206,305,o),
(193,289,c),
(193,360,o),
(196,432,o),
(202,503,cs),
(204,529,o),
(211,559,o),
(194,583,c),
(162,636,o),
(73,653,o),
(35,599,c),
(21,576,o),
(25,548,o),
(23,522,cs),
(20,468,o),
(20,414,o),
(20,359,c),
(29,276,o),
(5,45,o),
(104,11,c),
(117,5,o),
(132,3,o),
(150,10,c),
(188,23,o),
(217,59,o),
(244,87,cs),
(275,119,o),
(304,153,o),
(334,186,cs),
(346,199,o),
(358,212,o),
(369,225,cs),
(371,228,o),
(373,228,o),
(375,225,cs),
(425,160,o),
(466,86,o),
(533,37,c),
(552,21,o),
(576,11,o),
(601,7,cs),
(607,6,o),
(613,6,o),
(618,7,c),
(620,7,o),
(622,7,o),
(624,7,cs),
(709,7,o),
(688,140,o),
(687,193,cs),
(684,296,o),
(687,400,o),
(695,503,cs),
(697,529,o),
(704,559,o),
(687,583,c)
);
}
);
width = 719;
}
);
leftKerningGroup = B1;
rightKerningGroup = H;
unicode = 87;
},
{
glyphname = X;
layers = (
{
layerId = "75E525D2-6D94-455D-A64D-8DDBA529DB5E";
shapes = (
{
closed = 1;
nodes = (
(444,11,o),
(388,63,o),
(352,98,cs),
(330,118,o),
(310,140,o),
(290,162,c),
(287,168,o),
(285,161,o),
(282,158,cs),
(253,119,o),
(224,79,o),
(195,39,c),
(179,15,o),
(148,6,o),
(120,6,cs),
(68,7,o),
(6,50,o),
(11,107,cs),
(13,132,o),
(30,149,o),
(44,168,cs),
(70,204,o),
(96,239,o),
(123,275,cs),
(136,293,o),
(150,310,o),
(163,328,cs),
(166,332,o),
(166,332,o),
(164,336,cs),
(136,381,o),
(109,426,o),
(82,471,cs),
(66,497,o),
(48,529,o),
(41,559,cs),
(33,592,o),
(51,619,o),
(81,633,cs),
(97,641,o),
(116,640,o),
(133,638,cs),
(155,635,o),
(174,626,o),
(190,611,c),
(218,581,o),
(242,548,o),
(263,513,c),
(266,510,o),
(281,479,o),
(284,483,cs),
(308,514,o),
(334,544,o),
(361,573,c),
(383,594,o),
(404,618,o),
(432,630,cs),
(477,648,o),
(533,630,o),
(554,586,cs),
(576,537,o),
(534,493,o),
(509,454,c),
(477,407,o),
(439,363,o),
(404,318,c),
(401,313,o),
(393,308,o),
(398,303,c),
(436,252,o),
(480,205,o),
(528,164,c),
(541,154,o),
(555,145,o),
(565,132,cs),
(590,101,o),
(592,55,o),
(560,29,cs),
(541,13,o),
(520,7,o),
(500,8,cs)
);
}
);
width = 594;
}
);
leftKerningGroup = X;
rightKerningGroup = X;
unicode = 88;
},
{
glyphname = Y;
layers = (
{
anchors = (
{
name = top;
position = "{291, 669}";
},
{
name = bottom;
position = "{274, 0}";
}
);
layerId = "75E525D2-6D94-455D-A64D-8DDBA529DB5E";
shapes = (
{
closed = 1;
nodes = (
(177,148,o),
(175,194,o),
(181,240,c),
(181,244,o),
(174,245,o),
(171,248,c),
(154,257,o),
(140,269,o),
(125,281,c),
(103,301,o),
(85,324,o),
(69,349,c),
(32,416,o),
(13,504,o),
(34,578,c),
(43,601,o),
(55,626,o),
(81,634,c),
(121,649,o),
(171,631,o),
(192,594,c),
(231,530,o),
(202,440,o),
(259,385,c),
(272,370,o),
(290,386,o),
(302,394,c),
(337,427,o),
(349,476,o),
(355,521,c),
(361,552,o),
(353,587,o),
(373,613,c),
(379,619,o),
(385,624,o),
(391,629,cs),
(417,647,o),
(453,647,o),
(482,638,c),
(530,620,o),
(564,582,o),
(555,528,c),
(552,497,o),
(548,466,o),
(542,436,cs),
(525,344,o),
(465,258,o),
(376,226,c),
(369,225,o),
(373,218,o),
(373,213,c),
(376,179,o),
(375,145,o),
(373,111,cs),
(372,85,o),
(376,51,o),
(359,29,cs),
(303,-41,o),
(168,12,o),
(175,102,c)
);
}
);
width = 582;
}
);
leftKerningGroup = Y;
rightKerningGroup = Y;
unicode = 89;
},
{
glyphname = Z;
layers = (
{
anchors = (
{
name = top;
position = "{247, 669}";
},
{
name = bottom;
position = "{256, 3}";
}
);
layerId = "75E525D2-6D94-455D-A64D-8DDBA529DB5E";
shapes = (
{
closed = 1;
nodes = (
(340,649,o),
(436,614,o),
(455,523,cs),
(463,485,o),
(452,445,o),
(436,410,cs),
(399,330,o),
(354,254,o),
(305,180,c),
(305,179,o),
(301,176,o),
(305,175,c),
(310,175,o),
(316,176,o),
(321,176,cs),
(336,176,o),
(350,177,o),
(365,176,cs),
(402,175,o),
(439,159,o),
(460,128,cs),
(487,88,o),
(473,40,o),
(430,21,cs),
(396,6,o),
(356,13,o),
(320,10,c),
(261,8,o),
(202,6,o),
(143,4,c),
(79,-4,o),
(0,56,o),
(26,124,c),
(98,232,o),
(180,333,o),
(235,451,cs),
(254,492,o),
(255,478,o),
(209,479,cs),
(158,481,o),
(102,468,o),
(59,502,cs),
(27,528,o),
(17,574,o),
(51,603,c),
(96,634,o),
(200,644,o),
(256,646,cs)
);
}
);
width = 494;
}
);
leftKerningGroup = B1;
rightKerningGroup = H;
unicode = 90;
},
{
glyphname = y;
layers = (
{
anchors = (
{
name = top;
position = "{291, 669}";
},
{
name = bottom;
position = "{274, 0}";
}
);
layerId = "75E525D2-6D94-455D-A64D-8DDBA529DB5E";
shapes = (
{
closed = 1;
nodes = (
(209,3,o),
(160,39,o),
(161,92,cs),
(161,99,o),
(162,105,o),
(165,112,cs),
(178,147,o),
(192,181,o),
(206,216,c),
(207,221,o),
(207,220,o),
(204,224,cs),
(150,288,o),
(102,358,o),
(67,434,c),
(45,486,o),
(15,543,o),
(30,601,c),
(53,658,o),
(133,654,o),
(172,616,cs),
(217,571,o),
(228,506,o),
(259,453,c),
(266,439,o),
(273,426,o),
(281,413,cs),
(283,409,o),
(285,410,o),
(286,414,cs),
(309,472,o),
(337,528,o),
(367,583,cs),
(394,633,o),
(449,666,o),
(504,633,cs),
(522,622,o),
(533,602,o),
(541,583,cs),
(559,542,o),
(495,402,o),
(478,355,c),
(435,251,o),
(393,146,o),
(352,42,cs),
(342,16,o),
(317,2,o),
(291,-4,c),
(280,-5,o),
(269,-4,o),
(257,-4,c)
);
}
);
width = 570;
}
);
leftKerningGroup = Y;
rightKerningGroup = Y;
unicode = 121;
},
{
glyphname = Thorn;
layers = (
{
layerId = "75E525D2-6D94-455D-A64D-8DDBA529DB5E";
shapes = (
{
closed = 1;
nodes = (
(458,452,o),
(320,521,o),
(203,513,c),
(205,537,o),
(209,562,o),
(194,583,c),
(162,636,o),
(73,653,o),
(35,599,c),
(21,576,o),
(25,548,o),
(23,522,cs),
(20,468,o),
(20,414,o),
(20,359,c),
(29,269,o),
(0,6,o),
(131,7,cs),
(149,7,o),
(171,16,o),
(179,32,c),
(188,55,o),
(192,79,o),
(194,103,c),
(196,103,o),
(198,102,o),
(201,102,c),
(275,92,o),
(354,118,o),
(407,170,c),
(449,209,o),
(472,267,o),
(468,324,cs)
);
},
{
closed = 1;
nodes = (
(235,249,o),
(214,242,o),
(193,235,c),
(192,285,o),
(193,335,o),
(195,386,c),
(228,384,o),
(265,378,o),
(286,351,c),
(299,319,o),
(281,281,o),
(253,263,c)
);
}
);
width = 494;
}
);
leftKerningGroup = B1;
rightKerningGroup = B;
unicode = 222;
},
{
glyphname = germandbls;
layers = (
{
layerId = "75E525D2-6D94-455D-A64D-8DDBA529DB5E";
shapes = (
{
closed = 1;
nodes = (
(392,310,o),
(396,298,o),
(417,322,c),
(458,365,o),
(478,429,o),
(466,488,cs),
(440,606,o),
(311,663,o),
(200,654,c),
(160,652,o),
(119,649,o),
(82,634,cs),
(27,611,o),
(28,575,o),
(23,522,c),
(20,468,o),
(20,414,o),
(20,359,c),
(29,269,o),
(0,6,o),
(131,7,cs),
(149,7,o),
(171,16,o),
(179,32,c),
(199,83,o),
(194,139,o),
(194,193,c),
(193,201,o),
(193,208,o),
(193,216,c),
(234,212,o),
(310,216,o),
(325,177,c),
(340,133,o),
(295,122,o),
(262,116,c),
(246,114,o),
(233,106,o),
(224,94,cs),
(187,42,o),
(255,-8,o),
(305,-3,c),
(367,5,o),
(438,21,o),
(473,78,c),
(520,150,o),
(483,243,o),
(418,290,c)
);
},
{
closed = 1;
nodes = (
(256,400,o),
(225,388,o),
(195,377,c),
(196,419,o),
(199,461,o),
(202,503,cs),
(203,511,o),
(204,519,o),
(204,527,c),
(229,526,o),
(253,520,o),
(273,506,c),
(300,489,o),
(292,448,o),
(276,426,cs)
);
}
);
width = 520;
}
);
leftKerningGroup = B1;
rightKerningGroup = B;
unicode = 223;
},
{
glyphname = zero;
layers = (
{
layerId = "75E525D2-6D94-455D-A64D-8DDBA529DB5E";
shapes = (
{
closed = 1;
nodes = (
(324,654,o),
(235,630,o),
(168,578,cs),
(-5,445,o),
(-39,155,o),
(168,37,cs),
(190,24,o),
(214,15,o),
(239,8,cs),
(366,-26,o),
(504,27,o),
(587,126,cs),
(629,176,o),
(653,235,o),
(659,295,cs),
(660,302,o),
(660,309,o),
(660,316,c),
(667,468,o),
(559,613,o),
(408,639,cs)
);
},
{
closed = 1;
nodes = (
(374,475,o),
(431,455,o),
(451,421,c),
(452,420,o),
(452,419,o),
(452,419,c),
(450,418,o),
(447,417,o),
(444,416,cs),
(408,404,o),
(371,391,o),
(335,379,cs),
(302,367,o),
(270,356,o),
(237,345,c),
(241,356,o),
(246,367,o),
(253,378,cs),
(271,410,o),
(301,449,o),
(337,462,cs)
);
},
{
closed = 1;
nodes = (
(350,174,o),
(279,140,o),
(243,188,cs),
(239,194,o),
(235,200,o),
(232,207,c),
(261,213,o),
(288,222,o),
(307,227,c),
(353,241,o),
(399,255,o),
(445,270,c),
(431,243,o),
(411,220,o),
(387,201,c)
);
}
);
width = 686;
}
);
leftKerningGroup = C2;
rightKerningGroup = C;
unicode = 48;
},
{
glyphname = one;
layers = (
{
layerId = "75E525D2-6D94-455D-A64D-8DDBA529DB5E";
shapes = (
{
closed = 1;
nodes = (
(346,616,o),
(307,638,o),
(264,631,cs),
(242,627,o),
(227,614,o),
(209,602,c),
(161,567,o),
(111,535,o),
(67,495,cs),
(53,482,o),
(34,473,o),
(26,455,c),
(1,405,o),
(61,353,o),
(109,356,c),
(130,354,o),
(150,363,o),
(165,377,cs),
(175,386,o),
(186,395,o),
(197,404,c),
(197,389,o),
(197,374,o),
(197,359,c),
(206,269,o),
(177,6,o),
(308,7,cs),
(326,7,o),
(348,16,o),
(356,32,c),
(376,83,o),
(371,139,o),
(371,193,c),
(368,296,o),
(371,400,o),
(379,503,cs),
(381,529,o),
(388,559,o),
(371,583,cs)
);
}
);
width = 403;
}
);
leftKerningGroup = B1;
rightKerningGroup = H;
unicode = 49;
},
{
glyphname = two;
layers = (
{
layerId = "75E525D2-6D94-455D-A64D-8DDBA529DB5E";
shapes = (
{
closed = 1;
nodes = (
(218,8,o),
(171,11,o),
(126,23,c),
(85,36,o),
(48,73,o),
(52,118,c),
(53,140,o),
(68,157,o),
(85,170,c),
(122,201,o),
(159,233,o),
(192,268,cs),
(233,312,o),
(272,361,o),
(289,420,cs),
(294,439,o),
(300,475,o),
(273,480,c),
(255,481,o),
(237,473,o),
(224,462,cs),
(189,431,o),
(195,378,o),
(162,346,cs),
(112,298,o),
(37,356,o),
(27,412,cs),
(18,466,o),
(41,522,o),
(76,562,c),
(171,665,o),
(341,656,o),
(434,555,cs),
(542,440,o),
(470,295,o),
(384,191,cs),
(377,182,o),
(367,174,o),
(362,164,c),
(379,165,o),
(399,170,o),
(417,172,cs),
(467,178,o),
(531,137,o),
(524,82,cs),
(522,65,o),
(513,50,o),
(499,41,cs),
(481,28,o),
(459,27,o),
(438,24,cs),
(381,15,o),
(323,8,o),
(266,9,c)
);
}
);
width = 550;
}
);
unicode = 50;
},
{
glyphname = three;
layers = (
{
layerId = "75E525D2-6D94-455D-A64D-8DDBA529DB5E";
shapes = (
{
closed = 1;
nodes = (
(373,633,o),
(481,532,o),
(442,401,cs),
(435,378,o),
(423,358,o),
(409,338,c),
(407,337,o),
(407,336,o),
(409,335,cs),
(487,270,o),
(499,153,o),
(430,77,cs),
(340,-19,o),
(176,-9,o),
(84,78,c),
(49,114,o),
(15,163,o),
(29,215,c),
(39,248,o),
(77,263,o),
(109,258,cs),
(132,255,o),
(152,244,o),
(169,228,c),
(177,222,o),
(184,216,o),
(190,207,c),
(201,194,o),
(214,177,o),
(233,175,c),
(253,174,o),
(272,187,o),
(278,206,cs),
(280,214,o),
(283,226,o),
(275,231,cs),
(268,236,o),
(260,237,o),
(252,239,cs),
(239,242,o),
(227,247,o),
(215,254,cs),
(196,264,o),
(181,281,o),
(175,301,cs),
(172,313,o),
(171,325,o),
(176,336,c),
(179,345,o),
(180,355,o),
(185,364,cs),
(204,397,o),
(238,416,o),
(258,448,c),
(263,458,o),
(268,468,o),
(267,479,c),
(268,486,o),
(255,482,o),
(251,483,cs),
(233,485,o),
(204,470,o),
(187,463,c),
(166,456,o),
(144,448,o),
(122,450,cs),
(88,453,o),
(48,479,o),
(50,517,cs),
(53,557,o),
(99,588,o),
(131,604,cs),
(167,621,o),
(207,633,o),
(247,633,cs)
);
}
);
width = 501;
}
);
rightKerningGroup = B;
unicode = 51;
},
{
glyphname = four;
layers = (
{
layerId = "75E525D2-6D94-455D-A64D-8DDBA529DB5E";
shapes = (
{
closed = 1;
nodes = (
(306,6,o),
(335,269,o),
(326,359,c),
(325,414,o),
(326,468,o),
(328,522,c),
(331,548,o),
(326,576,o),
(341,599,c),
(379,653,o),
(468,636,o),
(499,583,c),
(517,559,o),
(509,529,o),
(508,503,c),
(499,400,o),
(497,296,o),
(499,193,cs),
(500,139,o),
(504,83,o),
(485,32,c),
(476,16,o),
(455,7,o),
(437,7,cs)
);
},
{
closed = 1;
nodes = (
(140,198,o),
(66,223,o),
(38,285,c),
(15,329,o),
(29,379,o),
(47,422,cs),
(68,475,o),
(97,525,o),
(127,573,c),
(139,589,o),
(151,605,o),
(168,615,c),
(193,628,o),
(225,630,o),
(251,617,cs),
(270,607,o),
(286,590,o),
(293,568,cs),
(303,540,o),
(288,509,o),
(279,482,c),
(263,442,o),
(250,402,o),
(236,362,c),
(236,361,o),
(236,361,o),
(237,361,cs),
(246,361,o),
(254,362,o),
(263,362,c),
(287,364,o),
(310,367,o),
(334,370,c),
(362,375,o),
(391,378,o),
(418,369,cs),
(449,358,o),
(478,332,o),
(481,297,c),
(481,277,o),
(473,257,o),
(456,246,cs),
(421,225,o),
(379,224,o),
(339,217,c),
(294,212,o),
(250,205,o),
(204,202,cs)
);
}
);
width = 531;
}
);
rightKerningGroup = H;
unicode = 52;
},
{
glyphname = five;
layers = (
{
layerId = "75E525D2-6D94-455D-A64D-8DDBA529DB5E";
shapes = (
{
closed = 1;
nodes = (
(135,15,o),
(54,34,o),
(27,88,cs),
(16,109,o),
(18,137,o),
(33,156,cs),
(56,184,o),
(99,187,o),
(132,177,c),
(280,118,o),
(330,281,o),
(231,266,c),
(211,265,o),
(192,257,o),
(174,249,c),
(141,236,o),
(104,242,o),
(75,260,cs),
(50,275,o),
(31,300,o),
(28,329,c),
(27,386,o),
(28,443,o),
(28,501,c),
(29,528,o),
(26,573,o),
(44,595,c),
(80,635,o),
(141,632,o),
(191,633,cs),
(234,634,o),
(276,632,o),
(318,631,c),
(344,629,o),
(372,632,o),
(396,622,c),
(452,602,o),
(490,533,o),
(438,489,c),
(417,473,o),
(390,469,o),
(365,472,c),
(336,473,o),
(306,475,o),
(277,476,c),
(260,478,o),
(242,479,o),
(224,480,c),
(220,480,o),
(212,484,o),
(212,477,c),
(219,409,o),
(198,432,o),
(262,422,cs),
(336,412,o),
(405,369,o),
(445,305,cs),
(498,221,o),
(472,118,o),
(394,60,cs),
(355,30,o),
(308,15,o),
(260,9,c),
(237,7,o),
(213,9,o),
(190,8,c)
);
}
);
width = 493;
}
);
unicode = 53;
},
{
glyphname = six;
layers = (
{
layerId = "75E525D2-6D94-455D-A64D-8DDBA529DB5E";
shapes = (
{
closed = 1;
nodes = (
(189,6,o),
(57,117,o),
(32,257,cs),
(12,370,o),
(40,505,o),
(134,579,cs),
(233,658,o),
(389,648,o),
(474,552,cs),
(498,525,o),
(519,493,o),
(524,456,cs),
(527,434,o),
(522,410,o),
(511,391,cs),
(497,366,o),
(462,360,o),
(437,366,cs),
(404,374,o),
(381,403,o),
(365,432,cs),
(328,498,o),
(263,457,o),
(241,402,cs),
(232,379,o),
(224,355,o),
(223,329,c),
(223,327,o),
(227,330,o),
(229,330,c),
(241,335,o),
(254,339,o),
(267,342,cs),
(375,368,o),
(533,293,o),
(540,172,c),
(540,125,o),
(512,83,o),
(476,55,cs),
(436,23,o),
(382,9,o),
(331,8,cs)
);
},
{
closed = 1;
nodes = (
(336,167,o),
(355,172,o),
(371,184,c),
(387,194,o),
(381,208,o),
(367,217,cs),
(356,223,o),
(343,227,o),
(330,229,cs),
(302,232,o),
(277,221,o),
(258,202,cs),
(250,194,o),
(273,182,o),
(278,180,c),
(291,172,o),
(304,168,o),
(317,168,c)
);
}
);
width = 565;
}
);
leftKerningGroup = C2;
rightKerningGroup = C;
unicode = 54;
},
{
glyphname = seven;
layers = (
{
layerId = "75E525D2-6D94-455D-A64D-8DDBA529DB5E";
shapes = (
{
closed = 1;
nodes = (
(438,610,o),
(406,628,o),
(374,631,cs),
(323,636,o),
(271,635,o),
(221,634,cs),
(173,633,o),
(120,632,o),
(73,619,cs),
(24,605,o),
(2,555,o),
(40,516,c),
(77,480,o),
(115,481,o),
(163,480,cs),
(203,480,o),
(242,481,o),
(282,481,c),
(281,440,o),
(281,400,o),
(281,359,c),
(291,269,o),
(261,6,o),
(392,7,cs),
(410,7,o),
(432,16,o),
(440,32,c),
(460,83,o),
(455,139,o),
(455,193,cs),
(454,258,o),
(454,323,o),
(456,387,cs),
(457,420,o),
(459,453,o),
(462,485,cs),
(464,515,o),
(474,557,o),
(455,583,c)
);
}
);
width = 487;
}
);
rightKerningGroup = H;
unicode = 55;
},
{
glyphname = eight;
layers = (
{
layerId = "75E525D2-6D94-455D-A64D-8DDBA529DB5E";
shapes = (
{
closed = 1;
nodes = (
(140,5,o),
(29,69,o),
(26,188,c),
(26,220,o),
(32,253,o),
(48,281,c),
(54,293,o),
(61,306,o),
(70,316,c),
(71,318,o),
(73,320,o),
(71,321,c),
(44,351,o),
(28,389,o),
(26,428,cs),
(21,513,o),
(78,596,o),
(157,625,c),
(170,631,o),
(184,630,o),
(197,631,c),
(211,633,o),
(225,634,o),
(239,634,c),
(358,637,o),
(489,553,o),
(492,426,cs),
(493,382,o),
(475,337,o),
(442,308,c),
(438,305,o),
(445,301,o),
(447,297,c),
(451,291,o),
(456,286,o),
(461,279,c),
(479,251,o),
(490,219,o),
(492,185,c),
(494,47,o),
(366,7,o),
(250,10,c)
);
},
{
closed = 1;
nodes = (
(255,413,o),
(306,407,o),
(309,441,c),
(314,474,o),
(286,486,o),
(258,485,c),
(240,485,o),
(238,485,o),
(227,471,c),
(215,455,o),
(207,434,o),
(209,414,c),
(209,409,o),
(226,412,o),
(231,411,c)
);
},
{
closed = 1;
nodes = (
(256,168,o),
(307,163,o),
(309,197,c),
(314,230,o),
(285,241,o),
(257,240,c),
(247,239,o),
(238,241,o),
(232,231,c),
(217,215,o),
(207,192,o),
(209,170,c),
(207,163,o),
(226,167,o),
(231,166,c)
);
}
);
width = 518;
}
);
rightKerningGroup = B;
unicode = 56;
},
{
glyphname = nine;
layers = (
{
layerId = "75E525D2-6D94-455D-A64D-8DDBA529DB5E";
shapes = (
{
closed = 1;
nodes = (
(544,137,o),
(463,20,o),
(325,11,cs),
(259,8,o),
(188,28,o),
(146,82,c),
(132,104,o),
(121,133,o),
(136,158,c),
(149,182,o),
(178,191,o),
(204,188,cs),
(227,186,o),
(247,175,o),
(268,168,cs),
(301,157,o),
(341,205,o),
(350,233,c),
(341,231,o),
(334,225,o),
(325,222,cs),
(300,212,o),
(272,205,o),
(245,204,cs),
(174,200,o),
(98,229,o),
(57,290,cs),
(-17,398,o),
(48,544,o),
(155,603,cs),
(204,631,o),
(261,644,o),
(317,639,cs),
(438,628,o),
(517,525,o),
(544,414,cs),
(555,366,o),
(557,316,o),
(554,267,cs)
);
},
{
closed = 1;
nodes = (
(289,482,o),
(236,445,o),
(220,391,cs),
(218,386,o),
(214,360,o),
(221,359,c),
(247,363,o),
(270,379,o),
(291,393,cs),
(320,414,o),
(344,443,o),
(360,475,cs),
(363,481,o),
(347,478,o),
(345,479,c)
);
}
);
width = 581;
}
);
leftKerningGroup = C2;
rightKerningGroup = C;
unicode = 57;
},
{
color = (153, 255, 154, 255);
glyphname = acute;
layers = (
{
anchors = (
{
name = _top;
position = "{131, 500}";
}
);
layerId = "75E525D2-6D94-455D-A64D-8DDBA529DB5E";
shapes = (
{
closed = 1;
nodes = (
(64,554,o),
(45,561,o),
(32,576,cs),
(0,614,o),
(41,662,o),
(79,673,c),
(95,680,o),
(109,689,o),
(122,701,cs),
(142,718,o),
(170,725,o),
(196,722,c),
(220,718,o),
(239,698,o),
(241,673,cs),
(243,645,o),
(215,611,o),
(195,593,c),
(164,568,o),
(124,551,o),
(84,553,cs)
);
}
);
width = 262;
}
);
unicode = 180;
},
{
color = (153, 255, 154, 255);
glyphname = cedilla;
layers = (
{
anchors = (
{
name = _bottom;
position = "{112, 62}";
}
);
layerId = "75E525D2-6D94-455D-A64D-8DDBA529DB5E";
shapes = (
{
closed = 1;
nodes = (
(231,-234,o),
(95,-234,o),
(40,-176,cs),
(-8,-126,o),
(43,-74,o),
(100,-100,cs),
(104,-102,o),
(114,-107,o),
(112,-99,c),
(104,-93,o),
(95,-88,o),
(88,-81,c),
(60,-61,o),
(52,-44,o),
(55,-9,c),
(58,11,o),
(55,35,o),
(71,50,cs),
(98,77,o),
(149,54,o),
(155,18,c),
(159,5,o),
(154,-7,o),
(172,-10,cs),
(228,-19,o),
(255,-88,o),
(247,-137,c),
(247,-138,o),
(247,-138,o),
(247,-139,c)
);
}
);
width = 269;
}
);
unicode = 184;
},
{
color = (153, 255, 154, 255);
glyphname = dieresis;
layers = (
{
anchors = (
{
name = _top;
position = "{199, 500}";
}
);
layerId = "75E525D2-6D94-455D-A64D-8DDBA529DB5E";
shapes = (
{
closed = 1;
nodes = (
(198,581,o),
(158,541,o),
(109,541,cs),
(60,541,o),
(20,581,o),
(20,630,cs),
(20,679,o),
(60,719,o),
(109,719,cs),
(158,719,o),
(198,679,o),
(198,630,cs)
);
},
{
closed = 1;
nodes = (
(388,581,o),
(348,541,o),
(299,541,cs),
(250,541,o),
(210,581,o),
(210,630,cs),
(210,679,o),
(250,719,o),
(299,719,cs),
(348,719,o),
(388,679,o),
(388,630,cs)
);
}
);
width = 408;
}
);
unicode = 168;
},
{
color = (153, 255, 154, 255);
glyphname = grave;
layers = (
{
anchors = (
{
name = _top;
position = "{131, 500}";
}
);
layerId = "75E525D2-6D94-455D-A64D-8DDBA529DB5E";
shapes = (
{
closed = 1;
nodes = (
(138,551,o),
(98,568,o),
(67,593,c),
(47,611,o),
(19,645,o),
(21,673,cs),
(23,698,o),
(42,718,o),
(66,722,c),
(92,725,o),
(120,718,o),
(140,701,cs),
(153,689,o),
(167,680,o),
(183,673,c),
(221,662,o),
(262,614,o),
(230,576,cs),
(217,561,o),
(198,554,o),
(178,553,cs)
);
}
);
width = 262;
}
);
unicode = 96;
},
{
color = (153, 255, 154, 255);
glyphname = macron;
layers = (
{
anchors = (
{
name = _top;
position = "{214, 500}";
}
);
layerId = "75E525D2-6D94-455D-A64D-8DDBA529DB5E";
shapes = (
{
closed = 1;
nodes = (
(209,554,o),
(157,553,o),
(106,563,cs),
(76,569,o),
(44,583,o),
(28,610,cs),
(17,629,o),
(17,655,o),
(33,671,cs),
(69,705,o),
(124,703,o),
(170,706,c),
(201,706,o),
(232,706,o),
(263,706,c),
(288,708,o),
(313,707,o),
(337,700,c),
(401,685,o),
(440,598,o),
(368,564,cs),
(335,548,o),
(297,555,o),
(261,553,c),
(261,553,o),
(261,554,o),
(261,554,c)
);
}
);
width = 427;
}
);
unicode = 175;
},
{
color = (153, 255, 154, 255);
glyphname = circumflex;
layers = (
{
anchors = (
{
name = _top;
position = "{160, 500}";
}
);
layerId = "75E525D2-6D94-455D-A64D-8DDBA529DB5E";
shapes = (
{
closed = 1;
nodes = (
(197,717,o),
(233,681,o),
(268,651,cs),
(285,637,o),
(300,620,o),
(302,597,c),
(302,533,o),
(214,531,o),
(180,571,c),
(176,574,o),
(169,585,o),
(163,583,c),
(148,572,o),
(136,555,o),
(117,549,c),
(65,530,o),
(-3,578,o),
(29,634,c),
(61,670,o),
(96,718,o),
(148,716,c)
);
}
);
width = 322;
}
);
unicode = 710;
},
{
color = (153, 255, 154, 255);
glyphname = caron;
layers = (
{
anchors = (
{
name = _top;
position = "{167, 500}";
}
);
layerId = "75E525D2-6D94-455D-A64D-8DDBA529DB5E";
shapes = (
{
closed = 1;
nodes = (
(125,541,o),
(89,577,o),
(54,607,c),
(37,620,o),
(22,638,o),
(20,661,c),
(20,725,o),
(108,727,o),
(142,687,c),
(146,684,o),
(153,673,o),
(159,675,c),
(174,686,o),
(186,703,o),
(205,708,c),
(257,728,o),
(325,679,o),
(293,623,c),
(261,588,o),
(226,540,o),
(174,542,c)
);
}
);
width = 322;
}
);
unicode = 711;
},
{
color = (153, 255, 154, 255);
glyphname = uni02C9;
layers = (
{
anchors = (
{
name = _top;
position = "{209, 500}";
}
);
layerId = "75E525D2-6D94-455D-A64D-8DDBA529DB5E";
shapes = (
{
closed = 1;
nodes = (
(209,554,o),
(157,553,o),
(106,563,cs),
(76,569,o),
(44,583,o),
(28,610,cs),
(17,629,o),
(17,655,o),
(33,671,cs),
(69,705,o),
(124,703,o),
(170,706,c),
(201,706,o),
(232,706,o),
(263,706,c),
(288,708,o),
(313,707,o),
(337,700,c),
(401,685,o),
(440,598,o),
(368,564,cs),
(335,548,o),
(297,555,o),
(261,553,c),
(261,553,o),
(261,554,o),
(261,554,c)
);
}
);
width = 427;
}
);
unicode = 713;
},
{
color = (153, 255, 154, 255);
glyphname = breve;
layers = (
{
anchors = (
{
name = _top;
position = "{184, 500}";
}
);
layerId = "75E525D2-6D94-455D-A64D-8DDBA529DB5E";
shapes = (
{
closed = 1;
nodes = (
(115,542,o),
(45,586,o),
(26,654,cs),
(19,679,o),
(15,709,o),
(33,731,cs),
(56,758,o),
(101,749,o),
(124,725,c),
(138,712,o),
(138,692,o),
(142,674,c),
(146,665,o),
(150,652,o),
(161,650,cs),
(176,648,o),
(189,658,o),
(195,671,cs),
(202,686,o),
(199,702,o),
(204,717,c),
(224,768,o),
(301,757,o),
(325,716,c),
(344,688,o),
(335,651,o),
(321,623,cs),
(296,572,o),
(240,541,o),
(184,542,c)
);
}
);
width = 356;
}
);
unicode = 728;
},
{
color = (153, 255, 154, 255);
glyphname = dotaccent;
layers = (
{
anchors = (
{
name = _top;
position = "{110, 500}";
},
{
name = left;
position = "{-7, 301}";
}
);
layerId = "75E525D2-6D94-455D-A64D-8DDBA529DB5E";
shapes = (
{
closed = 1;
nodes = (
(198,581,o),
(158,541,o),
(109,541,cs),
(60,541,o),
(20,581,o),
(20,630,cs),
(20,679,o),
(60,719,o),
(109,719,cs),
(158,719,o),
(198,679,o),
(198,630,cs)
);
}
);
width = 218;
}
);
unicode = 729;
},
{
color = (153, 255, 154, 255);
glyphname = ring;
layers = (
{
anchors = (
{
name = _top;
position = "{126, 500}";
}
);
layerId = "75E525D2-6D94-455D-A64D-8DDBA529DB5E";
shapes = (
{
closed = 1;
nodes = (
(183,731,o),
(236,678,o),
(224,611,c),
(213,530,o),
(110,507,o),
(55,560,c),
(-12,620,o),
(26,728,o),
(116,729,c)
);
},
{
closed = 1;
nodes = (
(101,605,o),
(116,590,o),
(134,607,c),
(144,620,o),
(148,639,o),
(142,654,c),
(136,663,o),
(121,656,o),
(113,653,c),
(105,647,o),
(102,636,o),
(102,626,c)
);
}
);
width = 246;
}
);
unicode = 730;
},
{
color = (153, 255, 154, 255);
glyphname = ogonek;
layers = (
{
anchors = (
{
name = _bottom;
position = "{147, 62}";
}
);
layerId = "75E525D2-6D94-455D-A64D-8DDBA529DB5E";
shapes = (
{
closed = 1;
nodes = (
(-5,-183,o),
(-20,-21,o),
(107,50,c),
(161,75,o),
(208,33,o),
(177,-23,c),
(169,-41,o),
(157,-62,o),
(164,-82,c),
(167,-85,o),
(171,-86,o),
(176,-86,c),
(298,-100,o),
(275,-234,o),
(143,-210,cs)
);
}
);
width = 276;
}
);
unicode = 731;
},
{
color = (153, 255, 154, 255);
glyphname = tilde;
layers = (
{
anchors = (
{
name = _top;
position = "{212, 500}";
}
);
layerId = "75E525D2-6D94-455D-A64D-8DDBA529DB5E";
shapes = (
{
closed = 1;
nodes = (
(267,530,o),
(225,550,o),
(191,578,c),
(186,581,o),
(163,606,o),
(160,596,cs),
(158,591,o),
(157,585,o),
(156,580,cs),
(151,555,o),
(126,540,o),
(102,538,cs),
(66,536,o),
(28,561,o),
(21,597,c),
(16,639,o),
(33,684,o),
(69,708,c),
(116,742,o),
(180,732,o),
(228,704,c),
(246,696,o),
(262,682,o),
(278,671,cs),
(283,668,o),
(290,658,o),
(296,662,c),
(312,677,o),
(328,692,o),
(351,691,c),
(382,692,o),
(414,673,o),
(423,643,c),
(439,579,o),
(371,528,o),
(312,531,c)
);
}
);
width = 446;
}
);
unicode = 732;
},
{
color = (153, 255, 154, 255);
glyphname = uni0326;
layers = (
{
anchors = (
{
name = _bottom;
position = "{101, 62}";
}
);
layerId = "75E525D2-6D94-455D-A64D-8DDBA529DB5E";
shapes = (
{
closed = 1;
nodes = (
(52,-125,o),
(75,-103,o),
(58,-89,c),
(27,-70,o),
(8,-26,o),
(31,6,c),
(51,37,o),
(96,42,o),
(129,30,cs),
(188,8,o),
(227,-50,o),
(199,-112,cs),
(184,-147,o),
(139,-197,o),
(97,-189,cs),
(75,-185,o),
(54,-167,o),
(53,-143,cs)
);
}
);
width = 229;
}
);
unicode = 806;
},
{
glyphname = exclam;
layers = (
{
layerId = "75E525D2-6D94-455D-A64D-8DDBA529DB5E";
shapes = (
{
closed = 1;
nodes = (
(0,189,o),
(29,375,o),
(20,439,c),
(20,478,o),
(20,516,o),
(23,554,cs),
(25,572,o),
(21,593,o),
(35,609,c),
(73,647,o),
(162,634,o),
(194,597,c),
(211,581,o),
(204,559,o),
(202,541,cs),
(194,468,o),
(191,395,o),
(194,321,c),
(194,284,o),
(199,244,o),
(179,208,c),
(171,196,o),
(149,190,o),
(131,190,cs)
);
},
{
closed = 1;
nodes = (
(216,40,o),
(177,0,o),
(127,0,cs),
(78,0,o),
(39,40,o),
(39,89,cs),
(39,138,o),
(78,178,o),
(127,178,cs),
(177,178,o),
(216,138,o),
(216,89,cs)
);
}
);
width = 236;
}
);
leftKerningGroup = B1;
rightKerningGroup = H;
unicode = 33;
},
{
glyphname = quotedbl;
layers = (
{
layerId = "75E525D2-6D94-455D-A64D-8DDBA529DB5E";
shapes = (
{
closed = 1;
nodes = (
(26,598,o),
(30,612,o),
(42,621,cs),
(87,654,o),
(164,627,o),
(176,571,cs),
(180,550,o),
(176,528,o),
(171,507,cs),
(166,487,o),
(162,466,o),
(146,453,c),
(120,426,o),
(73,438,o),
(55,469,cs),
(50,478,o),
(45,488,o),
(43,499,cs),
(39,515,o),
(33,531,o),
(28,547,cs),
(25,555,o),
(25,563,o),
(20,570,c),
(20,575,o),
(20,580,o),
(20,585,c)
);
},
{
closed = 1;
nodes = (
(193,598,o),
(198,612,o),
(209,621,c),
(255,654,o),
(332,627,o),
(344,571,c),
(347,550,o),
(343,528,o),
(338,507,cs),
(333,487,o),
(330,466,o),
(314,453,c),
(287,426,o),
(241,438,o),
(223,469,cs),
(217,478,o),
(213,488,o),
(210,499,c),
(207,515,o),
(201,531,o),
(196,547,cs),
(193,555,o),
(192,563,o),
(188,570,c),
(188,575,o),
(188,580,o),
(188,585,c)
);
}
);
width = 366;
}
);
unicode = 34;
},
{
glyphname = numbersign;
layers = (
{
layerId = "75E525D2-6D94-455D-A64D-8DDBA529DB5E";
shapes = (
{
closed = 1;
nodes = (
(448,503,o),
(492,502,o),
(536,500,c),
(564,498,o),
(594,500,o),
(620,487,c),
(665,467,o),
(702,410,o),
(668,364,c),
(650,337,o),
(612,329,o),
(582,333,c),
(557,334,o),
(532,335,o),
(507,337,c),
(403,338,o),
(299,333,o),
(195,328,c),
(143,328,o),
(79,317,o),
(40,361,c),
(16,386,o),
(12,425,o),
(38,450,c),
(49,459,o),
(62,463,o),
(75,469,c),
(182,499,o),
(294,503,o),
(404,503,cs)
);
},
{
closed = 1;
nodes = (
(64,6,o),
(93,269,o),
(83,359,c),
(83,414,o),
(84,468,o),
(86,522,c),
(89,548,o),
(84,576,o),
(98,599,c),
(137,653,o),
(226,636,o),
(257,583,c),
(274,559,o),
(267,529,o),
(265,503,cs),
(257,400,o),
(254,296,o),
(257,193,cs),
(258,139,o),
(262,83,o),
(243,32,c),
(234,16,o),
(212,7,o),
(195,7,cs)
);
},
{
closed = 1;
nodes = (
(397,6,o),
(426,269,o),
(417,359,c),
(416,414,o),
(417,468,o),
(419,522,c),
(422,548,o),
(418,576,o),
(432,599,c),
(470,653,o),
(559,636,o),
(590,583,c),
(608,559,o),
(600,529,o),
(599,503,c),
(590,400,o),
(588,296,o),
(590,193,cs),
(591,139,o),
(596,83,o),
(576,32,c),
(567,16,o),
(546,7,o),
(528,7,cs)
);
},
{
closed = 1;
nodes = (
(448,260,o),
(492,260,o),
(536,257,cs),
(564,255,o),
(594,258,o),
(620,245,c),
(665,225,o),
(702,167,o),
(668,122,c),
(650,95,o),
(612,86,o),
(582,90,c),
(557,92,o),
(532,93,o),
(507,94,cs),
(403,96,o),
(299,91,o),
(195,85,c),
(143,86,o),
(79,74,o),
(40,118,c),
(16,143,o),
(12,182,o),
(38,207,c),
(49,216,o),
(62,221,o),
(75,226,c),
(182,257,o),
(294,261,o),
(404,260,c),
(404,260,o),
(404,261,o),
(404,261,c)
);
}
);
width = 702;
}
);
unicode = 35;
},
{
glyphname = dollar;
layers = (
{
layerId = "75E525D2-6D94-455D-A64D-8DDBA529DB5E";
shapes = (
{
closed = 1;
nodes = (
(347,474,o),
(373,453,o),
(403,447,c),
(454,427,o),
(526,452,o),
(507,519,cs),
(501,540,o),
(488,559,o),
(472,574,cs),
(436,609,o),
(389,629,o),
(340,638,c),
(336,681,o),
(323,718,o),
(274,731,c),
(236,735,o),
(208,716,o),
(201,677,cs),
(199,663,o),
(197,648,o),
(195,634,c),
(94,605,o),
(8,521,o),
(28,407,c),
(36,352,o),
(73,305,o),
(116,271,c),
(155,238,o),
(203,217,o),
(247,192,c),
(258,184,o),
(272,178,o),
(281,167,c),
(272,164,o),
(260,166,o),
(249,165,c),
(224,167,o),
(197,170,o),
(173,180,cs),
(138,194,o),
(97,202,o),
(62,183,cs),
(34,168,o),
(20,133,o),
(31,103,cs),
(52,42,o),
(132,20,o),
(197,9,c),
(199,-38,o),
(212,-70,o),
(259,-89,c),
(270,-89,o),
(281,-89,o),
(292,-89,c),
(335,-70,o),
(337,-39,o),
(341,3,c),
(341,3,o),
(341,4,o),
(341,4,c),
(355,6,o),
(368,9,o),
(382,13,cs),
(515,53,o),
(513,183,o),
(419,267,cs),
(381,302,o),
(336,328,o),
(290,351,c),
(266,367,o),
(216,386,o),
(221,420,cs),
(227,462,o),
(278,483,o),
(316,478,cs)
);
}
);
width = 536;
}
);
unicode = 36;
},
{
glyphname = percent;
layers = (
{
layerId = "75E525D2-6D94-455D-A64D-8DDBA529DB5E";
shapes = (
{
closed = 1;
nodes = (
(377,647,o),
(450,494,o),
(372,371,cs),
(297,251,o),
(105,260,o),
(39,384,cs),
(-29,506,o),
(100,651,o),
(227,647,c)
);
},
{
closed = 1;
nodes = (
(245,502,o),
(248,513,o),
(241,515,c),
(231,515,o),
(222,509,o),
(214,504,cs),
(196,493,o),
(183,475,o),
(177,453,cs),
(174,442,o),
(178,432,o),
(185,423,c),
(202,413,o),
(229,440,o),
(235,454,c),
(242,467,o),
(247,481,o),
(246,496,cs)
);
},
{
closed = 1;
nodes = (
(898,370,o),
(971,217,o),
(894,94,cs),
(819,-26,o),
(626,-17,o),
(560,107,cs),
(492,229,o),
(621,374,o),
(748,370,c)
);
},
{
closed = 1;
nodes = (
(767,225,o),
(769,236,o),
(762,238,c),
(752,238,o),
(743,232,o),
(735,227,cs),
(717,216,o),
(704,198,o),
(698,176,cs),
(695,165,o),
(699,155,o),
(707,146,c),
(723,136,o),
(750,163,o),
(756,177,c),
(763,190,o),
(768,204,o),
(768,219,c)
);
},
{
closed = 1;
nodes = (
(590,659,o),
(555,636,o),
(536,605,c),
(512,563,o),
(489,520,o),
(467,476,cs),
(402,347,o),
(341,217,o),
(281,86,c),
(246,16,o),
(315,-31,o),
(379,-2,c),
(399,8,o),
(418,23,o),
(428,43,cs),
(441,70,o),
(453,98,o),
(465,125,cs),
(532,273,o),
(607,416,o),
(679,561,c),
(704,605,o),
(682,663,o),
(627,660,c)
);
}
);
width = 946;
}
);
unicode = 37;
},
{
glyphname = ampersand;
layers = (
{
layerId = "75E525D2-6D94-455D-A64D-8DDBA529DB5E";
shapes = (
{
closed = 1;
nodes = (
(492,30,o),
(462,38,o),
(435,49,cs),
(427,52,o),
(418,59,o),
(411,50,c),
(378,19,o),
(335,0,o),
(290,-7,cs),
(100,-35,o),
(-66,166,o),
(82,327,cs),
(84,330,o),
(81,335,o),
(80,338,cs),
(73,351,o),
(68,364,o),
(63,378,cs),
(42,441,o),
(38,515,o),
(74,573,c),
(145,699,o),
(341,669,o),
(394,543,cs),
(427,469,o),
(395,382,o),
(334,333,c),
(296,299,o),
(294,315,o),
(336,282,cs),
(345,274,o),
(342,312,o),
(363,326,c),
(410,366,o),
(489,342,o),
(513,289,cs),
(525,262,o),
(516,239,o),
(508,213,c),
(505,200,o),
(500,188,o),
(496,176,c),
(493,171,o),
(499,168,o),
(503,166,cs),
(530,148,o),
(576,123,o),
(586,90,c),
(597,49,o),
(557,26,o),
(520,30,c)
);
},
{
closed = 1;
nodes = (
(190,178,o),
(193,166,o),
(198,155,c),
(212,130,o),
(245,134,o),
(263,149,c),
(264,151,o),
(261,153,o),
(260,154,c),
(239,169,o),
(219,184,o),
(200,200,cs),
(190,209,o),
(191,197,o),
(191,190,c)
);
},
{
closed = 1;
nodes = (
(221,455,o),
(221,455,o),
(221,455,c),
(222,448,o),
(220,438,o),
(224,433,c),
(231,432,o),
(245,450,o),
(250,456,cs),
(259,467,o),
(264,480,o),
(264,494,c),
(263,502,o),
(266,518,o),
(255,518,c),
(230,509,o),
(220,479,o),
(222,455,c)
);
}
);
width = 613;
}
);
unicode = 38;
},
{
glyphname = quotesingle;
layers = (
{
layerId = "75E525D2-6D94-455D-A64D-8DDBA529DB5E";
shapes = (
{
closed = 1;
nodes = (
(26,598,o),
(30,612,o),
(42,621,cs),
(87,654,o),
(164,627,o),
(176,571,cs),
(180,550,o),
(176,528,o),
(171,507,cs),
(166,487,o),
(162,466,o),
(146,453,c),
(120,426,o),
(73,438,o),
(55,469,cs),
(50,478,o),
(45,488,o),
(43,499,cs),
(39,515,o),
(33,531,o),
(28,547,cs),
(25,555,o),
(25,563,o),
(20,570,c),
(20,575,o),
(20,580,o),
(20,585,c)
);
}
);
width = 198;
}
);
unicode = 39;
},
{
glyphname = parenleft;
layers = (
{
layerId = "75E525D2-6D94-455D-A64D-8DDBA529DB5E";
shapes = (
{
closed = 1;
nodes = (
(125,-73,o),
(85,38,o),
(54,112,c),
(29,182,o),
(20,258,o),
(28,331,cs),
(40,431,o),
(69,529,o),
(123,615,cs),
(143,647,o),
(164,678,o),
(205,684,cs),
(257,692,o),
(303,641,o),
(276,589,cs),
(262,561,o),
(248,531,o),
(237,501,cs),
(210,427,o),
(196,348,o),
(198,269,cs),
(199,200,o),
(218,132,o),
(251,72,cs),
(262,53,o),
(273,33,o),
(282,12,cs),
(299,-29,o),
(267,-77,o),
(220,-74,c)
);
}
);
width = 307;
}
);
unicode = 40;
},
{
glyphname = parenright;
layers = (
{
layerId = "75E525D2-6D94-455D-A64D-8DDBA529DB5E";
shapes = (
{
closed = 1;
nodes = (
(40,-77,o),
(8,-29,o),
(25,12,cs),
(34,33,o),
(45,53,o),
(56,72,cs),
(89,132,o),
(108,200,o),
(109,269,cs),
(111,348,o),
(97,427,o),
(70,501,cs),
(59,531,o),
(45,561,o),
(31,589,cs),
(4,641,o),
(50,692,o),
(102,684,cs),
(143,678,o),
(164,647,o),
(184,615,cs),
(238,529,o),
(267,431,o),
(279,331,cs),
(287,258,o),
(278,182,o),
(253,112,c),
(222,38,o),
(182,-73,o),
(87,-74,c)
);
}
);
width = 307;
}
);
unicode = 41;
},
{
glyphname = asterisk;
layers = (
{
layerId = "75E525D2-6D94-455D-A64D-8DDBA529DB5E";
shapes = (
{
closed = 1;
nodes = (
(43,553,o),
(37,546,o),
(26,561,c),
(8,591,o),
(41,610,o),
(66,616,cs),
(71,617,o),
(75,621,o),
(77,625,cs),
(92,651,o),
(126,658,o),
(153,648,cs),
(168,643,o),
(173,635,o),
(190,638,c),
(220,640,o),
(253,616,o),
(252,585,c),
(253,573,o),
(242,567,o),
(252,557,c),
(285,492,o),
(183,465,o),
(148,534,c),
(145,538,o),
(142,538,o),
(140,534,cs),
(136,528,o),
(132,522,o),
(128,516,cs),
(124,509,o),
(118,503,o),
(112,498,c),
(85,470,o),
(35,492,o),
(39,531,c),
(38,531,o),
(38,531,o),
(38,531,c)
);
}
);
width = 279;
}
);
unicode = 42;
},
{
glyphname = plus;
layers = (
{
layerId = "75E525D2-6D94-455D-A64D-8DDBA529DB5E";
shapes = (
{
closed = 1;
nodes = (
(222,60,o),
(183,87,o),
(173,127,cs),
(164,160,o),
(157,194,o),
(151,227,cs),
(150,235,o),
(148,236,o),
(141,235,cs),
(135,234,o),
(129,234,o),
(123,233,cs),
(93,229,o),
(59,239,o),
(38,262,cs),
(19,282,o),
(14,312,o),
(32,335,c),
(56,361,o),
(94,371,o),
(127,380,c),
(132,380,o),
(135,383,o),
(134,389,c),
(134,421,o),
(135,453,o),
(138,485,c),
(139,511,o),
(145,538,o),
(165,556,cs),
(180,570,o),
(210,568,o),
(229,563,cs),
(280,548,o),
(289,500,o),
(287,453,c),
(287,435,o),
(288,417,o),
(288,399,c),
(289,393,o),
(290,392,o),
(295,392,c),
(303,391,o),
(310,390,o),
(318,389,cs),
(332,388,o),
(345,385,o),
(358,382,c),
(408,375,o),
(461,323,o),
(438,272,c),
(427,245,o),
(400,233,o),
(373,231,c),
(358,228,o),
(343,234,o),
(328,236,c),
(322,236,o),
(303,245,o),
(306,232,c),
(312,195,o),
(324,160,o),
(331,123,c),
(335,85,o),
(299,59,o),
(263,60,c)
);
}
);
width = 464;
}
);
unicode = 43;
},
{
glyphname = comma;
layers = (
{
layerId = "75E525D2-6D94-455D-A64D-8DDBA529DB5E";
shapes = (
{
closed = 1;
nodes = (
(52,-4,o),
(75,18,o),
(58,32,c),
(27,51,o),
(8,95,o),
(31,127,c),
(51,158,o),
(96,163,o),
(129,151,cs),
(188,129,o),
(227,71,o),
(199,9,cs),
(184,-26,o),
(139,-76,o),
(97,-68,cs),
(75,-64,o),
(54,-46,o),
(53,-22,cs)
);
}
);
width = 229;
}
);
unicode = 44;
},
{
glyphname = hyphen;
layers = (
{
layerId = "75E525D2-6D94-455D-A64D-8DDBA529DB5E";
shapes = (
{
closed = 1;
nodes = (
(209,237,o),
(157,237,o),
(106,246,c),
(76,253,o),
(44,267,o),
(28,294,cs),
(17,313,o),
(17,339,o),
(33,354,c),
(69,389,o),
(124,386,o),
(170,389,c),
(201,389,o),
(232,390,o),
(263,390,c),
(288,392,o),
(313,391,o),
(337,383,c),
(401,368,o),
(440,282,o),
(368,247,c),
(335,232,o),
(297,238,o),
(261,237,c)
);
}
);
width = 427;
}
);
unicode = 45;
},
{
glyphname = period;
layers = (
{
layerId = "75E525D2-6D94-455D-A64D-8DDBA529DB5E";
shapes = (
{
closed = 1;
nodes = (
(198,40,o),
(158,0,o),
(109,0,cs),
(60,0,o),
(20,40,o),
(20,89,cs),
(20,138,o),
(60,178,o),
(109,178,cs),
(158,178,o),
(198,138,o),
(198,89,cs)
);
}
);
width = 218;
}
);
unicode = 46;
},
{
glyphname = slash;
layers = (
{
layerId = "75E525D2-6D94-455D-A64D-8DDBA529DB5E";
shapes = (
{
closed = 1;
nodes = (
(338,659,o),
(303,636,o),
(284,605,c),
(260,563,o),
(237,520,o),
(216,476,cs),
(151,347,o),
(89,217,o),
(30,86,c),
(-6,16,o),
(63,-31,o),
(127,-2,c),
(147,8,o),
(166,23,o),
(176,43,cs),
(189,70,o),
(201,98,o),
(214,125,c),
(280,273,o),
(355,416,o),
(427,561,c),
(452,605,o),
(430,663,o),
(375,660,c)
);
}
);
width = 458;
}
);
leftKerningGroup = B1;
unicode = 47;
},
{
glyphname = colon;
layers = (
{
layerId = "75E525D2-6D94-455D-A64D-8DDBA529DB5E";
shapes = (
{
closed = 1;
nodes = (
(198,440,o),
(158,400,o),
(109,400,cs),
(60,400,o),
(20,440,o),
(20,489,cs),
(20,538,o),
(60,578,o),
(109,578,cs),
(158,578,o),
(198,538,o),
(198,489,cs)
);
},
{
closed = 1;
nodes = (
(198,140,o),
(158,100,o),
(109,100,cs),
(60,100,o),
(20,140,o),
(20,189,cs),
(20,238,o),
(60,278,o),
(109,278,cs),
(158,278,o),
(198,238,o),
(198,189,cs)
);
}
);
width = 218;
}
);
leftKerningGroup = B1;
rightKerningGroup = H;
unicode = 58;
},
{
glyphname = semicolon;
layers = (
{
layerId = "75E525D2-6D94-455D-A64D-8DDBA529DB5E";
shapes = (
{
closed = 1;
nodes = (
(198,440,o),
(158,400,o),
(109,400,cs),
(60,400,o),
(20,440,o),
(20,489,cs),
(20,538,o),
(60,578,o),
(109,578,cs),
(158,578,o),
(198,538,o),
(198,489,cs)
);
},
{
closed = 1;
nodes = (
(52,136,o),
(75,158,o),
(58,172,c),
(27,191,o),
(8,235,o),
(31,267,c),
(51,298,o),
(96,303,o),
(129,291,cs),
(188,269,o),
(227,211,o),
(199,149,cs),
(184,114,o),
(139,64,o),
(97,72,cs),
(75,76,o),
(54,94,o),
(53,118,cs)
);
}
);
width = 229;
}
);
leftKerningGroup = B1;
rightKerningGroup = H;
unicode = 59;
},
{
glyphname = less;
layers = (
{
layerId = "75E525D2-6D94-455D-A64D-8DDBA529DB5E";
shapes = (
{
closed = 1;
nodes = (
(218,-14,o),
(186,12,o),
(164,42,cs),
(119,101,o),
(33,198,o),
(26,272,cs),
(23,308,o),
(40,340,o),
(59,368,cs),
(98,428,o),
(140,485,o),
(181,544,cs),
(197,567,o),
(217,588,o),
(236,610,cs),
(248,624,o),
(264,636,o),
(283,639,cs),
(313,644,o),
(346,631,o),
(363,607,c),
(387,576,o),
(370,546,o),
(355,517,cs),
(311,431,o),
(253,354,o),
(201,273,cs),
(196,266,o),
(194,256,o),
(200,249,c),
(234,190,o),
(276,137,o),
(318,84,c),
(349,36,o),
(311,-15,o),
(257,-12,c)
);
}
);
width = 395;
}
);
unicode = 60;
},
{
glyphname = equal;
layers = (
{
layerId = "75E525D2-6D94-455D-A64D-8DDBA529DB5E";
shapes = (
{
closed = 1;
nodes = (
(209,288,o),
(157,287,o),
(106,297,cs),
(76,303,o),
(44,317,o),
(28,344,cs),
(17,363,o),
(17,389,o),
(33,405,cs),
(69,439,o),
(124,437,o),
(170,440,c),
(201,440,o),
(232,440,o),
(263,440,c),
(288,442,o),
(313,441,o),
(337,433,c),
(401,418,o),
(440,332,o),
(368,297,cs),
(335,282,o),
(297,288,o),
(261,287,c),
(261,287,o),
(261,287,o),
(261,288,c)
);
},
{
closed = 1;
nodes = (
(209,113,o),
(157,112,o),
(106,122,cs),
(76,128,o),
(44,142,o),
(28,169,cs),
(17,188,o),
(17,214,o),
(33,230,cs),
(69,264,o),
(124,262,o),
(170,265,c),
(201,265,o),
(232,265,o),
(263,265,c),
(288,267,o),
(313,266,o),
(337,258,c),
(401,243,o),
(440,157,o),
(368,122,cs),
(335,107,o),
(297,113,o),
(261,112,c),
(261,112,o),
(261,112,o),
(261,113,c)
);
}
);
width = 427;
}
);
unicode = 61;
},
{
glyphname = greater;
layers = (
{
layerId = "75E525D2-6D94-455D-A64D-8DDBA529DB5E";
shapes = (
{
closed = 1;
nodes = (
(84,-15,o),
(46,36,o),
(77,84,c),
(119,137,o),
(161,190,o),
(195,249,c),
(201,256,o),
(199,266,o),
(194,273,cs),
(142,354,o),
(84,431,o),
(40,517,cs),
(25,546,o),
(8,576,o),
(32,607,c),
(49,631,o),
(82,644,o),
(112,639,cs),
(131,636,o),
(147,624,o),
(159,610,cs),
(178,588,o),
(198,567,o),
(214,544,cs),
(255,485,o),
(297,428,o),
(336,368,cs),
(355,340,o),
(372,308,o),
(369,272,cs),
(362,198,o),
(276,101,o),
(231,42,cs),
(209,12,o),
(177,-14,o),
(138,-12,c)
);
}
);
width = 395;
}
);
unicode = 62;
},
{
glyphname = question;
layers = (
{
layerId = "75E525D2-6D94-455D-A64D-8DDBA529DB5E";
shapes = (
{
closed = 1;
nodes = (
(314,645,o),
(368,635,o),
(415,609,cs),
(494,566,o),
(542,471,o),
(488,389,cs),
(469,360,o),
(441,337,o),
(412,319,c),
(382,302,o),
(350,289,o),
(323,268,cs),
(313,260,o),
(305,250,o),
(299,239,cs),
(291,224,o),
(284,209,o),
(268,200,c),
(227,173,o),
(166,198,o),
(144,240,c),
(117,286,o),
(133,345,o),
(166,384,c),
(183,400,o),
(202,414,o),
(222,426,c),
(228,430,o),
(332,478,o),
(298,481,c),
(264,486,o),
(228,483,o),
(195,473,c),
(168,464,o),
(142,451,o),
(113,452,cs),
(66,454,o),
(13,492,o),
(21,543,cs),
(27,582,o),
(67,597,o),
(98,612,c),
(149,634,o),
(205,645,o),
(261,643,c)
);
},
{
closed = 1;
nodes = (
(307,40,o),
(267,0,o),
(218,0,cs),
(169,0,o),
(129,40,o),
(129,89,cs),
(129,138,o),
(169,178,o),
(218,178,cs),
(267,178,o),
(307,138,o),
(307,89,cs)
);
}
);
width = 536;
}
);
unicode = 63;
},
{
glyphname = at;
layers = (
{
layerId = "75E525D2-6D94-455D-A64D-8DDBA529DB5E";
shapes = (
{
closed = 1;
nodes = (
(723,212,o),
(699,122,o),
(635,77,cs),
(557,23,o),
(454,80,o),
(436,168,c),
(434,172,o),
(430,167,o),
(428,166,c),
(423,160,o),
(417,155,o),
(411,150,cs),
(387,132,o),
(357,118,o),
(326,118,c),
(255,115,o),
(192,173,o),
(183,243,cs),
(178,279,o),
(185,316,o),
(194,352,cs),
(211,416,o),
(257,477,o),
(326,490,c),
(391,505,o),
(464,472,o),
(497,414,c),
(516,374,o),
(517,393,o),
(542,367,c),
(559,347,o),
(551,319,o),
(553,295,c),
(553,273,o),
(555,251,o),
(559,230,cs),
(560,226,o),
(561,213,o),
(564,212,c),
(578,238,o),
(586,268,o),
(591,298,cs),
(605,381,o),
(584,459,o),
(511,508,cs),
(444,551,o),
(355,544,o),
(289,504,cs),
(171,436,o),
(113,267,o),
(189,149,cs),
(237,73,o),
(316,50,o),
(400,76,c),
(444,81,o),
(499,46,o),
(491,-3,cs),
(486,-36,o),
(449,-46,o),
(420,-51,cs),
(399,-55,o),
(377,-57,o),
(355,-56,cs),
(249,-53,o),
(145,2,o),
(86,91,cs),
(-66,308,o),
(85,614,o),
(342,649,cs),
(497,671,o),
(663,583,o),
(717,433,c),
(736,386,o),
(733,335,o),
(733,286,c)
);
},
{
closed = 1;
nodes = (
(320,238,o),
(329,253,o),
(339,260,c),
(364,284,o),
(386,312,o),
(404,342,cs),
(406,346,o),
(410,350,o),
(407,354,cs),
(402,363,o),
(397,371,o),
(390,378,cs),
(381,386,o),
(364,370,o),
(357,363,cs),
(333,335,o),
(325,296,o),
(322,260,cs)
);
}
);
width = 759;
}
);
leftKerningGroup = C2;
rightKerningGroup = C;
unicode = 64;
},
{
glyphname = bracketleft;
layers = (
{
layerId = "75E525D2-6D94-455D-A64D-8DDBA529DB5E";
shapes = (
{
closed = 1;
nodes = (
(191,685,o),
(213,679,o),
(229,665,c),
(255,645,o),
(267,600,o),
(238,578,c),
(200,547,o),
(184,590,o),
(184,493,cs),
(183,375,o),
(182,258,o),
(184,140,c),
(183,112,o),
(190,127,o),
(216,109,cs),
(238,95,o),
(257,65,o),
(249,38,c),
(231,-13,o),
(161,-18,o),
(117,0,c),
(58,22,o),
(26,78,o),
(28,139,c),
(24,220,o),
(29,301,o),
(25,381,cs),
(23,408,o),
(24,436,o),
(23,463,cs),
(21,501,o),
(18,543,o),
(26,581,c),
(36,652,o),
(101,696,o),
(171,690,c)
);
}
);
width = 275;
}
);
unicode = 91;
},
{
glyphname = backslash;
layers = (
{
layerId = "75E525D2-6D94-455D-A64D-8DDBA529DB5E";
shapes = (
{
closed = 1;
nodes = (
(119,659,o),
(154,636,o),
(173,605,cs),
(198,563,o),
(220,520,o),
(242,476,cs),
(307,347,o),
(368,217,o),
(428,86,c),
(463,16,o),
(395,-31,o),
(330,-2,c),
(310,8,o),
(292,23,o),
(282,43,cs),
(269,70,o),
(257,98,o),
(244,125,cs),
(177,273,o),
(103,416,o),
(30,561,c),
(6,605,o),
(27,663,o),
(82,660,c)
);
}
);
width = 458;
}
);
unicode = 92;
},
{
glyphname = bracketright;
layers = (
{
layerId = "75E525D2-6D94-455D-A64D-8DDBA529DB5E";
shapes = (
{
closed = 1;
nodes = (
(174,696,o),
(239,652,o),
(249,581,c),
(257,543,o),
(254,501,o),
(252,463,cs),
(251,436,o),
(252,408,o),
(250,381,cs),
(246,301,o),
(251,220,o),
(247,139,c),
(249,78,o),
(217,22,o),
(158,0,c),
(114,-18,o),
(44,-13,o),
(26,38,c),
(18,65,o),
(37,95,o),
(59,109,cs),
(85,127,o),
(92,112,o),
(91,140,c),
(93,258,o),
(92,375,o),
(91,493,cs),
(91,590,o),
(75,547,o),
(37,578,c),
(8,600,o),
(20,645,o),
(46,665,c),
(62,679,o),
(84,685,o),
(104,690,c)
);
}
);
width = 275;
}
);
rightKerningGroup = H;
unicode = 93;
},
{
glyphname = asciicircum;
layers = (
{
layerId = "75E525D2-6D94-455D-A64D-8DDBA529DB5E";
shapes = (
{
closed = 1;
nodes = (
(197,664,o),
(233,629,o),
(268,599,cs),
(285,585,o),
(300,568,o),
(302,545,c),
(302,481,o),
(214,479,o),
(180,519,c),
(176,522,o),
(169,533,o),
(163,531,c),
(148,520,o),
(136,502,o),
(117,497,c),
(65,478,o),
(-3,526,o),
(29,582,c),
(61,617,o),
(96,666,o),
(148,663,c)
);
}
);
width = 322;
}
);
unicode = 94;
},
{
glyphname = underscore;
layers = (
{
layerId = "75E525D2-6D94-455D-A64D-8DDBA529DB5E";
shapes = (
{
closed = 1;
nodes = (
(314,133,o),
(418,148,o),
(470,94,c),
(482,81,o),
(494,63,o),
(489,44,cs),
(485,28,o),
(477,13,o),
(462,4,c),
(438,-9,o),
(410,-13,o),
(383,-16,c),
(326,-18,o),
(268,-17,o),
(211,-16,c),
(173,-14,o),
(135,-18,o),
(99,-10,cs),
(69,-3,o),
(41,15,o),
(27,43,cs),
(16,65,o),
(20,94,o),
(40,110,c),
(63,131,o),
(96,134,o),
(126,134,c),
(166,136,o),
(205,135,o),
(245,135,c)
);
}
);
width = 511;
}
);
unicode = 95;
},
{
glyphname = braceleft;
layers = (
{
layerId = "75E525D2-6D94-455D-A64D-8DDBA529DB5E";
shapes = (
{
closed = 1;
nodes = (
(225,334,o),
(214,291,o),
(187,258,c),
(174,244,o),
(176,247,o),
(183,229,cs),
(188,218,o),
(191,205,o),
(193,193,c),
(197,180,o),
(198,122,o),
(209,122,c),
(234,126,o),
(256,128,o),
(279,115,cs),
(311,98,o),
(323,62,o),
(300,32,c),
(293,21,o),
(281,14,o),
(270,7,c),
(247,-5,o),
(221,-10,o),
(195,-8,cs),
(160,-5,o),
(127,12,o),
(102,37,c),
(55,81,o),
(54,144,o),
(48,204,c),
(46,215,o),
(42,226,o),
(38,238,c),
(34,246,o),
(28,253,o),
(24,262,cs),
(14,288,o),
(29,319,o),
(55,330,c),
(72,340,o),
(78,362,o),
(79,381,c),
(80,443,o),
(60,506,o),
(82,567,cs),
(97,612,o),
(137,648,o),
(184,654,cs),
(236,661,o),
(297,631,o),
(306,576,c),
(318,539,o),
(279,516,o),
(247,527,c),
(241,528,o),
(233,535,o),
(228,531,c),
(202,490,o),
(226,423,o),
(224,376,c)
);
}
);
width = 332;
}
);
unicode = 123;
},
{
glyphname = bar;
layers = (
{
layerId = "75E525D2-6D94-455D-A64D-8DDBA529DB5E";
shapes = (
{
closed = 1;
nodes = (
(0,6,o),
(29,269,o),
(20,359,c),
(20,414,o),
(20,468,o),
(23,522,cs),
(25,548,o),
(21,576,o),
(35,599,c),
(73,653,o),
(162,636,o),
(194,583,c),
(211,559,o),
(204,529,o),
(202,503,cs),
(194,400,o),
(191,296,o),
(194,193,c),
(194,139,o),
(199,83,o),
(179,32,c),
(171,16,o),
(149,7,o),
(131,7,cs)
);
}
);
width = 226;
}
);
rightKerningGroup = H;
unicode = 124;
},
{
glyphname = asciitilde;
layers = (
{
layerId = "75E525D2-6D94-455D-A64D-8DDBA529DB5E";
shapes = (
{
closed = 1;
nodes = (
(267,205,o),
(225,224,o),
(191,253,c),
(186,255,o),
(163,281,o),
(160,271,cs),
(158,266,o),
(157,260,o),
(156,254,cs),
(151,229,o),
(126,214,o),
(102,213,cs),
(66,211,o),
(28,236,o),
(21,271,c),
(16,313,o),
(33,359,o),
(69,383,cs),
(116,416,o),
(180,407,o),
(228,379,c),
(246,370,o),
(262,357,o),
(278,345,c),
(283,343,o),
(290,333,o),
(296,337,c),
(312,352,o),
(328,366,o),
(351,366,c),
(382,367,o),
(414,348,o),
(423,317,c),
(439,254,o),
(371,203,o),
(312,205,c)
);
}
);
width = 446;
}
);
unicode = 126;
},
{
glyphname = braceright;
layers = (
{
layerId = "75E525D2-6D94-455D-A64D-8DDBA529DB5E";
shapes = (
{
closed = 1;
nodes = (
(106,423,o),
(130,490,o),
(104,531,c),
(99,535,o),
(91,528,o),
(85,527,c),
(53,516,o),
(14,539,o),
(26,576,c),
(35,631,o),
(96,661,o),
(148,654,cs),
(195,648,o),
(234,612,o),
(250,567,cs),
(271,506,o),
(252,443,o),
(253,381,c),
(254,362,o),
(260,340,o),
(277,330,c),
(303,319,o),
(318,288,o),
(308,262,cs),
(304,253,o),
(298,246,o),
(294,238,c),
(290,226,o),
(286,215,o),
(284,204,c),
(278,144,o),
(277,81,o),
(230,37,c),
(205,12,o),
(172,-5,o),
(137,-8,cs),
(111,-10,o),
(85,-5,o),
(62,7,c),
(51,14,o),
(39,21,o),
(32,32,c),
(9,62,o),
(21,98,o),
(53,115,cs),
(76,128,o),
(98,126,o),
(123,122,c),
(134,122,o),
(135,180,o),
(139,193,c),
(141,205,o),
(144,218,o),
(149,229,cs),
(156,247,o),
(158,244,o),
(145,258,c),
(118,291,o),
(107,334,o),
(108,376,c)
);
}
);
width = 332;
}
);
unicode = 125;
},
{
glyphname = exclamdown;
layers = (
{
layerId = "75E525D2-6D94-455D-A64D-8DDBA529DB5E";
shapes = (
{
closed = 1;
nodes = (
(149,442,o),
(171,436,o),
(179,424,c),
(199,388,o),
(194,348,o),
(194,311,c),
(191,237,o),
(194,164,o),
(202,91,cs),
(204,73,o),
(211,51,o),
(194,35,c),
(162,-2,o),
(73,-15,o),
(35,23,c),
(21,39,o),
(25,60,o),
(23,78,cs),
(20,116,o),
(20,154,o),
(20,193,c),
(29,257,o),
(0,443,o),
(131,442,cs)
);
},
{
closed = 1;
nodes = (
(216,494,o),
(177,454,o),
(127,454,cs),
(78,454,o),
(39,494,o),
(39,543,cs),
(39,592,o),
(78,632,o),
(127,632,cs),
(177,632,o),
(216,592,o),
(216,543,cs)
);
}
);
width = 236;
}
);
unicode = 161;
},
{
glyphname = cent;
layers = (
{
layerId = "75E525D2-6D94-455D-A64D-8DDBA529DB5E";
shapes = (
{
closed = 1;
nodes = (
(312,277,o),
(283,276,o),
(265,259,cs),
(255,250,o),
(250,237,o),
(239,230,c),
(206,204,o),
(173,230,o),
(162,264,cs),
(144,317,o),
(170,378,o),
(214,410,cs),
(227,420,o),
(242,430,o),
(259,427,c),
(264,424,o),
(267,419,o),
(270,414,cs),
(361,281,o),
(456,457,o),
(305,523,cs),
(300,525,o),
(294,527,o),
(289,529,c),
(296,611,o),
(167,631,o),
(173,545,c),
(173,539,o),
(173,533,o),
(174,526,c),
(88,495,o),
(22,402,o),
(26,308,c),
(30,257,o),
(49,206,o),
(86,170,cs),
(108,148,o),
(135,131,o),
(164,121,c),
(165,113,o),
(166,106,o),
(167,98,cs),
(180,8,o),
(299,5,o),
(291,106,c),
(292,111,o),
(292,116,o),
(291,121,c),
(316,130,o),
(338,144,o),
(355,163,cs),
(362,170,o),
(367,177,o),
(372,185,cs),
(383,200,o),
(383,221,o),
(373,237,cs),
(363,253,o),
(352,261,o),
(335,268,cs)
);
}
);
width = 410;
}
);
leftKerningGroup = C2;
rightKerningGroup = C;
unicode = 162;
},
{
glyphname = sterling;
layers = (
{
layerId = "75E525D2-6D94-455D-A64D-8DDBA529DB5E";
shapes = (
{
closed = 1;
nodes = (
(17,344,o),
(61,361,o),
(93,366,c),
(141,378,o),
(189,384,o),
(238,383,cs),
(273,383,o),
(305,383,o),
(333,358,c),
(373,328,o),
(375,266,o),
(324,247,c),
(306,239,o),
(287,239,o),
(269,241,cs),
(249,243,o),
(230,244,o),
(210,244,c),
(179,245,o),
(148,245,o),
(116,244,cs),
(77,242,o),
(28,260,o),
(21,304,c)
);
},
{
closed = 1;
nodes = (
(157,-2,o),
(96,-17,o),
(51,36,cs),
(26,67,o),
(28,97,o),
(52,128,c),
(79,156,o),
(69,227,o),
(66,264,c),
(52,381,o),
(29,528,o),
(133,611,cs),
(190,656,o),
(275,657,o),
(335,616,cs),
(369,592,o),
(399,552,o),
(386,509,c),
(384,499,o),
(378,489,o),
(368,484,cs),
(343,470,o),
(308,478,o),
(289,499,cs),
(286,503,o),
(274,520,o),
(269,517,cs),
(254,510,o),
(242,497,o),
(235,483,cs),
(196,405,o),
(246,256,o),
(239,163,c),
(239,154,o),
(237,146,o),
(237,137,c),
(236,134,o),
(238,132,o),
(241,133,c),
(266,135,o),
(291,138,o),
(317,139,c),
(337,142,o),
(357,142,o),
(377,134,c),
(427,118,o),
(464,51,o),
(414,13,cs),
(391,-5,o),
(360,-3,o),
(332,-4,cs),
(294,-6,o),
(258,-6,o),
(219,-6,c)
);
}
);
width = 458;
}
);
unicode = 163;
},
{
glyphname = yen;
layers = (
{
layerId = "75E525D2-6D94-455D-A64D-8DDBA529DB5E";
shapes = (
{
closed = 1;
nodes = (
(177,148,o),
(175,194,o),
(181,240,c),
(181,244,o),
(174,245,o),
(171,248,c),
(154,257,o),
(140,269,o),
(125,281,c),
(103,301,o),
(85,324,o),
(69,349,c),
(32,416,o),
(13,504,o),
(34,578,c),
(43,601,o),
(55,626,o),
(81,634,c),
(121,649,o),
(171,631,o),
(192,594,c),
(231,530,o),
(202,440,o),
(259,385,c),
(272,370,o),
(290,386,o),
(302,394,c),
(337,427,o),
(349,476,o),
(355,521,c),
(361,552,o),
(353,587,o),
(373,613,c),
(379,619,o),
(385,624,o),
(391,629,cs),
(417,647,o),
(453,647,o),
(482,638,c),
(530,620,o),
(564,582,o),
(555,528,c),
(552,497,o),
(548,466,o),
(542,436,cs),
(525,344,o),
(465,258,o),
(376,226,c),
(369,225,o),
(373,218,o),
(373,213,c),
(376,179,o),
(375,145,o),
(373,111,cs),
(372,85,o),
(376,51,o),
(359,29,cs),
(303,-41,o),
(168,12,o),
(175,102,c)
);
},
{
closed = 1;
nodes = (
(269.748,149.736,o),
(222.787,149.102,o),
(176.729,155.447,cs),
(149.636,159.254,o),
(120.736,168.137,o),
(106.287,185.268,cs),
(96.353,197.324,o),
(96.353,213.821,o),
(110.802,223.973,cs),
(143.314,245.546,o),
(192.984,244.277,o),
(234.527,246.18,c),
(262.523,246.18,o),
(290.519,246.18,o),
(318.515,246.18,c),
(341.093,247.449,o),
(363.67,246.815,o),
(385.345,241.739,c),
(443.143,232.221,o),
(478.364,177.654,o),
(413.341,155.447,cs),
(383.539,145.929,o),
(349.221,149.736,o),
(316.709,149.102,c),
(316.709,149.102,o),
(316.709,149.102,o),
(316.709,149.736,c)
);
},
{
closed = 1;
nodes = (
(269.748,38.699,o),
(222.787,38.064,o),
(176.729,44.409,cs),
(149.636,48.216,o),
(120.736,57.099,o),
(106.287,74.231,cs),
(96.353,86.286,o),
(96.353,102.783,o),
(110.802,112.935,cs),
(143.314,134.508,o),
(192.984,133.239,o),
(234.527,135.143,c),
(262.523,135.143,o),
(290.519,135.143,o),
(318.515,135.143,c),
(341.093,136.412,o),
(363.67,135.777,o),
(385.345,130.701,c),
(443.143,121.184,o),
(478.364,66.617,o),
(413.341,44.409,cs),
(383.539,34.892,o),
(349.221,38.699,o),
(316.709,38.064,c),
(316.709,38.064,o),
(316.709,38.064,o),
(316.709,38.699,c)
);
}
);
width = 582;
}
);
unicode = 165;
},
{
glyphname = brokenbar;
layers = (
{
layerId = "75E525D2-6D94-455D-A64D-8DDBA529DB5E";
shapes = (
{
closed = 1;
nodes = (
(22,570,o),
(16,603,o),
(39,623,cs),
(68,649,o),
(114,642,o),
(142,617,cs),
(156,604,o),
(165,587,o),
(166,567,c),
(170,539,o),
(172,510,o),
(172,481,c),
(174,461,o),
(174,441,o),
(175,421,cs),
(176,404,o),
(179,385,o),
(169,370,c),
(144,325,o),
(76,332,o),
(45,366,cs),
(33,379,o),
(25,395,o),
(24,412,cs),
(22,455,o),
(22,499,o),
(20,543,c)
);
},
{
closed = 1;
nodes = (
(196,-21,o),
(75,-19,o),
(44,47,cs),
(33,71,o),
(39,99,o),
(36,125,c),
(36,164,o),
(32,203,o),
(35,242,cs),
(40,335,o),
(181,308,o),
(180,223,c),
(187,171,o),
(187,119,o),
(190,67,cs)
);
}
);
width = 211;
}
);
rightKerningGroup = H;
unicode = 166;
},
{
glyphname = section;
layers = (
{
layerId = "75E525D2-6D94-455D-A64D-8DDBA529DB5E";
shapes = (
{
closed = 1;
nodes = (
(143,-8,o),
(50,28,o),
(34,88,c),
(30,117,o),
(53,135,o),
(81,136,cs),
(107,137,o),
(131,123,o),
(157,119,c),
(162,123,o),
(141,141,o),
(137,145,cs),
(118,163,o),
(101,181,o),
(86,203,cs),
(53,249,o),
(47,316,o),
(88,360,cs),
(91,363,o),
(92,365,o),
(89,368,cs),
(83,375,o),
(77,382,o),
(71,390,cs),
(33,437,o),
(12,504,o),
(36,562,c),
(59,625,o),
(130,659,o),
(194,645,c),
(243,637,o),
(286,606,o),
(314,565,c),
(326,549,o),
(332,530,o),
(329,510,c),
(328,482,o),
(297,467,o),
(272,471,cs),
(245,475,o),
(222,492,o),
(203,510,cs),
(192,521,o),
(191,518,o),
(184,506,c),
(174,483,o),
(186,457,o),
(202,440,cs),
(222,418,o),
(250,405,o),
(272,385,cs),
(305,354,o),
(302,302,o),
(255,288,c),
(244,284,o),
(233,284,o),
(221,284,cs),
(210,284,o),
(206,273,o),
(210,266,cs),
(217,251,o),
(231,241,o),
(242,230,cs),
(270,205,o),
(297,175,o),
(311,140,cs),
(341,60,o),
(283,-12,o),
(199,-8,c)
);
}
);
width = 355;
}
);
unicode = 167;
},
{
glyphname = copyright;
layers = (
{
layerId = "75E525D2-6D94-455D-A64D-8DDBA529DB5E";
shapes = (
{
closed = 1;
nodes = (
(641,123,o),
(457,-27,o),
(273,2,c),
(145,18,o),
(41,131,o),
(28,258,cs),
(12,397,o),
(80,551,o),
(205,618,cs),
(256,646,o),
(319,646,o),
(374,632,cs),
(525,594,o),
(636,471,o),
(638,313,cs)
);
},
{
closed = 1;
nodes = (
(273,562,o),
(238,536,o),
(211,508,cs),
(146,439,o),
(112,338,o),
(128,244,cs),
(175,5,o),
(468,54,o),
(530,256,cs),
(573,402,o),
(471,561,o),
(314,559,c)
);
},
{
closed = 1;
nodes = (
(168,406,o),
(284,513,o),
(392,465,cs),
(510,413,o),
(437,275,o),
(365,379,c),
(363,384,o),
(360,387,o),
(356,390,c),
(343,392,o),
(330,384,o),
(320,377,cs),
(286,351,o),
(266,304,o),
(280,262,c),
(288,235,o),
(315,215,o),
(340,234,c),
(349,240,o),
(353,251,o),
(360,258,c),
(375,271,o),
(398,272,o),
(416,265,cs),
(429,259,o),
(438,253,o),
(446,240,cs),
(453,228,o),
(453,211,o),
(445,199,cs),
(441,194,o),
(437,187,o),
(432,183,c),
(416,165,o),
(395,152,o),
(372,145,cs),
(318,130,o),
(259,150,o),
(220,188,cs),
(191,217,o),
(175,256,o),
(173,296,c)
);
}
);
width = 664;
}
);
unicode = 169;
},
{
glyphname = ordfeminine;
layers = (
{
layerId = "75E525D2-6D94-455D-A64D-8DDBA529DB5E";
shapes = (
{
closed = 1;
nodes = (
(315,453,o),
(312,502,o),
(299,548,cs),
(291,575,o),
(279,603,o),
(257,623,cs),
(248,632,o),
(235,640,o),
(222,644,c),
(205,651,o),
(189,653,o),
(171,654,cs),
(151,655,o),
(134,652,o),
(115,645,c),
(20,596,o),
(21,452,o),
(28,359,c),
(30,345,o),
(29,330,o),
(38,318,c),
(55,294,o),
(91,286,o),
(115,302,c),
(132,315,o),
(130,331,o),
(126,350,c),
(127,354,o),
(122,370,o),
(127,371,c),
(153,370,o),
(179,369,o),
(205,369,c),
(209,368,o),
(207,361,o),
(207,359,c),
(196,313,o),
(252,276,o),
(291,299,cs),
(321,316,o),
(314,361,o),
(316,392,c),
(316,392,o),
(316,405,o),
(316,405,c)
);
},
{
closed = 1;
nodes = (
(166,460,o),
(148,458,o),
(129,456,cs),
(120,455,o),
(126,477,o),
(127,482,cs),
(129,503,o),
(151,602,o),
(185,573,c),
(195,562,o),
(197,539,o),
(200,524,cs),
(203,513,o),
(203,501,o),
(205,489,cs),
(209,457,o),
(213,460,o),
(184,460,cs)
);
}
);
width = 341;
}
);
unicode = 170;
},
{
glyphname = ordmasculine;
layers = (
{
layerId = "75E525D2-6D94-455D-A64D-8DDBA529DB5E";
shapes = (
{
closed = 1;
nodes = (
(369,425,o),
(356,393,o),
(333,366,cs),
(288,311,o),
(212,282,o),
(142,301,cs),
(129,305,o),
(115,310,o),
(103,317,cs),
(-10,382,o),
(9,540,o),
(103,613,cs),
(140,642,o),
(189,655,o),
(235,647,cs),
(318,633,o),
(377,553,o),
(373,470,c),
(373,466,o),
(373,462,o),
(373,458,cs)
);
},
{
closed = 1;
nodes = (
(132,427,o),
(137,411,o),
(145,400,cs),
(165,373,o),
(203,391,o),
(223,407,cs),
(244,423,o),
(259,446,o),
(265,471,cs),
(270,489,o),
(268,510,o),
(259,527,cs),
(248,546,o),
(216,557,o),
(196,550,cs),
(176,543,o),
(160,521,o),
(150,504,cs),
(139,484,o),
(134,464,o),
(133,441,cs)
);
}
);
width = 399;
}
);
unicode = 186;
},
{
glyphname = registered;
layers = (
{
layerId = "75E525D2-6D94-455D-A64D-8DDBA529DB5E";
shapes = (
{
closed = 1;
nodes = (
(82,175,o),
(-9,334,o),
(37,481,cs),
(57,543,o),
(100,604,o),
(161,630,cs),
(239,664,o),
(334,636,o),
(397,583,cs),
(563,439,o),
(463,174,o),
(244,174,c)
);
},
{
closed = 1;
nodes = (
(383,496,o),
(318,569,o),
(235,564,c),
(198,560,o),
(168,523,o),
(151,493,cs),
(130,455,o),
(119,411,o),
(123,368,cs),
(131,298,o),
(185,244,o),
(258,261,cs),
(328,276,o),
(383,343,o),
(381,415,c)
);
},
{
closed = 1;
nodes = (
(312,391,o),
(329,412,o),
(331,436,cs),
(334,468,o),
(308,497,o),
(279,509,cs),
(262,516,o),
(243,517,o),
(225,516,c),
(211,515,o),
(191,514,o),
(182,500,cs),
(178,493,o),
(179,484,o),
(178,475,c),
(178,458,o),
(178,441,o),
(178,423,c),
(180,395,o),
(171,311,o),
(213,311,cs),
(219,311,o),
(226,314,o),
(228,319,c),
(232,327,o),
(233,336,o),
(233,345,c),
(239,340,o),
(245,336,o),
(252,332,c),
(268,324,o),
(286,314,o),
(305,321,c),
(329,332,o),
(320,360,o),
(298,368,c),
(293,370,o),
(288,372,o),
(282,375,c),
(281,376,o),
(290,379,o),
(292,380,c)
);
},
{
closed = 1;
nodes = (
(260,427,o),
(247,422,o),
(233,421,c),
(233,437,o),
(234,453,o),
(236,469,c),
(239,469,o),
(243,468,o),
(246,467,cs),
(258,464,o),
(273,456,o),
(267,441,c)
);
}
);
width = 505;
}
);
leftKerningGroup = C2;
rightKerningGroup = C;
unicode = 174;
},
{
glyphname = degree;
layers = (
{
layerId = "75E525D2-6D94-455D-A64D-8DDBA529DB5E";
shapes = (
{
closed = 1;
nodes = (
(218,653,o),
(281,590,o),
(266,511,c),
(253,414,o),
(131,388,o),
(66,450,c),
(-13,521,o),
(32,649,o),
(139,650,c)
);
},
{
closed = 1;
nodes = (
(120,504,o),
(139,486,o),
(160,506,c),
(172,521,o),
(176,544,o),
(169,561,c),
(162,572,o),
(145,564,o),
(135,561,c),
(126,553,o),
(121,541,o),
(122,529,c)
);
}
);
width = 294;
}
);
unicode = 176;
},
{
glyphname = onesuperior;
layers = (
{
layerId = "75E525D2-6D94-455D-A64D-8DDBA529DB5E";
shapes = (
{
closed = 1;
nodes = (
(189,657,o),
(169,668,o),
(147,664,cs),
(135,662,o),
(128,656,o),
(118,649,c),
(94,631,o),
(68,615,o),
(45,594,cs),
(38,587,o),
(28,583,o),
(24,574,c),
(11,548,o),
(42,521,o),
(67,522,c),
(78,521,o),
(88,526,o),
(96,533,cs),
(101,538,o),
(107,543,o),
(112,547,c),
(112,539,o),
(112,532,o),
(112,524,c),
(117,477,o),
(102,342,o),
(170,342,cs),
(179,342,o),
(190,347,o),
(194,355,c),
(205,381,o),
(202,410,o),
(202,438,c),
(201,491,o),
(202,545,o),
(206,598,cs),
(207,612,o),
(211,627,o),
(202,640,cs)
);
}
);
width = 228;
}
);
unicode = 185;
},
{
glyphname = twosuperior;
layers = (
{
layerId = "75E525D2-6D94-455D-A64D-8DDBA529DB5E";
shapes = (
{
closed = 1;
nodes = (
(114,364,o),
(92,366,o),
(71,371,c),
(53,377,o),
(36,394,o),
(38,415,c),
(38,425,o),
(45,432,o),
(53,438,c),
(70,453,o),
(87,467,o),
(102,483,cs),
(120,503,o),
(138,526,o),
(146,553,cs),
(148,562,o),
(151,578,o),
(139,580,c),
(131,581,o),
(122,577,o),
(116,572,cs),
(100,558,o),
(103,534,o),
(88,519,cs),
(65,497,o),
(31,524,o),
(26,549,cs),
(22,574,o),
(33,600,o),
(49,618,c),
(92,665,o),
(170,661,o),
(212,615,cs),
(262,562,o),
(229,496,o),
(190,448,cs),
(186,444,o),
(182,440,o),
(179,436,c),
(187,436,o),
(196,438,o),
(205,439,cs),
(228,442,o),
(257,423,o),
(254,398,cs),
(253,390,o),
(249,383,o),
(242,379,cs),
(234,373,o),
(224,374,o),
(214,372,cs),
(188,368,o),
(162,364,o),
(136,365,c)
);
}
);
width = 280;
}
);
unicode = 178;
},
{
glyphname = threesuperior;
layers = (
{
layerId = "75E525D2-6D94-455D-A64D-8DDBA529DB5E";
shapes = (
{
closed = 1;
nodes = (
(200,673,o),
(255,622,o),
(235,556,cs),
(232,544,o),
(226,534,o),
(219,524,c),
(218,524,o),
(218,524,o),
(219,523,cs),
(258,490,o),
(264,431,o),
(229,393,cs),
(184,344,o),
(101,349,o),
(55,393,c),
(37,411,o),
(20,436,o),
(27,462,c),
(32,479,o),
(51,486,o),
(67,484,cs),
(79,482,o),
(89,477,o),
(98,469,c),
(102,466,o),
(105,463,o),
(108,458,c),
(114,452,o),
(120,443,o),
(130,442,c),
(140,442,o),
(150,448,o),
(153,458,cs),
(154,462,o),
(155,467,o),
(151,470,cs),
(148,472,o),
(144,473,o),
(139,474,cs),
(133,476,o),
(127,478,o),
(121,482,cs),
(111,487,o),
(104,496,o),
(101,506,cs),
(99,512,o),
(99,518,o),
(101,523,c),
(103,528,o),
(104,533,o),
(106,537,cs),
(116,554,o),
(132,564,o),
(142,580,c),
(145,585,o),
(148,590,o),
(147,595,c),
(148,599,o),
(141,597,o),
(139,597,cs),
(130,598,o),
(115,591,o),
(107,587,c),
(96,584,o),
(85,580,o),
(74,581,cs),
(57,582,o),
(37,595,o),
(38,615,cs),
(39,635,o),
(62,650,o),
(78,658,cs),
(97,667,o),
(117,673,o),
(137,673,cs)
);
}
);
width = 278;
}
);
unicode = 179;
},
{
glyphname = mu;
layers = (
{
layerId = "75E525D2-6D94-455D-A64D-8DDBA529DB5E";
shapes = (
{
closed = 1;
nodes = (
(183,634,o),
(214,594,o),
(218,537,c),
(219,483,o),
(215,428,o),
(219,374,cs),
(223,302,o),
(237,226,o),
(279,166,c),
(283,156,o),
(295,169,o),
(300,172,c),
(327,199,o),
(338,236,o),
(348,271,c),
(370,357,o),
(378,448,o),
(375,536,cs),
(373,570,o),
(369,600,o),
(399,624,cs),
(422,642,o),
(455,645,o),
(483,638,cs),
(537,626,o),
(567,588,o),
(570,534,cs),
(573,483,o),
(573,432,o),
(568,381,cs),
(556,276,o),
(542,162,o),
(475,75,cs),
(424,12,o),
(336,-20,o),
(257,0,c),
(98,35,o),
(38,218,o),
(25,362,cs),
(20,415,o),
(19,467,o),
(21,520,cs),
(25,592,o),
(40,651,o),
(126,645,c)
);
},
{
closed = 1;
nodes = (
(0,-204,o),
(29,59,o),
(20,149,c),
(20,204,o),
(20,258,o),
(23,312,cs),
(25,338,o),
(21,366,o),
(35,389,c),
(73,443,o),
(162,426,o),
(194,373,c),
(211,349,o),
(204,319,o),
(202,293,cs),
(194,190,o),
(191,86,o),
(194,-17,c),
(194,-71,o),
(199,-127,o),
(179,-178,c),
(171,-194,o),
(149,-203,o),
(131,-203,cs)
);
}
);
width = 593;
}
);
unicode = 956;
},
{
glyphname = paragraph;
layers = (
{
layerId = "75E525D2-6D94-455D-A64D-8DDBA529DB5E";
shapes = (
{
closed = 1;
nodes = (
(12,472,o),
(-13,332,o),
(74,236,cs),
(126,180,o),
(206,159,o),
(280,159,cs),
(294,159,o),
(310,160,o),
(325,163,c),
(324,118,o),
(324,73,o),
(340,32,c),
(348,16,o),
(370,7,o),
(388,7,cs),
(519,6,o),
(490,269,o),
(499,359,c),
(499,414,o),
(499,468,o),
(496,522,cs),
(494,548,o),
(498,576,o),
(484,599,cs),
(450,653,o),
(345,648,o),
(291,642,cs),
(220,635,o),
(152,607,o),
(100,557,cs)
);
},
{
closed = 1;
nodes = (
(582,7,o),
(560,16,o),
(552,32,c),
(532,83,o),
(537,139,o),
(537,193,c),
(540,296,o),
(537,400,o),
(529,503,cs),
(527,529,o),
(520,559,o),
(537,583,c),
(569,636,o),
(658,653,o),
(696,599,c),
(710,576,o),
(706,548,o),
(708,522,cs),
(711,468,o),
(711,414,o),
(711,359,c),
(702,269,o),
(731,6,o),
(600,7,cs)
);
}
);
width = 736;
}
);
unicode = 182;
},
{
glyphname = periodcentered;
layers = (
{
layerId = "75E525D2-6D94-455D-A64D-8DDBA529DB5E";
shapes = (
{
closed = 1;
nodes = (
(198,300,o),
(158,260,o),
(109,260,cs),
(60,260,o),
(20,300,o),
(20,349,cs),
(20,398,o),
(60,438,o),
(109,438,cs),
(158,438,o),
(198,398,o),
(198,349,cs)
);
}
);
width = 218;
}
);
unicode = 183;
},
{
glyphname = bullet;
layers = (
{
layerId = "75E525D2-6D94-455D-A64D-8DDBA529DB5E";
shapes = (
{
closed = 1;
nodes = (
(262,282,o),
(208,228,o),
(141,228,cs),
(74,228,o),
(20,282,o),
(20,349,cs),
(20,416,o),
(74,470,o),
(141,470,cs),
(208,470,o),
(262,416,o),
(262,349,cs)
);
}
);
width = 282;
}
);
unicode = 8226;
},
{
glyphname = ellipsis;
layers = (
{
layerId = "75E525D2-6D94-455D-A64D-8DDBA529DB5E";
shapes = (
{
closed = 1;
nodes = (
(198,40,o),
(158,0,o),
(109,0,cs),
(60,0,o),
(20,40,o),
(20,89,cs),
(20,138,o),
(60,178,o),
(109,178,cs),
(158,178,o),
(198,138,o),
(198,89,cs)
);
},
{
closed = 1;
nodes = (
(416,40,o),
(376,0,o),
(327,0,cs),
(278,0,o),
(238,40,o),
(238,89,cs),
(238,138,o),
(278,178,o),
(327,178,cs),
(376,178,o),
(416,138,o),
(416,89,cs)
);
},
{
closed = 1;
nodes = (
(634,40,o),
(594,0,o),
(545,0,cs),
(496,0,o),
(456,40,o),
(456,89,cs),
(456,138,o),
(496,178,o),
(545,178,cs),
(594,178,o),
(634,138,o),
(634,89,cs)
);
}
);
width = 654;
}
);
unicode = 8230;
},
{
glyphname = endash;
layers = (
{
layerId = "75E525D2-6D94-455D-A64D-8DDBA529DB5E";
shapes = (
{
closed = 1;
nodes = (
(309,237,o),
(157,237,o),
(106,246,c),
(76,253,o),
(44,267,o),
(28,294,cs),
(17,313,o),
(17,339,o),
(33,354,c),
(69,389,o),
(224,386,o),
(270,389,c),
(301,389,o),
(332,390,o),
(363,390,c),
(388,392,o),
(413,391,o),
(437,383,c),
(501,368,o),
(540,282,o),
(468,247,c),
(435,232,o),
(397,238,o),
(361,237,c)
);
}
);
width = 527;
}
);
unicode = 8211;
},
{
glyphname = emdash;
layers = (
{
layerId = "75E525D2-6D94-455D-A64D-8DDBA529DB5E";
shapes = (
{
closed = 1;
nodes = (
(409,237,o),
(157,237,o),
(106,246,c),
(76,253,o),
(44,267,o),
(28,294,cs),
(17,313,o),
(17,339,o),
(33,354,c),
(69,389,o),
(324,386,o),
(370,389,c),
(401,389,o),
(432,390,o),
(463,390,c),
(488,392,o),
(513,391,o),
(537,383,c),
(601,368,o),
(640,282,o),
(568,247,c),
(535,232,o),
(497,238,o),
(461,237,c)
);
}
);
width = 627;
}
);
unicode = 8212;
},
{
glyphname = perthousand;
layers = (
{
layerId = "75E525D2-6D94-455D-A64D-8DDBA529DB5E";
shapes = (
{
closed = 1;
nodes = (
(377,647,o),
(450,494,o),
(372,371,cs),
(297,251,o),
(105,260,o),
(39,384,cs),
(-29,506,o),
(100,651,o),
(227,647,c)
);
},
{
closed = 1;
nodes = (
(245,502,o),
(248,513,o),
(241,515,c),
(231,515,o),
(222,509,o),
(214,504,cs),
(196,493,o),
(183,475,o),
(177,453,cs),
(174,442,o),
(178,432,o),
(185,423,c),
(202,413,o),
(229,440,o),
(235,454,c),
(242,467,o),
(247,481,o),
(246,496,cs)
);
},
{
closed = 1;
nodes = (
(898,370,o),
(971,217,o),
(894,94,cs),
(819,-26,o),
(626,-17,o),
(560,107,cs),
(492,229,o),
(621,374,o),
(748,370,c)
);
},
{
closed = 1;
nodes = (
(767,225,o),
(769,236,o),
(762,238,c),
(752,238,o),
(743,232,o),
(735,227,cs),
(717,216,o),
(704,198,o),
(698,176,cs),
(695,165,o),
(699,155,o),
(707,146,c),
(723,136,o),
(750,163,o),
(756,177,c),
(763,190,o),
(768,204,o),
(768,219,c)
);
},
{
closed = 1;
nodes = (
(590,659,o),
(555,636,o),
(536,605,c),
(512,563,o),
(489,520,o),
(467,476,cs),
(402,347,o),
(341,217,o),
(281,86,c),
(246,16,o),
(315,-31,o),
(379,-2,c),
(399,8,o),
(418,23,o),
(428,43,cs),
(441,70,o),
(453,98,o),
(465,125,cs),
(532,273,o),
(607,416,o),
(679,561,c),
(704,605,o),
(682,663,o),
(627,660,c)
);
},
{
closed = 1;
nodes = (
(1298,370,o),
(1371,217,o),
(1294,94,cs),
(1219,-26,o),
(1027,-16,o),
(960,107,cs),
(893,230,o),
(1021,374,o),
(1148,370,c)
);
},
{
closed = 1;
nodes = (
(1167,225,o),
(1169,236,o),
(1162,238,c),
(1152,238,o),
(1143,232,o),
(1135,227,cs),
(1117,216,o),
(1104,198,o),
(1098,176,cs),
(1095,165,o),
(1099,155,o),
(1107,146,c),
(1123,136,o),
(1150,163,o),
(1156,177,c),
(1163,190,o),
(1168,204,o),
(1168,219,c)
);
}
);
width = 1346;
}
);
unicode = 8240;
},
{
glyphname = guilsinglleft;
layers = (
{
layerId = "75E525D2-6D94-455D-A64D-8DDBA529DB5E";
shapes = (
{
closed = 1;
nodes = (
(25,301,o),
(33,319,o),
(43,336,cs),
(59,365,o),
(74,394,o),
(91,422,c),
(116,459,o),
(141,510,o),
(184,529,c),
(228,547,o),
(287,516,o),
(287,466,cs),
(287,457,o),
(285,448,o),
(281,439,cs),
(261,397,o),
(235,359,o),
(212,318,cs),
(204,304,o),
(196,290,o),
(188,276,cs),
(183,267,o),
(184,263,o),
(190,255,cs),
(215,221,o),
(241,187,o),
(266,154,cs),
(275,142,o),
(282,127,o),
(281,112,c),
(281,53,o),
(204,43,o),
(164,72,c),
(139,88,o),
(125,117,o),
(106,139,c),
(79,181,o),
(25,228,o),
(26,280,c)
);
}
);
width = 307;
}
);
unicode = 8249;
},
{
glyphname = guilsinglright;
layers = (
{
layerId = "75E525D2-6D94-455D-A64D-8DDBA529DB5E";
shapes = (
{
closed = 1;
nodes = (
(282,228,o),
(228,181,o),
(201,139,c),
(182,117,o),
(168,88,o),
(143,72,c),
(103,43,o),
(26,53,o),
(26,112,c),
(25,127,o),
(32,142,o),
(41,154,cs),
(66,187,o),
(92,221,o),
(117,255,cs),
(123,263,o),
(124,267,o),
(119,276,cs),
(111,290,o),
(103,304,o),
(95,318,cs),
(72,359,o),
(46,397,o),
(26,439,cs),
(22,448,o),
(20,457,o),
(20,466,cs),
(20,516,o),
(79,547,o),
(123,529,c),
(166,510,o),
(191,459,o),
(216,422,c),
(233,394,o),
(248,365,o),
(264,336,cs),
(274,319,o),
(282,301,o),
(281,280,c)
);
}
);
width = 307;
}
);
unicode = 8250;
},
{
glyphname = fraction;
layers = (
{
layerId = "75E525D2-6D94-455D-A64D-8DDBA529DB5E";
shapes = (
{
closed = 1;
nodes = (
(338,659,o),
(303,636,o),
(284,605,c),
(260,563,o),
(237,520,o),
(216,476,cs),
(151,347,o),
(89,217,o),
(30,86,c),
(-6,16,o),
(63,-31,o),
(127,-2,c),
(147,8,o),
(166,23,o),
(176,43,cs),
(189,70,o),
(201,98,o),
(214,125,c),
(280,273,o),
(355,416,o),
(427,561,c),
(452,605,o),
(430,663,o),
(375,660,c)
);
}
);
width = 458;
}
);
unicode = 8260;
},
{
glyphname = uni2215;
layers = (
{
layerId = "75E525D2-6D94-455D-A64D-8DDBA529DB5E";
shapes = (
{
closed = 1;
nodes = (
(338,659,o),
(303,636,o),
(284,605,c),
(260,563,o),
(237,520,o),
(216,476,cs),
(151,347,o),
(89,217,o),
(30,86,c),
(-6,16,o),
(63,-31,o),
(127,-2,c),
(147,8,o),
(166,23,o),
(176,43,cs),
(189,70,o),
(201,98,o),
(214,125,c),
(280,273,o),
(355,416,o),
(427,561,c),
(452,605,o),
(430,663,o),
(375,660,c)
);
}
);
width = 458;
}
);
unicode = 8725;
},
{
glyphname = uni2219;
layers = (
{
layerId = "75E525D2-6D94-455D-A64D-8DDBA529DB5E";
shapes = (
{
closed = 1;
nodes = (
(198,300,o),
(158,260,o),
(109,260,cs),
(60,260,o),
(20,300,o),
(20,349,cs),
(20,398,o),
(60,438,o),
(109,438,cs),
(158,438,o),
(198,398,o),
(198,349,cs)
);
}
);
width = 218;
}
);
unicode = 8729;
},
{
glyphname = minus;
layers = (
{
layerId = "75E525D2-6D94-455D-A64D-8DDBA529DB5E";
shapes = (
{
closed = 1;
nodes = (
(309,237,o),
(157,237,o),
(106,246,c),
(76,253,o),
(44,267,o),
(28,294,cs),
(17,313,o),
(17,339,o),
(33,354,c),
(69,389,o),
(224,386,o),
(270,389,c),
(301,389,o),
(332,390,o),
(363,390,c),
(388,392,o),
(413,391,o),
(437,383,c),
(501,368,o),
(540,282,o),
(468,247,c),
(435,232,o),
(397,238,o),
(361,237,c)
);
}
);
width = 527;
}
);
unicode = 8722;
},
{
glyphname = summation;
layers = (
{
layerId = "75E525D2-6D94-455D-A64D-8DDBA529DB5E";
shapes = (
{
closed = 1;
nodes = (
(128,670,o),
(122,671,o),
(116,672,cs),
(105,673,o),
(93,674,o),
(82,672,cs),
(43,665,o),
(21,616,o),
(21,581,cs),
(21,549,o),
(25,526,o),
(48,502,cs),
(79,470,o),
(116,449,o),
(154,425,cs),
(197,398,o),
(241,371,o),
(284,344,cs),
(293,339,o),
(282,335,o),
(278,332,cs),
(231,301,o),
(184,270,o),
(139,237,c),
(98,209,o),
(57,171,o),
(34,126,cs),
(13,87,o),
(14,33,o),
(53,6,c),
(76,-8,o),
(104,-4,o),
(130,-6,cs),
(184,-9,o),
(238,-9,o),
(293,-9,c),
(383,0,o),
(646,-29,o),
(645,102,cs),
(645,120,o),
(636,142,o),
(620,150,c),
(569,170,o),
(513,165,o),
(459,165,c),
(421,164,o),
(382,163,o),
(343,164,c),
(345,165,o),
(346,166,o),
(348,167,cs),
(424,210,o),
(488,246,o),
(493,344,c),
(493,398,o),
(461,446,o),
(414,472,cs),
(406,477,o),
(398,482,o),
(389,487,c),
(501,489,o),
(646,498,o),
(645,595,cs),
(645,613,o),
(636,635,o),
(620,643,c),
(569,663,o),
(513,659,o),
(459,658,cs),
(402,657,o),
(345,655,o),
(289,657,cs),
(237,658,o),
(185,664,o),
(134,670,c)
);
}
);
width = 666;
}
);
leftKerningGroup = B1;
rightKerningGroup = H;
unicode = 8721;
},
{
glyphname = infinity;
layers = (
{
layerId = "75E525D2-6D94-455D-A64D-8DDBA529DB5E";
shapes = (
{
closed = 1;
nodes = (
(21,439,o),
(85,550,o),
(204,553,c),
(236,553,o),
(269,547,o),
(297,531,c),
(309,525,o),
(322,518,o),
(332,509,c),
(334,508,o),
(336,506,o),
(337,508,c),
(367,535,o),
(405,551,o),
(444,553,cs),
(529,558,o),
(612,501,o),
(641,422,c),
(647,409,o),
(646,395,o),
(647,382,c),
(649,368,o),
(650,354,o),
(650,340,c),
(653,221,o),
(569,90,o),
(442,87,cs),
(398,86,o),
(353,104,o),
(324,137,c),
(321,141,o),
(317,134,o),
(313,132,c),
(307,128,o),
(302,123,o),
(295,118,c),
(267,100,o),
(235,89,o),
(201,87,c),
(63,85,o),
(23,213,o),
(26,329,c)
);
},
{
closed = 1;
nodes = (
(429,324,o),
(423,273,o),
(457,270,c),
(490,265,o),
(502,293,o),
(501,321,c),
(501,339,o),
(501,341,o),
(487,352,c),
(471,364,o),
(450,372,o),
(430,370,c),
(425,370,o),
(428,353,o),
(427,348,c)
);
},
{
closed = 1;
nodes = (
(184,323,o),
(179,272,o),
(213,270,c),
(246,265,o),
(257,294,o),
(256,322,c),
(255,332,o),
(257,341,o),
(247,347,c),
(231,362,o),
(208,372,o),
(186,370,c),
(179,372,o),
(183,353,o),
(182,348,c)
);
}
);
width = 676;
}
);
leftKerningGroup = C2;
rightKerningGroup = C;
unicode = 8734;
},
{
glyphname = approxequal;
layers = (
{
layerId = "75E525D2-6D94-455D-A64D-8DDBA529DB5E";
shapes = (
{
closed = 1;
nodes = (
(267,105,o),
(225,124,o),
(191,153,c),
(186,155,o),
(163,181,o),
(160,171,cs),
(158,166,o),
(157,160,o),
(156,154,cs),
(151,129,o),
(126,114,o),
(102,113,cs),
(66,111,o),
(28,136,o),
(21,171,c),
(16,213,o),
(33,259,o),
(69,283,cs),
(116,316,o),
(180,307,o),
(228,279,c),
(246,270,o),
(262,257,o),
(278,245,c),
(283,243,o),
(290,233,o),
(296,237,c),
(312,252,o),
(328,266,o),
(351,266,c),
(382,267,o),
(414,248,o),
(423,217,c),
(439,154,o),
(371,103,o),
(312,105,c)
);
},
{
closed = 1;
nodes = (
(267,305,o),
(225,324,o),
(191,353,c),
(186,355,o),
(163,381,o),
(160,371,cs),
(158,366,o),
(157,360,o),
(156,354,cs),
(151,329,o),
(126,314,o),
(102,313,cs),
(66,311,o),
(28,336,o),
(21,371,c),
(16,413,o),
(33,459,o),
(69,483,cs),
(116,516,o),
(180,507,o),
(228,479,c),
(246,470,o),
(262,457,o),
(278,445,c),
(283,443,o),
(290,433,o),
(296,437,c),
(312,452,o),
(328,466,o),
(351,466,c),
(382,467,o),
(414,448,o),
(423,417,c),
(439,354,o),
(371,303,o),
(312,305,c)
);
}
);
width = 446;
}
);
unicode = 8776;
},
{
glyphname = notequal;
layers = (
{
layerId = "75E525D2-6D94-455D-A64D-8DDBA529DB5E";
shapes = (
{
closed = 1;
nodes = (
(209,288,o),
(157,287,o),
(106,297,cs),
(76,303,o),
(44,317,o),
(28,344,cs),
(17,363,o),
(17,389,o),
(33,405,cs),
(69,439,o),
(124,437,o),
(170,440,c),
(201,440,o),
(232,440,o),
(263,440,c),
(288,442,o),
(313,441,o),
(337,433,c),
(401,418,o),
(440,332,o),
(368,297,cs),
(335,282,o),
(297,288,o),
(261,287,c),
(261,287,o),
(261,287,o),
(261,288,c)
);
},
{
closed = 1;
nodes = (
(209,113,o),
(157,112,o),
(106,122,cs),
(76,128,o),
(44,142,o),
(28,169,cs),
(17,188,o),
(17,214,o),
(33,230,cs),
(69,264,o),
(124,262,o),
(170,265,c),
(201,265,o),
(232,265,o),
(263,265,c),
(288,267,o),
(313,266,o),
(337,258,c),
(401,243,o),
(440,157,o),
(368,122,cs),
(335,107,o),
(297,113,o),
(261,112,c),
(261,112,o),
(261,112,o),
(261,113,c)
);
},
{
closed = 1;
nodes = (
(369.139,639.718,o),
(384.7,581.48,o),
(367.017,537.3,c),
(316.092,391.706,o),
(263.044,248.119,o),
(216.362,99.512,c),
(207.167,72.402,o),
(198.68,44.287,o),
(189.485,17.176,cs),
(182.412,-2.906,o),
(168.973,-17.967,o),
(154.827,-28.008,c),
(109.56,-57.127,o),
(60.756,-9.934,o),
(86.219,60.353,c),
(127.95,191.89,o),
(171.802,322.423,o),
(217.777,451.952,cs),
(232.63,496.132,o),
(248.898,539.308,o),
(265.873,581.48,c),
(279.312,612.608,o),
(304.067,635.702,o),
(330.238,636.706,c)
);
}
);
width = 427;
}
);
unicode = 8800;
},
{
glyphname = trademark;
layers = (
{
layerId = "75E525D2-6D94-455D-A64D-8DDBA529DB5E";
shapes = (
{
closed = 1;
nodes = (
(280.034,650.506,o),
(265.49,650.506,o),
(250.946,649.294,cs),
(240.644,648.082,o),
(230.342,648.688,o),
(220.04,648.082,cs),
(178.226,645.658,o),
(136.412,645.052,o),
(94.598,642.628,cs),
(72.176,641.416,o),
(37.028,635.962,o),
(24.908,614.752,cs),
(11.576,592.33,o),
(27.938,565.666,o),
(49.148,555.364,c),
(70.964,543.85,o),
(95.81,542.638,o),
(120.656,542.032,c),
(121.868,542.032,o),
(122.474,542.032,o),
(123.686,542.032,c),
(123.08,519.61,o),
(123.08,496.582,o),
(123.08,473.554,c),
(128.534,419.014,o),
(110.96,259.636,o),
(190.346,260.242,cs),
(201.254,260.242,o),
(214.586,265.696,o),
(219.434,275.392,c),
(231.554,306.298,o),
(228.524,340.234,o),
(228.524,372.958,c),
(226.706,430.528,o),
(227.918,488.704,o),
(232.16,546.274,c),
(252.158,547.486,o),
(272.156,548.092,o),
(292.154,548.698,c),
(353.966,558.394,o),
(345.482,625.66,o),
(293.972,644.446,c)
);
},
{
closed = 1;
nodes = (
(765.594,573.544,o),
(766.2,577.18,o),
(766.806,580.816,cs),
(767.412,587.482,o),
(768.018,594.754,o),
(766.806,601.42,cs),
(762.564,625.054,o),
(732.87,638.386,o),
(711.66,638.386,cs),
(692.268,638.386,o),
(678.33,635.962,o),
(663.786,622.024,cs),
(644.394,603.238,o),
(631.668,580.816,o),
(617.124,557.788,cs),
(600.762,531.73,o),
(584.4,505.066,o),
(568.038,479.008,cs),
(565.008,473.554,o),
(562.584,480.22,o),
(560.766,482.644,cs),
(541.98,511.126,o),
(523.194,539.608,o),
(503.196,566.878,c),
(486.228,591.724,o),
(463.2,616.57,o),
(435.93,630.508,cs),
(412.296,643.234,o),
(379.572,642.628,o),
(363.21,618.994,c),
(354.726,605.056,o),
(357.15,588.088,o),
(355.938,572.332,cs),
(354.12,539.608,o),
(354.12,506.884,o),
(354.12,473.554,c),
(359.574,419.014,o),
(342,259.636,o),
(421.386,260.242,cs),
(432.294,260.242,o),
(445.626,265.696,o),
(450.474,275.392,c),
(462.594,306.298,o),
(459.564,340.234,o),
(459.564,372.958,c),
(458.958,395.986,o),
(458.352,419.62,o),
(458.958,443.254,c),
(459.564,442.042,o),
(460.17,441.436,o),
(460.776,440.224,cs),
(486.834,394.168,o),
(508.65,355.384,o),
(568.038,352.354,c),
(600.762,352.354,o),
(629.85,371.746,o),
(645.606,400.228,cs),
(648.636,405.076,o),
(651.666,409.924,o),
(654.696,415.378,c),
(655.908,347.506,o),
(661.362,259.636,o),
(720.144,260.242,cs),
(731.052,260.242,o),
(744.384,265.696,o),
(749.232,275.392,c),
(761.352,306.298,o),
(758.928,340.234,o),
(758.322,372.958,cs),
(757.716,407.5,o),
(756.504,442.042,o),
(757.716,475.978,cs),
(758.322,507.49,o),
(761.958,539.002,o),
(765.594,569.908,c)
);
}
);
width = 788;
}
);
unicode = 8482;
},
{
glyphname = Euro;
layers = (
{
layerId = "75E525D2-6D94-455D-A64D-8DDBA529DB5E";
shapes = (
{
closed = 1;
nodes = (
(76,509,o),
(297,715,o),
(504,623,cs),
(730,524,o),
(589,260,o),
(452,459,c),
(448,467,o),
(442,474,o),
(435,479,c),
(410,483,o),
(386,468,o),
(367,454,cs),
(302,405,o),
(263,314,o),
(290,234,c),
(305,183,o),
(356,145,o),
(405,182,c),
(422,193,o),
(429,213,o),
(443,227,c),
(471,252,o),
(515,254,o),
(549,240,cs),
(575,229,o),
(591,217,o),
(607,193,cs),
(621,170,o),
(621,137,o),
(605,115,cs),
(597,104,o),
(590,92,o),
(580,83,c),
(549,50,o),
(509,25,o),
(465,12,cs),
(363,-18,o),
(249,19,o),
(175,93,cs),
(119,147,o),
(90,223,o),
(85,300,c)
);
},
{
closed = 1;
nodes = (
(221,319,o),
(167,318,o),
(114,326,cs),
(83,330,o),
(50,341,o),
(34,361,cs),
(22,376,o),
(22,396,o),
(39,408,cs),
(76,434,o),
(133,432,o),
(181,434,c),
(213,434,o),
(245,434,o),
(277,434,c),
(303,436,o),
(328,435,o),
(353,429,c),
(419,418,o),
(460,352,o),
(385,326,cs),
(351,314,o),
(312,319,o),
(275,318,c),
(275,318,o),
(275,318,o),
(275,319,c)
);
},
{
closed = 1;
nodes = (
(221,186,o),
(167,185,o),
(114,193,cs),
(83,197,o),
(50,208,o),
(34,229,cs),
(22,243,o),
(22,263,o),
(39,275,cs),
(76,301,o),
(133,299,o),
(181,301,c),
(213,301,o),
(245,301,o),
(277,301,c),
(303,303,o),
(328,302,o),
(353,296,c),
(419,285,o),
(460,219,o),
(385,193,cs),
(351,181,o),
(312,186,o),
(275,185,c),
(275,185,o),
(275,185,o),
(275,186,c)
);
}
);
width = 649;
}
);
leftKerningGroup = C2;
rightKerningGroup = C;
unicode = 8364;
},
{
glyphname = lira;
layers = (
{
layerId = "75E525D2-6D94-455D-A64D-8DDBA529DB5E";
shapes = (
{
closed = 1;
nodes = (
(43,399,o),
(80,413,o),
(108,417,c),
(149,428,o),
(190,433,o),
(232,432,cs),
(262,432,o),
(289,432,o),
(313,410,c),
(347,385,o),
(349,332,o),
(306,315,c),
(290,309,o),
(274,309,o),
(258,310,cs),
(241,312,o),
(225,313,o),
(208,313,c),
(181,314,o),
(155,314,o),
(128,313,cs),
(94,311,o),
(52,327,o),
(46,364,c)
);
},
{
closed = 1;
nodes = (
(157,-2,o),
(96,-17,o),
(51,36,cs),
(26,67,o),
(28,97,o),
(52,128,c),
(79,156,o),
(69,227,o),
(66,264,c),
(52,381,o),
(29,528,o),
(133,611,cs),
(190,656,o),
(275,657,o),
(335,616,cs),
(369,592,o),
(399,552,o),
(386,509,c),
(384,499,o),
(378,489,o),
(368,484,cs),
(343,470,o),
(308,478,o),
(289,499,cs),
(286,503,o),
(274,520,o),
(269,517,cs),
(254,510,o),
(242,497,o),
(235,483,cs),
(196,405,o),
(246,256,o),
(239,163,c),
(239,154,o),
(237,146,o),
(237,137,c),
(236,134,o),
(238,132,o),
(241,133,c),
(266,135,o),
(291,138,o),
(317,139,c),
(337,142,o),
(357,142,o),
(377,134,c),
(427,118,o),
(464,51,o),
(414,13,cs),
(391,-5,o),
(360,-3,o),
(332,-4,cs),
(294,-6,o),
(258,-6,o),
(219,-6,c)
);
},
{
closed = 1;
nodes = (
(43,250,o),
(80,265,o),
(108,269,c),
(149,279,o),
(190,284,o),
(232,284,cs),
(262,284,o),
(289,284,o),
(313,262,c),
(347,236,o),
(349,183,o),
(306,167,c),
(290,160,o),
(274,160,o),
(258,162,cs),
(241,164,o),
(225,165,o),
(208,165,c),
(181,165,o),
(155,166,o),
(128,165,cs),
(94,164,o),
(52,178,o),
(46,216,c)
);
}
);
width = 458;
}
);
unicode = 8356;
},
{
glyphname = franc;
layers = (
{
layerId = "75E525D2-6D94-455D-A64D-8DDBA529DB5E";
shapes = (
{
closed = 1;
nodes = (
(407,647,o),
(367,654,o),
(327,651,c),
(327,653,o),
(184,648,o),
(170,647,c),
(127,643,o),
(63,638,o),
(35,599,c),
(21,576,o),
(25,548,o),
(23,522,c),
(20,468,o),
(20,414,o),
(20,359,c),
(29,269,o),
(0,6,o),
(131,7,cs),
(149,7,o),
(171,16,o),
(179,32,c),
(199,83,o),
(194,139,o),
(194,193,c),
(193,214,o),
(193,235,o),
(193,256,c),
(209,255,o),
(226,255,o),
(242,255,c),
(275,254,o),
(308,257,o),
(341,261,c),
(372,264,o),
(406,283,o),
(412,316,c),
(426,372,o),
(370,420,o),
(318,427,c),
(287,430,o),
(257,422,o),
(226,421,c),
(216,420,o),
(206,419,o),
(197,417,c),
(198,442,o),
(199,468,o),
(201,493,c),
(203,493,l),
(235,489,o),
(267,488,o),
(300,487,c),
(318,486,o),
(336,485,o),
(353,485,c),
(381,483,o),
(406,482,o),
(431,497,c),
(479,521,o),
(475,587,o),
(437,618,c)
);
},
{
closed = 1;
nodes = (
(173.457,62.609,o),
(196.546,58.963,o),
(216.597,68.077,c),
(260.344,89.343,o),
(236.648,141.597,o),
(197.761,150.711,c),
(183.179,155.572,o),
(167.989,156.179,o),
(152.799,154.964,c),
(133.963,154.964,o),
(115.128,154.356,o),
(96.292,154.356,c),
(68.342,152.534,o),
(34.924,154.356,o),
(13.051,133.09,c),
(3.329,123.976,o),
(3.329,108.179,o),
(10.013,96.634,cs),
(19.734,80.229,o),
(39.178,71.723,o),
(57.406,67.47,c),
(88.393,62.001,o),
(119.988,62.001,o),
(151.584,62.001,c)
);
}
);
width = 492;
}
);
leftKerningGroup = B1;
rightKerningGroup = F;
unicode = 8355;
},
{
glyphname = product;
layers = (
{
layerId = "75E525D2-6D94-455D-A64D-8DDBA529DB5E";
shapes = (
{
closed = 1;
nodes = (
(576,561,o),
(575,594,o),
(547,617,c),
(527,631,o),
(501,627,o),
(479,629,cs),
(431,632,o),
(383,632,o),
(335,632,c),
(256,622,o),
(23,652,o),
(24,521,cs),
(24,520,o),
(24,519,o),
(24,518,cs),
(24,506,o),
(24,495,o),
(23,484,cs),
(20,434,o),
(20,384,o),
(20,333,c),
(29,250,o),
(0,6,o),
(131,7,cs),
(149,7,o),
(171,15,o),
(179,30,c),
(199,77,o),
(194,129,o),
(194,179,c),
(191,272,o),
(194,366,o),
(202,459,c),
(265,460,o),
(329,459,o),
(392,455,c),
(391,416,o),
(391,377,o),
(391,338,c),
(400,253,o),
(371,6,o),
(502,7,cs),
(520,7,o),
(542,15,o),
(550,30,c),
(570,78,o),
(565,131,o),
(565,181,cs),
(564,248,o),
(564,315,o),
(567,381,cs),
(569,424,o),
(573,467,o),
(574,511,c),
(575,516,o),
(575,522,o),
(575,528,c)
);
}
);
width = 596;
}
);
leftKerningGroup = B1;
rightKerningGroup = H;
unicode = 8719;
},
{
glyphname = Delta;
layers = (
{
layerId = "75E525D2-6D94-455D-A64D-8DDBA529DB5E";
shapes = (
{
closed = 1;
nodes = (
(28,75,o),
(29,125,o),
(27,162,cs),
(24,234,o),
(24,307,o),
(35,379,cs),
(46,447,o),
(67,514,o),
(108,568,cs),
(131,598,o),
(161,624,o),
(196,638,cs),
(230,652,o),
(268,655,o),
(305,652,cs),
(347,649,o),
(389,639,o),
(424,615,cs),
(480,578,o),
(510,511,o),
(527,445,cs),
(548,367,o),
(554,286,o),
(554,205,cs),
(554,155,o),
(561,94,o),
(541,47,cs),
(529,19,o),
(508,6,o),
(479,4,cs),
(357,-5,o),
(233,-13,o),
(112,4,cs),
(90,7,o),
(71,12,o),
(56,29,cs),
(53,33,o),
(50,37,o),
(48,41,cs)
);
},
{
closed = 1;
nodes = (
(423,132,o),
(412,123,o),
(399,219,cs),
(394,254,o),
(389,289,o),
(382,324,cs),
(373,369,o),
(369,436,o),
(338,472,c),
(238,559,o),
(175,263,o),
(166,200,c),
(163,184,o),
(144,119,o),
(171,121,cs),
(226,126,o),
(280,133,o),
(335,133,cs)
);
}
);
width = 581;
}
);
leftKerningGroup = A1;
rightKerningGroup = A;
unicode = 916;
},
{
glyphname = lozenge;
layers = (
{
layerId = "75E525D2-6D94-455D-A64D-8DDBA529DB5E";
shapes = (
{
closed = 1;
nodes = (
(218,-14,o),
(186,12,o),
(164,42,c),
(119,101,o),
(33,198,o),
(26,272,cs),
(23,308,o),
(40,340,o),
(59,368,c),
(98,428,o),
(140,485,o),
(181,544,cs),
(197,567,o),
(217,588,o),
(236,610,cs),
(248,624,o),
(264,636,o),
(283,639,cs),
(289,640,o),
(294,640,o),
(300,640,c),
(306,640,o),
(311,640,o),
(317,639,cs),
(336,636,o),
(352,624,o),
(364,610,cs),
(383,588,o),
(403,567,o),
(419,544,cs),
(460,485,o),
(502,428,o),
(541,368,c),
(560,340,o),
(577,308,o),
(574,272,cs),
(567,198,o),
(481,101,o),
(436,42,c),
(414,12,o),
(382,-14,o),
(343,-12,c),
(327,-13,o),
(314,-12,o),
(300,-12,cs),
(286,-12,o),
(273,-13,o),
(257,-12,c)
);
},
{
closed = 1;
nodes = (
(336,152,o),
(371,198,o),
(400,249,c),
(406,256,o),
(404,266,o),
(399,273,c),
(367,323,o),
(332,408,o),
(300,459,c),
(268,408,o),
(233,323,o),
(201,273,c),
(196,266,o),
(194,256,o),
(200,249,c),
(229,198,o),
(264,152,o),
(300,107,c)
);
}
);
width = 595;
}
);
unicode = 9674;
},
{
glyphname = hungarumlaut;
layers = (
{
anchors = (
{
name = _top;
position = "{253, 500}";
}
);
layerId = "75E525D2-6D94-455D-A64D-8DDBA529DB5E";
shapes = (
{
closed = 1;
nodes = (
(64,554,o),
(45,561,o),
(32,576,cs),
(0,614,o),
(41,662,o),
(79,673,c),
(95,680,o),
(109,689,o),
(122,701,cs),
(142,718,o),
(170,725,o),
(196,722,c),
(220,718,o),
(239,698,o),
(241,673,cs),
(243,645,o),
(215,611,o),
(195,593,c),
(164,568,o),
(124,551,o),
(84,553,cs)
);
},
{
closed = 1;
nodes = (
(326,554,o),
(307,561,o),
(294,576,cs),
(262,614,o),
(303,662,o),
(341,673,c),
(357,680,o),
(371,689,o),
(384,701,cs),
(404,718,o),
(432,725,o),
(458,722,c),
(482,718,o),
(501,698,o),
(503,673,cs),
(505,645,o),
(477,611,o),
(457,593,c),
(426,568,o),
(386,551,o),
(346,553,cs)
);
}
);
width = 526;
}
);
unicode = 733;
},
{
glyphname = quotesinglbase;
layers = (
{
layerId = "75E525D2-6D94-455D-A64D-8DDBA529DB5E";
shapes = (
{
closed = 1;
nodes = (
(52,-4,o),
(75,18,o),
(58,32,c),
(27,51,o),
(8,95,o),
(31,127,c),
(51,158,o),
(96,163,o),
(129,151,cs),
(188,129,o),
(227,71,o),
(199,9,cs),
(184,-26,o),
(139,-76,o),
(97,-68,cs),
(75,-64,o),
(54,-46,o),
(53,-22,cs)
);
}
);
width = 229;
}
);
unicode = 8218;
},
{
glyphname = quotedblbase;
layers = (
{
layerId = "75E525D2-6D94-455D-A64D-8DDBA529DB5E";
shapes = (
{
closed = 1;
nodes = (
(52,-4,o),
(75,18,o),
(58,32,c),
(27,51,o),
(8,95,o),
(31,127,c),
(51,158,o),
(96,163,o),
(129,151,cs),
(188,129,o),
(227,71,o),
(199,9,cs),
(184,-26,o),
(139,-76,o),
(97,-68,cs),
(75,-64,o),
(54,-46,o),
(53,-22,cs)
);
},
{
closed = 1;
nodes = (
(252,-4,o),
(275,18,o),
(258,32,c),
(227,51,o),
(208,95,o),
(231,127,c),
(251,158,o),
(296,163,o),
(329,151,cs),
(388,129,o),
(427,71,o),
(399,9,cs),
(384,-26,o),
(339,-76,o),
(297,-68,cs),
(275,-64,o),
(254,-46,o),
(253,-22,cs)
);
}
);
width = 429;
}
);
unicode = 8222;
},
{
glyphname = quoteright;
layers = (
{
anchors = (
{
name = _top;
position = "{96, 500}";
},
{
name = left;
position = "{0, 302}";
}
);
layerId = "75E525D2-6D94-455D-A64D-8DDBA529DB5E";
shapes = (
{
closed = 1;
nodes = (
(52,555,o),
(75,577,o),
(58,591,c),
(27,610,o),
(8,654,o),
(31,686,c),
(51,717,o),
(96,722,o),
(129,710,cs),
(188,688,o),
(227,630,o),
(199,568,cs),
(184,533,o),
(139,483,o),
(97,491,cs),
(75,495,o),
(54,513,o),
(53,537,cs)
);
}
);
width = 245;
}
);
unicode = 8217;
},
{
glyphname = quoteleft;
layers = (
{
anchors = (
{
name = _top;
position = "{131, 500}";
},
{
name = left;
position = "{0, 302}";
}
);
layerId = "75E525D2-6D94-455D-A64D-8DDBA529DB5E";
shapes = (
{
closed = 1;
nodes = (
(193,651,o),
(170,629,o),
(187,615,c),
(218,596,o),
(237,552,o),
(214,520,c),
(194,489,o),
(149,484,o),
(116,496,cs),
(57,518,o),
(18,576,o),
(46,638,cs),
(61,673,o),
(106,723,o),
(148,715,cs),
(170,711,o),
(191,693,o),
(192,669,cs)
);
}
);
width = 245;
}
);
unicode = 8216;
},
{
glyphname = quotedblright;
layers = (
{
layerId = "75E525D2-6D94-455D-A64D-8DDBA529DB5E";
shapes = (
{
closed = 1;
nodes = (
(52,555,o),
(75,577,o),
(58,591,c),
(27,610,o),
(8,654,o),
(31,686,c),
(51,717,o),
(96,722,o),
(129,710,cs),
(188,688,o),
(227,630,o),
(199,568,cs),
(184,533,o),
(139,483,o),
(97,491,cs),
(75,495,o),
(54,513,o),
(53,537,cs)
);
},
{
closed = 1;
nodes = (
(252,555,o),
(275,577,o),
(258,591,c),
(227,610,o),
(208,654,o),
(231,686,c),
(251,717,o),
(296,722,o),
(329,710,cs),
(388,688,o),
(427,630,o),
(399,568,cs),
(384,533,o),
(339,483,o),
(297,491,cs),
(275,495,o),
(254,513,o),
(253,537,cs)
);
}
);
width = 245;
}
);
unicode = 8221;
},
{
glyphname = quotedblleft;
layers = (
{
layerId = "75E525D2-6D94-455D-A64D-8DDBA529DB5E";
shapes = (
{
closed = 1;
nodes = (
(193,651,o),
(170,629,o),
(187,615,c),
(218,596,o),
(237,552,o),
(214,520,c),
(194,489,o),
(149,484,o),
(116,496,cs),
(57,518,o),
(18,576,o),
(46,638,cs),
(61,673,o),
(106,723,o),
(148,715,cs),
(170,711,o),
(191,693,o),
(192,669,cs)
);
},
{
closed = 1;
nodes = (
(393,651,o),
(370,629,o),
(387,615,c),
(418,596,o),
(437,552,o),
(414,520,c),
(394,489,o),
(349,484,o),
(316,496,cs),
(257,518,o),
(218,576,o),
(246,638,cs),
(261,673,o),
(306,723,o),
(348,715,cs),
(370,711,o),
(391,693,o),
(392,669,cs)
);
}
);
width = 245;
}
);
unicode = 8220;
},
{
glyphname = dagger;
layers = (
{
layerId = "75E525D2-6D94-455D-A64D-8DDBA529DB5E";
shapes = (
{
closed = 1;
nodes = (
(209,367,o),
(157,367,o),
(106,376,c),
(76,383,o),
(44,397,o),
(28,424,cs),
(17,443,o),
(17,469,o),
(33,484,c),
(69,519,o),
(124,516,o),
(170,519,c),
(201,519,o),
(232,520,o),
(263,520,c),
(288,522,o),
(313,521,o),
(337,513,c),
(401,498,o),
(440,412,o),
(368,377,c),
(335,362,o),
(297,368,o),
(261,367,c)
);
},
{
closed = 1;
nodes = (
(100,6,o),
(129,269,o),
(120,359,c),
(120,414,o),
(120,468,o),
(123,522,cs),
(125,548,o),
(121,576,o),
(135,599,c),
(173,653,o),
(262,636,o),
(294,583,c),
(311,559,o),
(304,529,o),
(302,503,cs),
(294,400,o),
(291,296,o),
(294,193,c),
(294,139,o),
(299,83,o),
(279,32,c),
(271,16,o),
(249,7,o),
(231,7,cs)
);
}
);
width = 427;
}
);
unicode = 8224;
},
{
glyphname = daggerdbl;
layers = (
{
layerId = "75E525D2-6D94-455D-A64D-8DDBA529DB5E";
shapes = (
{
closed = 1;
nodes = (
(209,367,o),
(157,367,o),
(106,376,c),
(76,383,o),
(44,397,o),
(28,424,cs),
(17,443,o),
(17,469,o),
(33,484,c),
(69,519,o),
(124,516,o),
(170,519,c),
(201,519,o),
(232,520,o),
(263,520,c),
(288,522,o),
(313,521,o),
(337,513,c),
(401,498,o),
(440,412,o),
(368,377,c),
(335,362,o),
(297,368,o),
(261,367,c)
);
},
{
closed = 1;
nodes = (
(100,6,o),
(129,269,o),
(120,359,c),
(120,414,o),
(120,468,o),
(123,522,cs),
(125,548,o),
(121,576,o),
(135,599,c),
(173,653,o),
(262,636,o),
(294,583,c),
(311,559,o),
(304,529,o),
(302,503,cs),
(294,400,o),
(291,296,o),
(294,193,c),
(294,139,o),
(299,83,o),
(279,32,c),
(271,16,o),
(249,7,o),
(231,7,cs)
);
},
{
closed = 1;
nodes = (
(209,147,o),
(157,147,o),
(106,156,c),
(76,163,o),
(44,177,o),
(28,204,cs),
(17,223,o),
(17,249,o),
(33,264,c),
(69,299,o),
(124,296,o),
(170,299,c),
(201,299,o),
(232,300,o),
(263,300,c),
(288,302,o),
(313,301,o),
(337,293,c),
(401,278,o),
(440,192,o),
(368,157,c),
(335,142,o),
(297,148,o),
(261,147,c)
);
}
);
width = 427;
}
);
unicode = 8225;
},
{
glyphname = pi;
layers = (
{
layerId = "75E525D2-6D94-455D-A64D-8DDBA529DB5E";
shapes = (
{
closed = 1;
nodes = (
(38,6,o),
(67,269,o),
(58,359,c),
(57,414,o),
(58,468,o),
(60,522,c),
(63,548,o),
(59,576,o),
(73,599,c),
(111,653,o),
(200,636,o),
(231,583,c),
(249,559,o),
(241,529,o),
(240,503,c),
(231,400,o),
(229,296,o),
(231,193,cs),
(232,139,o),
(237,83,o),
(217,32,c),
(208,16,o),
(187,7,o),
(169,7,cs)
);
},
{
closed = 1;
nodes = (
(532,5,o),
(523,8,o),
(514,12,cs),
(453,38,o),
(443,95,o),
(437,154,cs),
(429,218,o),
(435,282,o),
(429,346,c),
(428,400,o),
(429,455,o),
(431,509,c),
(434,534,o),
(430,563,o),
(444,586,c),
(482,640,o),
(571,622,o),
(602,570,c),
(620,546,o),
(612,516,o),
(611,489,c),
(606,414,o),
(602,340,o),
(601,265,cs),
(601,201,o),
(593,132,o),
(657,95,c),
(669,89,o),
(683,83,o),
(688,70,cs),
(692,61,o),
(689,49,o),
(682,41,c),
(676,32,o),
(667,27,o),
(657,22,cs),
(622,4,o),
(580,-5,o),
(542,3,cs)
);
},
{
closed = 1;
nodes = (
(20,688,o),
(287,655,o),
(378,666,c),
(433,666,o),
(488,666,o),
(543,663,c),
(569,660,o),
(598,665,o),
(621,649,c),
(676,605,o),
(658,503,o),
(605,466,c),
(581,447,o),
(551,455,o),
(523,457,cs),
(419,467,o),
(314,470,o),
(209,467,cs),
(155,466,o),
(98,461,o),
(47,483,c),
(30,493,o),
(21,518,o),
(21,538,cs)
);
}
);
width = 710;
}
);
leftKerningGroup = B1;
rightKerningGroup = H;
unicode = 960;
},
{
glyphname = multiply;
layers = (
{
layerId = "75E525D2-6D94-455D-A64D-8DDBA529DB5E";
shapes = (
{
closed = 1;
nodes = (
(340,87,o),
(298,127,o),
(270,153,cs),
(254,168,o),
(238,185,o),
(223,202,c),
(221,206,o),
(219,201,o),
(217,199,cs),
(195,169,o),
(173,139,o),
(151,108,c),
(139,90,o),
(115,83,o),
(94,83,cs),
(55,84,o),
(8,117,o),
(11,160,cs),
(13,179,o),
(26,192,o),
(36,206,cs),
(56,234,o),
(76,260,o),
(96,288,cs),
(106,301,o),
(117,314,o),
(127,328,cs),
(129,331,o),
(130,331,o),
(128,334,cs),
(107,368,o),
(86,402,o),
(65,436,cs),
(53,456,o),
(39,480,o),
(34,503,cs),
(28,528,o),
(42,549,o),
(65,559,cs),
(77,565,o),
(91,565,o),
(104,563,cs),
(121,561,o),
(135,554,o),
(147,543,c),
(169,520,o),
(187,495,o),
(203,468,c),
(205,466,o),
(216,442,o),
(219,445,cs),
(237,469,o),
(257,492,o),
(277,514,c),
(294,530,o),
(310,548,o),
(331,557,cs),
(365,571,o),
(409,557,o),
(424,524,cs),
(441,486,o),
(408,453,o),
(389,423,c),
(365,388,o),
(336,354,o),
(310,320,c),
(307,316,o),
(301,313,o),
(305,309,c),
(334,270,o),
(367,234,o),
(404,203,c),
(414,196,o),
(424,189,o),
(432,179,cs),
(451,155,o),
(452,121,o),
(428,101,cs),
(414,89,o),
(398,84,o),
(383,85,cs)
);
}
);
width = 457;
}
);
unicode = 215;
},
{
glyphname = divide;
layers = (
{
layerId = "75E525D2-6D94-455D-A64D-8DDBA529DB5E";
shapes = (
{
closed = 1;
nodes = (
(358,440,o),
(318,400,o),
(269,400,cs),
(220,400,o),
(180,440,o),
(180,489,cs),
(180,538,o),
(220,578,o),
(269,578,cs),
(318,578,o),
(358,538,o),
(358,489,cs)
);
},
{
closed = 1;
nodes = (
(358,90,o),
(318,50,o),
(269,50,cs),
(220,50,o),
(180,90,o),
(180,139,cs),
(180,188,o),
(220,228,o),
(269,228,cs),
(318,228,o),
(358,188,o),
(358,139,cs)
);
},
{
closed = 1;
nodes = (
(314,237,o),
(162,237,o),
(111,246,c),
(81,253,o),
(49,267,o),
(33,294,cs),
(22,313,o),
(22,339,o),
(38,354,cs),
(74,389,o),
(229,386,o),
(275,389,c),
(306,389,o),
(337,390,o),
(368,390,c),
(393,392,o),
(418,391,o),
(442,383,c),
(506,368,o),
(545,282,o),
(473,247,c),
(440,232,o),
(402,238,o),
(366,237,c)
);
}
);
width = 537;
}
);
unicode = 247;
},
{
glyphname = thorn;
layers = (
{
layerId = "75E525D2-6D94-455D-A64D-8DDBA529DB5E";
shapes = (
{
closed = 1;
nodes = (
(458,452,o),
(320,521,o),
(203,513,c),
(205,537,o),
(209,562,o),
(194,583,c),
(162,636,o),
(73,653,o),
(35,599,c),
(21,576,o),
(25,548,o),
(23,522,cs),
(20,468,o),
(20,414,o),
(20,359,c),
(29,269,o),
(0,6,o),
(131,7,cs),
(149,7,o),
(171,16,o),
(179,32,c),
(188,55,o),
(192,79,o),
(194,103,c),
(196,103,o),
(198,102,o),
(201,102,c),
(275,92,o),
(354,118,o),
(407,170,c),
(449,209,o),
(472,267,o),
(468,324,cs)
);
},
{
closed = 1;
nodes = (
(235,249,o),
(214,242,o),
(193,235,c),
(192,285,o),
(193,335,o),
(195,386,c),
(228,384,o),
(265,378,o),
(286,351,c),
(299,319,o),
(281,281,o),
(253,263,c)
);
}
);
width = 494;
}
);
leftKerningGroup = B1;
rightKerningGroup = B;
unicode = 254;
},
{
glyphname = onequarter;
layers = (
{
guides = (
{
position = "{0, -11}";
}
);
layerId = "75E525D2-6D94-455D-A64D-8DDBA529DB5E";
shapes = (
{
closed = 1;
nodes = (
(189,657,o),
(169,668,o),
(147,664,cs),
(135,662,o),
(128,656,o),
(118,649,c),
(94,631,o),
(68,615,o),
(45,594,cs),
(38,587,o),
(28,583,o),
(24,574,c),
(11,548,o),
(42,521,o),
(67,522,c),
(78,521,o),
(88,526,o),
(96,533,cs),
(101,538,o),
(107,543,o),
(112,547,c),
(112,539,o),
(112,532,o),
(112,524,c),
(117,477,o),
(102,342,o),
(170,342,cs),
(179,342,o),
(190,347,o),
(194,355,c),
(205,381,o),
(202,410,o),
(202,438,c),
(201,491,o),
(202,545,o),
(206,598,cs),
(207,612,o),
(211,627,o),
(202,640,cs)
);
},
{
closed = 1;
nodes = (
(398,659,o),
(363,636,o),
(344,605,c),
(320,563,o),
(298,520,o),
(276,476,cs),
(212,347,o),
(149,217,o),
(90,86,c),
(54,16,o),
(123,-31,o),
(187,-2,c),
(207,8,o),
(226,23,o),
(236,43,cs),
(249,70,o),
(261,98,o),
(274,125,c),
(340,273,o),
(415,416,o),
(487,561,c),
(512,605,o),
(490,663,o),
(435,660,c)
);
},
{
closed = 1;
nodes = (
(489,-12,o),
(504,123,o),
(500,169,c),
(499,198,o),
(500,225,o),
(501,253,c),
(502,267,o),
(500,281,o),
(507,293,c),
(527,321,o),
(573,312,o),
(589,285,c),
(598,272,o),
(593,257,o),
(593,243,c),
(589,191,o),
(588,137,o),
(589,85,cs),
(589,57,o),
(591,28,o),
(581,2,c),
(577,-7,o),
(566,-11,o),
(557,-11,cs)
);
},
{
closed = 1;
nodes = (
(404,87,o),
(366,100,o),
(352,132,c),
(340,154,o),
(348,180,o),
(356,202,cs),
(367,229,o),
(382,255,o),
(398,280,c),
(403,287,o),
(410,296,o),
(418,301,c),
(431,308,o),
(447,309,o),
(461,302,cs),
(471,297,o),
(479,288,o),
(483,277,cs),
(488,263,o),
(481,247,o),
(475,233,c),
(468,212,o),
(460,192,o),
(454,172,c),
(454,170,o),
(454,170,o),
(454,170,cs),
(459,170,o),
(462,172,o),
(468,172,c),
(480,173,o),
(491,174,o),
(504,176,c),
(518,178,o),
(533,180,o),
(547,175,cs),
(563,170,o),
(578,155,o),
(579,138,c),
(579,128,o),
(575,117,o),
(566,111,cs),
(548,100,o),
(527,101,o),
(506,96,c),
(484,94,o),
(460,91,o),
(437,89,cs)
);
}
);
width = 615;
}
);
unicode = 188;
},
{
glyphname = onehalf;
layers = (
{
guides = (
{
position = "{0, -11}";
}
);
layerId = "75E525D2-6D94-455D-A64D-8DDBA529DB5E";
shapes = (
{
closed = 1;
nodes = (
(189,657,o),
(169,668,o),
(147,664,cs),
(135,662,o),
(128,656,o),
(118,649,c),
(94,631,o),
(68,615,o),
(45,594,cs),
(38,587,o),
(28,583,o),
(24,574,c),
(11,548,o),
(42,521,o),
(67,522,c),
(78,521,o),
(88,526,o),
(96,533,cs),
(101,538,o),
(107,543,o),
(112,547,c),
(112,539,o),
(112,532,o),
(112,524,c),
(117,477,o),
(102,342,o),
(170,342,cs),
(179,342,o),
(190,347,o),
(194,355,c),
(205,381,o),
(202,410,o),
(202,438,c),
(201,491,o),
(202,545,o),
(206,598,cs),
(207,612,o),
(211,627,o),
(202,640,cs)
);
},
{
closed = 1;
nodes = (
(398,659,o),
(363,636,o),
(344,605,c),
(320,563,o),
(298,520,o),
(276,476,cs),
(212,347,o),
(149,217,o),
(90,86,c),
(54,16,o),
(123,-31,o),
(187,-2,c),
(207,8,o),
(226,23,o),
(236,43,cs),
(249,70,o),
(261,98,o),
(274,125,c),
(340,273,o),
(415,416,o),
(487,561,c),
(512,605,o),
(490,663,o),
(435,660,c)
);
},
{
closed = 1;
nodes = (
(434,-13,o),
(412,-11,o),
(391,-6,c),
(373,0,o),
(356,17,o),
(358,38,c),
(358,48,o),
(365,55,o),
(373,61,c),
(390,76,o),
(407,90,o),
(422,106,cs),
(440,126,o),
(458,149,o),
(466,176,cs),
(468,185,o),
(471,201,o),
(459,203,c),
(451,204,o),
(442,200,o),
(436,195,cs),
(420,181,o),
(423,157,o),
(408,142,cs),
(385,120,o),
(351,147,o),
(346,172,cs),
(342,197,o),
(353,223,o),
(369,241,c),
(412,288,o),
(490,284,o),
(532,238,cs),
(582,185,o),
(549,119,o),
(510,71,cs),
(506,67,o),
(502,63,o),
(499,59,c),
(507,59,o),
(516,61,o),
(525,62,cs),
(548,65,o),
(577,46,o),
(574,21,cs),
(573,13,o),
(569,6,o),
(562,2,cs),
(554,-4,o),
(544,-3,o),
(534,-5,cs),
(508,-9,o),
(482,-13,o),
(456,-12,c)
);
}
);
width = 595;
}
);
unicode = 189;
},
{
glyphname = threequarters;
layers = (
{
guides = (
{
position = "{0, -11}";
}
);
layerId = "75E525D2-6D94-455D-A64D-8DDBA529DB5E";
shapes = (
{
closed = 1;
nodes = (
(423,659,o),
(388,636,o),
(369,605,c),
(345,563,o),
(323,520,o),
(301,476,cs),
(237,347,o),
(174,217,o),
(115,86,c),
(79,16,o),
(148,-31,o),
(212,-2,c),
(232,8,o),
(251,23,o),
(261,43,cs),
(274,70,o),
(286,98,o),
(299,125,c),
(365,273,o),
(440,416,o),
(512,561,c),
(537,605,o),
(515,663,o),
(460,660,c)
);
},
{
closed = 1;
nodes = (
(514,-12,o),
(529,123,o),
(525,169,c),
(524,198,o),
(525,225,o),
(526,253,c),
(527,267,o),
(525,281,o),
(532,293,c),
(552,321,o),
(598,312,o),
(614,285,c),
(623,272,o),
(618,257,o),
(618,243,c),
(614,191,o),
(613,137,o),
(614,85,cs),
(614,57,o),
(616,28,o),
(606,2,c),
(602,-7,o),
(591,-11,o),
(582,-11,cs)
);
},
{
closed = 1;
nodes = (
(429,87,o),
(391,100,o),
(377,132,c),
(365,154,o),
(373,180,o),
(381,202,cs),
(392,229,o),
(407,255,o),
(423,280,c),
(428,287,o),
(435,296,o),
(443,301,c),
(456,308,o),
(472,309,o),
(486,302,cs),
(496,297,o),
(504,288,o),
(508,277,cs),
(513,263,o),
(506,247,o),
(500,233,c),
(493,212,o),
(485,192,o),
(479,172,c),
(479,170,o),
(479,170,o),
(479,170,cs),
(484,170,o),
(487,172,o),
(493,172,c),
(505,173,o),
(516,174,o),
(529,176,c),
(543,178,o),
(558,180,o),
(572,175,cs),
(588,170,o),
(603,155,o),
(604,138,c),
(604,128,o),
(600,117,o),
(591,111,cs),
(573,100,o),
(552,101,o),
(531,96,c),
(509,94,o),
(485,91,o),
(462,89,cs)
);
},
{
closed = 1;
nodes = (
(195,673,o),
(250,622,o),
(230,556,cs),
(227,544,o),
(221,534,o),
(214,524,c),
(213,524,o),
(213,524,o),
(214,523,cs),
(253,490,o),
(259,431,o),
(224,393,cs),
(179,344,o),
(96,349,o),
(50,393,c),
(32,411,o),
(15,436,o),
(22,462,c),
(27,479,o),
(46,486,o),
(62,484,cs),
(74,482,o),
(84,477,o),
(93,469,c),
(97,466,o),
(100,463,o),
(103,458,c),
(109,452,o),
(115,443,o),
(125,442,c),
(135,442,o),
(145,448,o),
(148,458,cs),
(149,462,o),
(150,467,o),
(146,470,cs),
(143,472,o),
(139,473,o),
(134,474,cs),
(128,476,o),
(122,478,o),
(116,482,cs),
(106,487,o),
(99,496,o),
(96,506,cs),
(94,512,o),
(94,518,o),
(96,523,c),
(98,528,o),
(99,533,o),
(101,537,cs),
(111,554,o),
(127,564,o),
(137,580,c),
(140,585,o),
(143,590,o),
(142,595,c),
(143,599,o),
(136,597,o),
(134,597,cs),
(125,598,o),
(110,591,o),
(102,587,c),
(91,584,o),
(80,580,o),
(69,581,cs),
(52,582,o),
(32,595,o),
(33,615,cs),
(34,635,o),
(57,650,o),
(73,658,cs),
(92,667,o),
(112,673,o),
(132,673,cs)
);
}
);
width = 640;
}
);
unicode = 190;
},
{
glyphname = questiondown;
layers = (
{
layerId = "75E525D2-6D94-455D-A64D-8DDBA529DB5E";
shapes = (
{
closed = 1;
nodes = (
(217,-2,o),
(163,8,o),
(116,34,cs),
(37,77,o),
(-11,172,o),
(43,254,cs),
(62,283,o),
(90,306,o),
(119,324,c),
(149,341,o),
(181,354,o),
(208,375,cs),
(218,383,o),
(226,393,o),
(232,404,cs),
(240,419,o),
(247,434,o),
(263,443,c),
(304,470,o),
(365,445,o),
(387,403,c),
(414,357,o),
(398,298,o),
(365,259,c),
(348,243,o),
(329,229,o),
(309,217,c),
(303,213,o),
(199,165,o),
(233,162,c),
(267,157,o),
(303,160,o),
(336,170,c),
(363,179,o),
(389,192,o),
(418,191,cs),
(465,189,o),
(518,151,o),
(510,100,cs),
(504,61,o),
(464,46,o),
(433,31,c),
(382,9,o),
(326,-2,o),
(270,0,c)
);
},
{
closed = 1;
nodes = (
(224,603,o),
(264,643,o),
(313,643,cs),
(362,643,o),
(402,603,o),
(402,554,cs),
(402,505,o),
(362,465,o),
(313,465,cs),
(264,465,o),
(224,505,o),
(224,554,cs)
);
}
);
width = 536;
}
);
unicode = 191;
},
{
glyphname = a;
layers = (
{
anchors = (
{
name = top;
position = "{291, 669}";
},
{
name = bottom;
position = "{439, 42}";
}
);
layerId = "75E525D2-6D94-455D-A64D-8DDBA529DB5E";
shapes = (
{
closed = 1;
nodes = (
(554,288,o),
(549,376,o),
(525,460,cs),
(510,510,o),
(488,560,o),
(449,596,cs),
(431,613,o),
(409,627,o),
(385,635,c),
(353,647,o),
(324,651,o),
(291,653,cs),
(255,655,o),
(225,650,o),
(190,636,c),
(17,547,o),
(18,286,o),
(31,117,c),
(35,91,o),
(33,63,o),
(50,42,c),
(80,-1,o),
(146,-16,o),
(190,13,c),
(221,37,o),
(217,66,o),
(210,101,c),
(211,108,o),
(202,137,o),
(211,138,c),
(259,137,o),
(306,134,o),
(354,134,c),
(361,132,o),
(357,121,o),
(357,116,c),
(338,33,o),
(439,-34,o),
(510,7,cs),
(565,38,o),
(552,121,o),
(556,177,c),
(556,177,o),
(556,201,o),
(556,201,c)
);
},
{
closed = 1;
nodes = (
(282,300,o),
(249,296,o),
(216,293,cs),
(199,292,o),
(211,332,o),
(212,341,cs),
(218,379,o),
(256,559,o),
(317,506,c),
(336,485,o),
(338,444,o),
(344,417,cs),
(348,396,o),
(351,374,o),
(354,353,cs),
(362,294,o),
(369,300,o),
(315,300,cs)
);
}
);
width = 581;
}
);
leftKerningGroup = A1;
rightKerningGroup = A;
unicode = 97;
},
{
glyphname = b;
layers = (
{
layerId = "75E525D2-6D94-455D-A64D-8DDBA529DB5E";
shapes = (
{
closed = 1;
nodes = (
(392,299,o),
(388,302,o),
(392,305,cs),
(430,339,o),
(453,388,o),
(457,439,cs),
(466,559,o),
(352,644,o),
(243,653,cs),
(185,658,o),
(106,655,o),
(55,620,cs),
(21,596,o),
(26,559,o),
(23,522,cs),
(20,468,o),
(20,414,o),
(20,359,c),
(29,269,o),
(1,0,o),
(130,1,c),
(260,-29,o),
(480,-27,o),
(483,148,c),
(480,210,o),
(444,263,o),
(395,297,cs)
);
},
{
closed = 1;
nodes = (
(290,484,o),
(285,454,o),
(275,434,cs),
(259,404,o),
(226,390,o),
(195,379,c),
(196,420,o),
(199,461,o),
(202,503,cs),
(203,510,o),
(203,517,o),
(204,524,c),
(228,522,o),
(252,515,o),
(271,500,cs)
);
},
{
closed = 1;
nodes = (
(273,122,o),
(233,115,o),
(194,116,c),
(195,141,o),
(194,167,o),
(194,193,c),
(193,200,o),
(193,208,o),
(193,215,c),
(225,211,o),
(257,214,o),
(287,203,cs),
(312,193,o),
(335,164,o),
(307,141,c)
);
}
);
width = 508;
}
);
leftKerningGroup = B1;
rightKerningGroup = B;
unicode = 98;
},
{
glyphname = c;
layers = (
{
anchors = (
{
name = top;
position = "{320, 669}";
},
{
name = bottom;
position = "{325, 39}";
}
);
layerId = "75E525D2-6D94-455D-A64D-8DDBA529DB5E";
shapes = (
{
closed = 1;
nodes = (
(17,509,o),
(238,715,o),
(445,623,cs),
(671,524,o),
(530,260,o),
(393,459,c),
(389,467,o),
(383,474,o),
(376,479,c),
(351,483,o),
(327,468,o),
(308,454,cs),
(243,405,o),
(204,314,o),
(231,234,c),
(246,183,o),
(297,145,o),
(346,182,c),
(363,193,o),
(370,213,o),
(384,227,c),
(412,252,o),
(456,254,o),
(490,240,cs),
(516,229,o),
(532,217,o),
(548,193,cs),
(562,170,o),
(562,137,o),
(546,115,cs),
(538,104,o),
(531,92,o),
(521,83,c),
(490,50,o),
(450,25,o),
(406,12,cs),
(304,-18,o),
(190,19,o),
(116,93,cs),
(60,147,o),
(31,223,o),
(26,300,c)
);
}
);
width = 590;
}
);
leftKerningGroup = C2;
rightKerningGroup = C;
unicode = 99;
},
{
glyphname = d;
layers = (
{
anchors = (
{
name = top;
position = "{281, 674}";
},
{
name = left;
position = "{24, 325}";
}
);
layerId = "75E525D2-6D94-455D-A64D-8DDBA529DB5E";
shapes = (
{
closed = 1;
nodes = (
(277,639,o),
(203,652,o),
(127,649,cs),
(86,648,o),
(44,635,o),
(31,592,cs),
(24,570,o),
(24,545,o),
(23,522,cs),
(20,468,o),
(20,414,o),
(20,359,c),
(26,304,o),
(22,249,o),
(26,193,cs),
(30,137,o),
(34,60,o),
(83,23,c),
(109,2,o),
(144,-1,o),
(176,0,cs),
(311,1,o),
(464,58,o),
(517,191,cs),
(584,358,o),
(514,539,o),
(347,609,cs)
);
},
{
closed = 1;
nodes = (
(285,187,o),
(242,165,o),
(194,154,c),
(194,167,o),
(194,180,o),
(194,193,c),
(191,296,o),
(194,400,o),
(202,503,c),
(202,503,o),
(202,504,o),
(202,505,c),
(234,496,o),
(263,483,o),
(290,463,c),
(359,409,o),
(360,301,o),
(313,232,c)
);
}
);
width = 568;
}
);
leftKerningGroup = B1;
rightKerningGroup = C;
unicode = 100;
},
{
glyphname = e;
layers = (
{
anchors = (
{
name = top;
position = "{243, 669}";
},
{
name = bottom;
position = "{361, 42}";
}
);
layerId = "75E525D2-6D94-455D-A64D-8DDBA529DB5E";
shapes = (
{
closed = 1;
nodes = (
(279,176,o),
(237,169,o),
(194,160,c),
(194,171,o),
(194,182,o),
(194,193,c),
(193,214,o),
(193,235,o),
(193,256,c),
(209,255,o),
(225,255,o),
(242,255,c),
(275,254,o),
(309,257,o),
(342,261,cs),
(372,265,o),
(405,283,o),
(412,314,c),
(418,336,o),
(412,358,o),
(400,376,c),
(389,397,o),
(369,409,o),
(348,418,c),
(319,433,o),
(287,426,o),
(257,423,c),
(237,422,o),
(217,420,o),
(197,417,c),
(198,442,o),
(199,467,o),
(201,492,c),
(261,487,o),
(321,487,o),
(381,484,c),
(481,487,o),
(495,590,o),
(413,636,cs),
(370,660,o),
(320,650,o),
(274,650,cs),
(233,650,o),
(191,651,o),
(150,646,cs),
(112,642,o),
(59,633,o),
(35,599,c),
(21,576,o),
(25,548,o),
(23,522,cs),
(20,468,o),
(20,414,o),
(20,359,cs),
(21,316,o),
(22,271,o),
(24,228,cs),
(26,177,o),
(29,124,o),
(47,77,cs),
(62,36,o),
(86,12,o),
(130,6,cs),
(195,-4,o),
(262,-3,o),
(327,11,cs),
(371,20,o),
(434,21,o),
(459,67,cs),
(471,89,o),
(468,117,o),
(455,138,cs),
(428,182,o),
(370,203,o),
(321,188,cs)
);
}
);
width = 492;
}
);
leftKerningGroup = B1;
rightKerningGroup = H;
unicode = 101;
},
{
glyphname = f;
layers = (
{
layerId = "75E525D2-6D94-455D-A64D-8DDBA529DB5E";
shapes = (
{
closed = 1;
nodes = (
(407,647,o),
(367,654,o),
(327,651,c),
(327,653,o),
(184,648,o),
(170,647,c),
(127,643,o),
(63,638,o),
(35,599,c),
(21,576,o),
(25,548,o),
(23,522,c),
(20,468,o),
(20,414,o),
(20,359,c),
(29,269,o),
(0,6,o),
(131,7,cs),
(149,7,o),
(171,16,o),
(179,32,c),
(199,83,o),
(194,139,o),
(194,193,c),
(193,214,o),
(193,235,o),
(193,256,c),
(209,255,o),
(226,255,o),
(242,255,c),
(275,254,o),
(308,257,o),
(341,261,c),
(372,264,o),
(406,283,o),
(412,316,c),
(426,372,o),
(370,420,o),
(318,427,c),
(287,430,o),
(257,422,o),
(226,421,c),
(216,420,o),
(206,419,o),
(197,417,c),
(198,442,o),
(199,468,o),
(201,493,c),
(203,493,l),
(235,489,o),
(267,488,o),
(300,487,c),
(318,486,o),
(336,485,o),
(353,485,c),
(381,483,o),
(406,482,o),
(431,497,c),
(479,521,o),
(475,587,o),
(437,618,c)
);
}
);
width = 492;
}
);
leftKerningGroup = B1;
rightKerningGroup = F;
unicode = 102;
},
{
glyphname = g;
layers = (
{
anchors = (
{
name = top;
position = "{326, 669}";
},
{
name = bottom;
position = "{328, -7}";
}
);
layerId = "75E525D2-6D94-455D-A64D-8DDBA529DB5E";
shapes = (
{
closed = 1;
nodes = (
(483,343,o),
(429,357,o),
(381,368,cs),
(342,376,o),
(294,378,o),
(269,339,c),
(269,339,o),
(269,338,o),
(269,338,c),
(248,304,o),
(267,261,o),
(296,239,cs),
(312,227,o),
(330,222,o),
(347,213,cs),
(351,211,o),
(366,209,o),
(368,206,c),
(362,197,o),
(355,188,o),
(346,182,cs),
(297,145,o),
(246,183,o),
(231,234,c),
(204,314,o),
(243,405,o),
(308,454,cs),
(327,468,o),
(351,483,o),
(376,479,c),
(383,474,o),
(389,467,o),
(393,459,c),
(530,260,o),
(671,524,o),
(445,623,cs),
(238,715,o),
(17,509,o),
(26,300,cs),
(31,223,o),
(60,147,o),
(116,93,cs),
(190,19,o),
(304,-18,o),
(406,12,cs),
(489,37,o),
(565,109,o),
(575,199,cs),
(579,243,o),
(556,286,o),
(522,313,cs)
);
}
);
width = 601;
}
);
leftKerningGroup = C2;
rightKerningGroup = C;
unicode = 103;
},
{
glyphname = h;
layers = (
{
anchors = (
{
name = top;
position = "{304, 625}";
},
{
name = bottom;
position = "{309, 42}";
}
);
layerId = "75E525D2-6D94-455D-A64D-8DDBA529DB5E";
shapes = (
{
closed = 1;
nodes = (
(533,636,o),
(444,653,o),
(406,599,c),
(392,576,o),
(396,548,o),
(394,522,cs),
(392,486,o),
(391,450,o),
(391,414,c),
(391,414,o),
(391,414,o),
(390,414,cs),
(339,414,o),
(288,411,o),
(237,404,cs),
(223,402,o),
(209,399,o),
(196,396,c),
(197,432,o),
(199,467,o),
(202,503,cs),
(204,529,o),
(211,559,o),
(194,583,c),
(162,636,o),
(73,653,o),
(35,599,c),
(21,576,o),
(25,548,o),
(23,522,cs),
(20,468,o),
(20,414,o),
(20,359,c),
(29,269,o),
(0,6,o),
(131,7,cs),
(149,7,o),
(171,16,o),
(179,32,c),
(199,83,o),
(194,139,o),
(194,193,c),
(193,207,o),
(193,221,o),
(193,235,c),
(260,236,o),
(327,244,o),
(394,247,c),
(397,138,o),
(410,6,o),
(502,7,cs),
(520,7,o),
(542,16,o),
(550,32,c),
(570,83,o),
(565,139,o),
(565,193,c),
(562,296,o),
(565,400,o),
(573,503,cs),
(575,529,o),
(582,559,o),
(565,583,c)
);
}
);
width = 597;
}
);
leftKerningGroup = B1;
rightKerningGroup = H;
unicode = 104;
},
{
glyphname = i;
layers = (
{
anchors = (
{
name = top;
position = "{113, 669}";
},
{
name = bottom;
position = "{123, 42}";
}
);
layerId = "75E525D2-6D94-455D-A64D-8DDBA529DB5E";
shapes = (
{
closed = 1;
nodes = (
(0,6,o),
(29,269,o),
(20,359,c),
(20,414,o),
(20,468,o),
(23,522,cs),
(25,548,o),
(21,576,o),
(35,599,c),
(73,653,o),
(162,636,o),
(194,583,c),
(211,559,o),
(204,529,o),
(202,503,cs),
(194,400,o),
(191,296,o),
(194,193,c),
(194,139,o),
(199,83,o),
(179,32,c),
(171,16,o),
(149,7,o),
(131,7,cs)
);
}
);
width = 226;
}
);
leftKerningGroup = B1;
rightKerningGroup = H;
unicode = 105;
},
{
glyphname = j;
layers = (
{
anchors = (
{
name = top;
position = "{337, 669}";
},
{
name = bottom;
position = "{292, 42}";
}
);
layerId = "75E525D2-6D94-455D-A64D-8DDBA529DB5E";
shapes = (
{
closed = 1;
nodes = (
(306,378,o),
(303,435,o),
(301,492,cs),
(299,534,o),
(286,597,o),
(323,628,cs),
(356,656,o),
(410,646,o),
(438,616,cs),
(475,577,o),
(476,519,o),
(487,469,c),
(519,291,o),
(530,30,o),
(298,-1,cs),
(216,-10,o),
(131,23,o),
(79,87,cs),
(41,132,o),
(18,194,o),
(27,253,c),
(34,289,o),
(71,313,o),
(107,312,c),
(156,314,o),
(207,284,o),
(221,235,cs),
(225,220,o),
(222,204,o),
(225,189,cs),
(227,181,o),
(230,173,o),
(237,168,cs),
(265,150,o),
(292,206,o),
(297,225,cs),
(306,256,o),
(305,289,o),
(306,321,c)
);
}
);
width = 525;
}
);
leftKerningGroup = J;
rightKerningGroup = J;
unicode = 106;
},
{
glyphname = k;
layers = (
{
anchors = (
{
name = top;
position = "{245, 669}";
},
{
name = bottom;
position = "{249, 42}";
}
);
layerId = "75E525D2-6D94-455D-A64D-8DDBA529DB5E";
shapes = (
{
closed = 1;
nodes = (
(368,274,o),
(355,286,o),
(341,296,c),
(335,300,o),
(329,304,o),
(323,309,c),
(320,312,o),
(324,314,o),
(326,316,c),
(396,369,o),
(468,445,o),
(474,536,cs),
(478,599,o),
(411,648,o),
(353,628,c),
(309,614,o),
(291,568,o),
(267,533,c),
(249,508,o),
(230,485,o),
(207,465,c),
(204,463,o),
(202,461,o),
(199,459,c),
(200,474,o),
(201,488,o),
(202,503,cs),
(204,529,o),
(211,559,o),
(194,583,c),
(162,636,o),
(73,653,o),
(35,599,c),
(21,576,o),
(25,548,o),
(23,522,c),
(20,468,o),
(20,414,o),
(20,359,c),
(29,269,o),
(0,6,o),
(131,7,cs),
(149,7,o),
(171,16,o),
(179,32,c),
(199,83,o),
(194,139,o),
(194,193,c),
(199,191,o),
(204,189,o),
(208,187,c),
(236,172,o),
(259,148,o),
(273,119,c),
(287,96,o),
(290,66,o),
(308,45,c),
(347,-9,o),
(451,-22,o),
(476,51,c),
(495,119,o),
(428,216,o),
(381,263,c)
);
}
);
width = 495;
}
);
leftKerningGroup = B1;
rightKerningGroup = K;
unicode = 107;
},
{
glyphname = l;
layers = (
{
anchors = (
{
name = top;
position = "{263, 669}";
},
{
name = bottom;
position = "{261, 10}";
},
{
name = left;
position = "{282, 362}";
}
);
layerId = "75E525D2-6D94-455D-A64D-8DDBA529DB5E";
shapes = (
{
closed = 1;
nodes = (
(380,186,o),
(363,186,o),
(347,181,c),
(322,175,o),
(296,171,o),
(270,167,cs),
(245,164,o),
(220,161,o),
(194,157,c),
(194,169,o),
(194,181,o),
(194,193,c),
(191,296,o),
(194,400,o),
(202,503,cs),
(204,529,o),
(211,559,o),
(194,583,c),
(162,636,o),
(73,653,o),
(35,599,c),
(21,576,o),
(25,548,o),
(23,522,cs),
(20,468,o),
(20,414,o),
(20,359,cs),
(21,314,o),
(22,267,o),
(24,222,cs),
(26,170,o),
(30,115,o),
(51,67,cs),
(65,33,o),
(88,13,o),
(124,7,cs),
(230,-12,o),
(330,0,o),
(434,23,cs),
(448,26,o),
(460,35,o),
(470,45,cs),
(519,99,o),
(458,175,o),
(397,182,c)
);
}
);
width = 503;
}
);
leftKerningGroup = B1;
rightKerningGroup = L;
unicode = 108;
},
{
glyphname = m;
layers = (
{
layerId = "75E525D2-6D94-455D-A64D-8DDBA529DB5E";
shapes = (
{
closed = 1;
nodes = (
(699,524,o),
(700,530,o),
(701,536,cs),
(702,547,o),
(703,559,o),
(701,570,cs),
(694,609,o),
(645,631,o),
(610,631,cs),
(578,631,o),
(555,627,o),
(531,604,cs),
(499,573,o),
(478,536,o),
(454,498,cs),
(427,455,o),
(400,411,o),
(373,368,cs),
(368,359,o),
(364,370,o),
(361,374,cs),
(330,421,o),
(299,468,o),
(266,513,c),
(238,554,o),
(200,595,o),
(155,618,cs),
(116,639,o),
(62,638,o),
(35,599,c),
(21,576,o),
(25,548,o),
(23,522,cs),
(20,468,o),
(20,414,o),
(20,359,c),
(29,269,o),
(0,6,o),
(131,7,cs),
(149,7,o),
(171,16,o),
(179,32,c),
(199,83,o),
(194,139,o),
(194,193,c),
(193,231,o),
(192,270,o),
(193,309,c),
(194,307,o),
(195,306,o),
(196,304,cs),
(239,228,o),
(275,164,o),
(373,159,c),
(427,159,o),
(475,191,o),
(501,238,cs),
(506,246,o),
(511,254,o),
(516,263,c),
(518,151,o),
(527,6,o),
(624,7,cs),
(642,7,o),
(664,16,o),
(672,32,c),
(692,83,o),
(688,139,o),
(687,193,cs),
(686,250,o),
(684,307,o),
(686,363,cs),
(687,415,o),
(693,467,o),
(699,518,c)
);
}
);
width = 723;
}
);
leftKerningGroup = B1;
rightKerningGroup = H;
unicode = 109;
},
{
glyphname = n;
layers = (
{
anchors = (
{
name = top;
position = "{291, 669}";
},
{
name = bottom;
position = "{312, 42}";
}
);
layerId = "75E525D2-6D94-455D-A64D-8DDBA529DB5E";
shapes = (
{
closed = 1;
nodes = (
(533,636,o),
(444,653,o),
(406,599,c),
(392,576,o),
(396,548,o),
(394,522,cs),
(391,468,o),
(391,414,o),
(391,359,c),
(392,346,o),
(393,329,o),
(393,309,c),
(352,367,o),
(313,427,o),
(273,486,cs),
(254,513,o),
(236,541,o),
(217,568,cs),
(182,618,o),
(78,668,o),
(35,599,cs),
(21,576,o),
(25,548,o),
(23,522,cs),
(20,468,o),
(20,414,o),
(20,359,c),
(29,269,o),
(0,6,o),
(131,7,cs),
(149,7,o),
(171,16,o),
(179,32,c),
(199,83,o),
(194,139,o),
(194,193,cs),
(193,235,o),
(192,276,o),
(193,318,c),
(235,256,o),
(282,196,o),
(330,138,c),
(353,112,o),
(404,54,o),
(449,26,c),
(463,14,o),
(480,7,o),
(502,7,cs),
(533,7,o),
(560,32,o),
(562,63,c),
(566,106,o),
(565,149,o),
(565,193,c),
(562,296,o),
(565,400,o),
(573,503,cs),
(575,529,o),
(582,559,o),
(565,583,c)
);
}
);
width = 597;
}
);
leftKerningGroup = B1;
rightKerningGroup = H;
unicode = 110;
},
{
glyphname = o;
layers = (
{
anchors = (
{
name = top;
position = "{344, 669}";
},
{
name = bottom;
position = "{345, 42}";
}
);
layerId = "75E525D2-6D94-455D-A64D-8DDBA529DB5E";
shapes = (
{
closed = 1;
nodes = (
(653,236,o),
(629,177,o),
(587,127,cs),
(504,28,o),
(366,-25,o),
(239,9,cs),
(214,16,o),
(190,25,o),
(168,38,cs),
(-39,156,o),
(-5,446,o),
(168,579,cs),
(235,631,o),
(324,655,o),
(408,640,cs),
(559,614,o),
(667,469,o),
(660,317,c),
(660,310,o),
(660,303,o),
(659,296,cs)
);
},
{
closed = 1;
nodes = (
(221,239,o),
(228,210,o),
(243,189,cs),
(279,141,o),
(350,174,o),
(387,202,cs),
(425,231,o),
(451,273,o),
(463,319,cs),
(472,352,o),
(469,391,o),
(451,421,cs),
(431,456,o),
(374,476,o),
(337,463,cs),
(301,450,o),
(271,411,o),
(253,379,cs),
(232,343,o),
(224,306,o),
(222,265,cs)
);
}
);
width = 686;
}
);
leftKerningGroup = C2;
rightKerningGroup = C;
unicode = 111;
},
{
glyphname = p;
layers = (
{
layerId = "75E525D2-6D94-455D-A64D-8DDBA529DB5E";
shapes = (
{
closed = 1;
nodes = (
(367,607,o),
(299,635,o),
(228,642,cs),
(174,648,o),
(69,653,o),
(35,599,cs),
(21,576,o),
(25,548,o),
(23,522,cs),
(20,468,o),
(20,414,o),
(20,359,c),
(29,269,o),
(0,6,o),
(131,7,cs),
(149,7,o),
(171,16,o),
(179,32,c),
(195,73,o),
(195,118,o),
(194,163,c),
(209,160,o),
(225,159,o),
(239,159,cs),
(313,159,o),
(393,180,o),
(445,236,cs),
(532,332,o),
(507,472,o),
(419,557,cs)
);
},
{
closed = 1;
nodes = (
(253,327,o),
(226,325,o),
(200,325,cs),
(198,325,o),
(195,325,o),
(193,325,c),
(194,383,o),
(197,440,o),
(202,498,c),
(229,493,o),
(255,482,o),
(280,456,cs),
(310,426,o),
(309,369,o),
(275,343,cs)
);
}
);
width = 524;
}
);
rightKerningGroup = P;
unicode = 112;
},
{
glyphname = q;
layers = (
{
layerId = "75E525D2-6D94-455D-A64D-8DDBA529DB5E";
shapes = (
{
closed = 1;
nodes = (
(287,315,o),
(362,311,o),
(391,288,cs),
(464,230,o),
(517,123,o),
(544,35,cs),
(553,4,o),
(578,-33,o),
(570,-65,c),
(561,-108,o),
(513,-129,o),
(473,-122,cs),
(444,-117,o),
(415,-105,o),
(397,-81,c),
(379,-61,o),
(375,-34,o),
(364,-10,c),
(352,20,o),
(340,50,o),
(329,80,cs),
(308,133,o),
(287,204,o),
(287,262,cs)
);
},
{
closed = 1;
nodes = (
(653,236,o),
(629,177,o),
(587,127,cs),
(504,28,o),
(366,-25,o),
(239,9,cs),
(214,16,o),
(190,25,o),
(168,38,cs),
(-39,156,o),
(-5,446,o),
(168,579,cs),
(235,631,o),
(324,655,o),
(408,640,cs),
(559,614,o),
(667,469,o),
(660,317,c),
(660,310,o),
(660,303,o),
(659,296,cs)
);
},
{
closed = 1;
nodes = (
(221,239,o),
(228,210,o),
(243,189,cs),
(279,141,o),
(350,174,o),
(387,202,cs),
(425,231,o),
(451,273,o),
(463,319,cs),
(472,352,o),
(469,391,o),
(451,421,cs),
(431,456,o),
(374,476,o),
(337,463,cs),
(301,450,o),
(271,411,o),
(253,379,cs),
(232,343,o),
(224,306,o),
(222,265,cs)
);
}
);
width = 686;
}
);
leftKerningGroup = C2;
rightKerningGroup = C;
unicode = 113;
},
{
glyphname = r;
layers = (
{
anchors = (
{
name = top;
position = "{249, 669}";
},
{
name = bottom;
position = "{252, 42}";
}
);
layerId = "75E525D2-6D94-455D-A64D-8DDBA529DB5E";
shapes = (
{
closed = 1;
nodes = (
(442,257,o),
(494,322,o),
(501,397,cs),
(510,500,o),
(428,589,o),
(338,627,cs),
(285,650,o),
(226,653,o),
(170,650,c),
(125,646,o),
(62,642,o),
(35,599,cs),
(21,576,o),
(25,548,o),
(23,522,c),
(20,468,o),
(20,414,o),
(20,359,c),
(29,269,o),
(0,6,o),
(131,7,cs),
(149,7,o),
(171,16,o),
(179,32,c),
(190,58,o),
(193,86,o),
(194,115,c),
(212,98,o),
(232,84,o),
(253,73,c),
(304,49,o),
(361,16,o),
(418,37,c),
(495,72,o),
(466,160,o),
(398,187,c),
(382,193,o),
(365,199,o),
(348,206,c),
(344,210,o),
(373,220,o),
(377,223,c)
);
},
{
closed = 1;
nodes = (
(279,369,o),
(238,356,o),
(194,350,c),
(195,401,o),
(198,452,o),
(202,503,c),
(213,501,o),
(224,499,o),
(235,496,cs),
(273,485,o),
(318,461,o),
(300,415,c)
);
}
);
width = 527;
}
);
leftKerningGroup = B1;
rightKerningGroup = R;
unicode = 114;
},
{
glyphname = s;
layers = (
{
anchors = (
{
name = top;
position = "{277, 669}";
},
{
name = bottom;
position = "{269, 42}";
}
);
layerId = "75E525D2-6D94-455D-A64D-8DDBA529DB5E";
shapes = (
{
closed = 1;
nodes = (
(346,644,o),
(420,624,o),
(472,574,c),
(488,560,o),
(501,540,o),
(507,519,cs),
(526,453,o),
(454,428,o),
(403,447,c),
(373,453,o),
(347,474,o),
(316,478,cs),
(278,484,o),
(227,462,o),
(221,420,cs),
(216,386,o),
(266,367,o),
(290,352,c),
(336,328,o),
(381,302,o),
(419,268,cs),
(513,184,o),
(515,54,o),
(382,13,cs),
(334,-1,o),
(283,-1,o),
(233,3,c),
(166,14,o),
(56,30,o),
(31,104,cs),
(20,134,o),
(34,168,o),
(62,183,cs),
(97,203,o),
(138,195,o),
(173,180,cs),
(197,170,o),
(224,167,o),
(249,166,c),
(260,166,o),
(272,165,o),
(281,168,c),
(272,178,o),
(258,184,o),
(247,192,c),
(203,218,o),
(155,239,o),
(116,272,c),
(73,305,o),
(36,352,o),
(28,407,c),
(3,552,o),
(146,648,o),
(277,645,cs)
);
}
);
width = 536;
}
);
leftKerningGroup = C2;
rightKerningGroup = C;
unicode = 115;
},
{
glyphname = t;
layers = (
{
anchors = (
{
name = top;
position = "{262, 669}";
},
{
name = bottom;
position = "{281, 17}";
}
);
layerId = "75E525D2-6D94-455D-A64D-8DDBA529DB5E";
shapes = (
{
closed = 1;
nodes = (
(439,651,o),
(415,651,o),
(391,649,cs),
(374,647,o),
(357,648,o),
(340,647,cs),
(271,643,o),
(202,642,o),
(133,638,cs),
(96,636,o),
(38,627,o),
(18,592,cs),
(-4,555,o),
(23,511,o),
(58,494,c),
(94,475,o),
(135,473,o),
(176,472,c),
(178,472,o),
(179,472,o),
(181,472,c),
(180,435,o),
(180,397,o),
(180,359,c),
(189,269,o),
(160,6,o),
(291,7,cs),
(309,7,o),
(331,16,o),
(339,32,c),
(359,83,o),
(354,139,o),
(354,193,c),
(351,288,o),
(353,384,o),
(360,479,c),
(393,481,o),
(426,482,o),
(459,483,c),
(561,499,o),
(547,610,o),
(462,641,c)
);
}
);
width = 541;
}
);
unicode = 116;
},
{
glyphname = u;
layers = (
{
anchors = (
{
name = top;
position = "{291, 669}";
},
{
name = bottom;
position = "{300, 42}";
}
);
layerId = "75E525D2-6D94-455D-A64D-8DDBA529DB5E";
shapes = (
{
closed = 1;
nodes = (
(183,634,o),
(214,594,o),
(218,537,c),
(219,483,o),
(215,428,o),
(219,374,cs),
(223,302,o),
(237,226,o),
(279,166,c),
(283,156,o),
(295,169,o),
(300,172,c),
(327,199,o),
(338,236,o),
(348,271,c),
(370,357,o),
(378,448,o),
(375,536,cs),
(373,570,o),
(369,600,o),
(399,624,cs),
(422,642,o),
(455,645,o),
(483,638,cs),
(537,626,o),
(567,588,o),
(570,534,cs),
(573,483,o),
(573,432,o),
(568,381,cs),
(556,276,o),
(542,162,o),
(475,75,cs),
(424,12,o),
(336,-20,o),
(257,0,c),
(98,35,o),
(38,218,o),
(25,362,cs),
(20,415,o),
(19,467,o),
(21,520,cs),
(25,592,o),
(40,651,o),
(126,645,c)
);
}
);
width = 593;
}
);
leftKerningGroup = U;
rightKerningGroup = U;
unicode = 117;
},
{
glyphname = v;
layers = (
{
layerId = "75E525D2-6D94-455D-A64D-8DDBA529DB5E";
shapes = (
{
closed = 1;
nodes = (
(553,376,o),
(516,218,o),
(430,83,c),
(403,37,o),
(353,4,o),
(299,3,c),
(239,0,o),
(179,32,o),
(150,85,c),
(87,221,o),
(42,366,o),
(14,514,cs),
(7,548,o),
(7,597,o),
(37,622,cs),
(64,646,o),
(107,644,o),
(137,626,cs),
(194,592,o),
(203,523,o),
(218,465,cs),
(227,427,o),
(237,389,o),
(248,352,cs),
(258,318,o),
(266,276,o),
(282,245,cs),
(284,241,o),
(286,230,o),
(289,239,c),
(338,342,o),
(364,453,o),
(384,564,c),
(385,581,o),
(389,598,o),
(402,610,c),
(416,625,o),
(434,635,o),
(454,636,c),
(473,638,o),
(493,637,o),
(511,630,cs),
(553,613,o),
(585,579,o),
(580,532,c)
);
}
);
width = 591;
}
);
leftKerningGroup = V;
rightKerningGroup = V;
unicode = 118;
},
{
glyphname = w;
layers = (
{
anchors = (
{
name = top;
position = "{347, 669}";
},
{
name = bottom;
position = "{369, 42}";
}
);
layerId = "75E525D2-6D94-455D-A64D-8DDBA529DB5E";
shapes = (
{
closed = 1;
nodes = (
(655,636,o),
(567,653,o),
(528,599,c),
(514,576,o),
(518,548,o),
(516,522,cs),
(513,468,o),
(513,414,o),
(513,359,c),
(515,346,o),
(515,329,o),
(515,310,c),
(493,335,o),
(468,357,o),
(441,377,c),
(363,429,o),
(285,415,o),
(231,338,cs),
(219,322,o),
(206,305,o),
(193,289,c),
(193,360,o),
(196,432,o),
(202,503,cs),
(204,529,o),
(211,559,o),
(194,583,c),
(162,636,o),
(73,653,o),
(35,599,c),
(21,576,o),
(25,548,o),
(23,522,cs),
(20,468,o),
(20,414,o),
(20,359,c),
(29,276,o),
(5,45,o),
(104,11,c),
(117,5,o),
(132,3,o),
(150,10,c),
(188,23,o),
(217,59,o),
(244,87,cs),
(275,119,o),
(304,153,o),
(334,186,cs),
(346,199,o),
(358,212,o),
(369,225,cs),
(371,228,o),
(373,228,o),
(375,225,cs),
(425,160,o),
(466,86,o),
(533,37,c),
(552,21,o),
(576,11,o),
(601,7,cs),
(607,6,o),
(613,6,o),
(618,7,c),
(620,7,o),
(622,7,o),
(624,7,cs),
(709,7,o),
(688,140,o),
(687,193,cs),
(684,296,o),
(687,400,o),
(695,503,cs),
(697,529,o),
(704,559,o),
(687,583,c)
);
}
);
width = 719;
}
);
leftKerningGroup = B1;
rightKerningGroup = H;
unicode = 119;
},
{
glyphname = x;
layers = (
{
layerId = "75E525D2-6D94-455D-A64D-8DDBA529DB5E";
shapes = (
{
closed = 1;
nodes = (
(444,11,o),
(388,63,o),
(352,98,cs),
(330,118,o),
(310,140,o),
(290,162,c),
(287,168,o),
(285,161,o),
(282,158,cs),
(253,119,o),
(224,79,o),
(195,39,c),
(179,15,o),
(148,6,o),
(120,6,cs),
(68,7,o),
(6,50,o),
(11,107,cs),
(13,132,o),
(30,149,o),
(44,168,cs),
(70,204,o),
(96,239,o),
(123,275,cs),
(136,293,o),
(150,310,o),
(163,328,cs),
(166,332,o),
(166,332,o),
(164,336,cs),
(136,381,o),
(109,426,o),
(82,471,cs),
(66,497,o),
(48,529,o),
(41,559,cs),
(33,592,o),
(51,619,o),
(81,633,cs),
(97,641,o),
(116,640,o),
(133,638,cs),
(155,635,o),
(174,626,o),
(190,611,c),
(218,581,o),
(242,548,o),
(263,513,c),
(266,510,o),
(281,479,o),
(284,483,cs),
(308,514,o),
(334,544,o),
(361,573,c),
(383,594,o),
(404,618,o),
(432,630,cs),
(477,648,o),
(533,630,o),
(554,586,cs),
(576,537,o),
(534,493,o),
(509,454,c),
(477,407,o),
(439,363,o),
(404,318,c),
(401,313,o),
(393,308,o),
(398,303,c),
(436,252,o),
(480,205,o),
(528,164,c),
(541,154,o),
(555,145,o),
(565,132,cs),
(590,101,o),
(592,55,o),
(560,29,cs),
(541,13,o),
(520,7,o),
(500,8,cs)
);
}
);
width = 594;
}
);
leftKerningGroup = X;
rightKerningGroup = X;
unicode = 120;
},
{
glyphname = z;
layers = (
{
anchors = (
{
name = top;
position = "{247, 669}";
},
{
name = bottom;
position = "{256, 3}";
}
);
layerId = "75E525D2-6D94-455D-A64D-8DDBA529DB5E";
shapes = (
{
closed = 1;
nodes = (
(340,649,o),
(436,614,o),
(455,523,cs),
(463,485,o),
(452,445,o),
(436,410,cs),
(399,330,o),
(354,254,o),
(305,180,c),
(305,179,o),
(301,176,o),
(305,175,c),
(310,175,o),
(316,176,o),
(321,176,cs),
(336,176,o),
(350,177,o),
(365,176,cs),
(402,175,o),
(439,159,o),
(460,128,cs),
(487,88,o),
(473,40,o),
(430,21,cs),
(396,6,o),
(356,13,o),
(320,10,c),
(261,8,o),
(202,6,o),
(143,4,c),
(79,-4,o),
(0,56,o),
(26,124,c),
(98,232,o),
(180,333,o),
(235,451,cs),
(254,492,o),
(255,478,o),
(209,479,cs),
(158,481,o),
(102,468,o),
(59,502,cs),
(27,528,o),
(17,574,o),
(51,603,c),
(96,634,o),
(200,644,o),
(256,646,cs)
);
}
);
width = 494;
}
);
leftKerningGroup = B1;
rightKerningGroup = H;
unicode = 122;
},
{
glyphname = guillemotleft;
layers = (
{
layerId = "75E525D2-6D94-455D-A64D-8DDBA529DB5E";
shapes = (
{
closed = 1;
nodes = (
(225,301,o),
(233,319,o),
(243,336,cs),
(259,365,o),
(274,394,o),
(291,422,c),
(316,459,o),
(341,510,o),
(384,529,c),
(428,547,o),
(487,516,o),
(487,466,cs),
(487,457,o),
(485,448,o),
(481,439,cs),
(461,397,o),
(435,359,o),
(412,318,cs),
(404,304,o),
(396,290,o),
(388,276,cs),
(383,267,o),
(384,263,o),
(390,255,cs),
(415,221,o),
(441,187,o),
(466,154,cs),
(475,142,o),
(482,127,o),
(481,112,c),
(481,53,o),
(404,43,o),
(364,72,c),
(339,88,o),
(325,117,o),
(306,139,c),
(279,181,o),
(225,228,o),
(226,280,c)
);
},
{
closed = 1;
nodes = (
(25,301,o),
(33,319,o),
(43,336,cs),
(59,365,o),
(74,394,o),
(91,422,c),
(116,459,o),
(141,510,o),
(184,529,c),
(228,547,o),
(287,516,o),
(287,466,cs),
(287,457,o),
(285,448,o),
(281,439,cs),
(261,397,o),
(235,359,o),
(212,318,cs),
(204,304,o),
(196,290,o),
(188,276,cs),
(183,267,o),
(184,263,o),
(190,255,cs),
(215,221,o),
(241,187,o),
(266,154,cs),
(275,142,o),
(282,127,o),
(281,112,c),
(281,53,o),
(204,43,o),
(164,72,c),
(139,88,o),
(125,117,o),
(106,139,c),
(79,181,o),
(25,228,o),
(26,280,c)
);
}
);
width = 507;
}
);
unicode = 171;
},
{
glyphname = guillemotright;
layers = (
{
layerId = "75E525D2-6D94-455D-A64D-8DDBA529DB5E";
shapes = (
{
closed = 1;
nodes = (
(287,228,o),
(233,181,o),
(206,139,c),
(187,117,o),
(173,88,o),
(148,72,c),
(108,43,o),
(31,53,o),
(31,112,c),
(30,127,o),
(37,142,o),
(46,154,cs),
(71,187,o),
(97,221,o),
(122,255,cs),
(128,263,o),
(129,267,o),
(124,276,cs),
(116,290,o),
(108,304,o),
(100,318,cs),
(77,359,o),
(51,397,o),
(31,439,cs),
(27,448,o),
(25,457,o),
(25,466,cs),
(25,516,o),
(84,547,o),
(128,529,c),
(171,510,o),
(196,459,o),
(221,422,c),
(238,394,o),
(253,365,o),
(269,336,cs),
(279,319,o),
(287,301,o),
(286,280,c)
);
},
{
closed = 1;
nodes = (
(487,228,o),
(433,181,o),
(406,139,c),
(387,117,o),
(373,88,o),
(348,72,c),
(308,43,o),
(231,53,o),
(231,112,c),
(230,127,o),
(237,142,o),
(246,154,cs),
(271,187,o),
(297,221,o),
(322,255,cs),
(328,263,o),
(329,267,o),
(324,276,cs),
(316,290,o),
(308,304,o),
(300,318,cs),
(277,359,o),
(251,397,o),
(231,439,cs),
(227,448,o),
(225,457,o),
(225,466,cs),
(225,516,o),
(284,547,o),
(328,529,c),
(371,510,o),
(396,459,o),
(421,422,c),
(438,394,o),
(453,365,o),
(469,336,cs),
(479,319,o),
(487,301,o),
(486,280,c)
);
}
);
width = 507;
}
);
unicode = 187;
},
{
glyphname = AE;
layers = (
{
anchors = (
{
name = top;
position = "{424, 669}";
},
{
name = bottom;
position = "{727, 42}";
}
);
layerId = "75E525D2-6D94-455D-A64D-8DDBA529DB5E";
shapes = (
{
closed = 1;
nodes = (
(554,288,o),
(549,376,o),
(525,460,cs),
(510,510,o),
(488,560,o),
(449,596,cs),
(431,613,o),
(409,627,o),
(385,635,c),
(353,647,o),
(324,651,o),
(291,653,cs),
(255,655,o),
(225,650,o),
(190,636,c),
(17,547,o),
(18,286,o),
(31,117,c),
(35,91,o),
(33,63,o),
(50,42,c),
(80,-1,o),
(146,-16,o),
(190,13,c),
(221,37,o),
(217,66,o),
(210,101,c),
(211,108,o),
(202,137,o),
(211,138,c),
(259,137,o),
(306,134,o),
(354,134,c),
(361,132,o),
(357,121,o),
(357,116,c),
(338,33,o),
(439,-34,o),
(510,7,cs),
(565,38,o),
(552,121,o),
(556,177,c),
(556,177,o),
(556,201,o),
(556,201,c)
);
},
{
closed = 1;
nodes = (
(282,300,o),
(249,296,o),
(216,293,cs),
(199,292,o),
(211,332,o),
(212,341,cs),
(218,379,o),
(256,559,o),
(317,506,c),
(336,485,o),
(338,444,o),
(344,417,cs),
(348,396,o),
(351,374,o),
(354,353,cs),
(362,294,o),
(369,300,o),
(315,300,cs)
);
},
{
closed = 1;
nodes = (
(660,176,o),
(618,169,o),
(575,160,c),
(575,171,o),
(575,182,o),
(575,193,c),
(574,214,o),
(574,235,o),
(574,256,c),
(590,255,o),
(606,255,o),
(623,255,c),
(656,254,o),
(690,257,o),
(723,261,cs),
(753,265,o),
(786,283,o),
(793,314,c),
(799,336,o),
(793,358,o),
(781,376,c),
(770,397,o),
(750,409,o),
(729,418,c),
(700,433,o),
(668,426,o),
(638,423,c),
(618,422,o),
(598,420,o),
(578,417,c),
(579,442,o),
(580,467,o),
(582,492,c),
(642,487,o),
(702,487,o),
(762,484,c),
(862,487,o),
(876,590,o),
(794,636,cs),
(751,660,o),
(701,650,o),
(655,650,cs),
(614,650,o),
(572,651,o),
(531,646,cs),
(493,642,o),
(440,633,o),
(416,599,c),
(402,576,o),
(406,548,o),
(404,522,cs),
(401,468,o),
(401,414,o),
(401,359,cs),
(402,316,o),
(403,271,o),
(405,228,cs),
(407,177,o),
(410,124,o),
(428,77,cs),
(443,36,o),
(467,12,o),
(511,6,cs),
(576,-4,o),
(643,-3,o),
(708,11,cs),
(752,20,o),
(815,21,o),
(840,67,cs),
(852,89,o),
(849,117,o),
(836,138,cs),
(809,182,o),
(751,203,o),
(702,188,cs)
);
}
);
width = 873;
}
);
leftKerningGroup = A1;
unicode = 198;
},
{
glyphname = ae;
layers = (
{
anchors = (
{
name = top;
position = "{424, 669}";
},
{
name = bottom;
position = "{727, 42}";
}
);
layerId = "75E525D2-6D94-455D-A64D-8DDBA529DB5E";
shapes = (
{
closed = 1;
nodes = (
(554,288,o),
(549,376,o),
(525,460,cs),
(510,510,o),
(488,560,o),
(449,596,cs),
(431,613,o),
(409,627,o),
(385,635,c),
(353,647,o),
(324,651,o),
(291,653,cs),
(255,655,o),
(225,650,o),
(190,636,c),
(17,547,o),
(18,286,o),
(31,117,c),
(35,91,o),
(33,63,o),
(50,42,c),
(80,-1,o),
(146,-16,o),
(190,13,c),
(221,37,o),
(217,66,o),
(210,101,c),
(211,108,o),
(202,137,o),
(211,138,c),
(259,137,o),
(306,134,o),
(354,134,c),
(361,132,o),
(357,121,o),
(357,116,c),
(338,33,o),
(439,-34,o),
(510,7,cs),
(565,38,o),
(552,121,o),
(556,177,c),
(556,177,o),
(556,201,o),
(556,201,c)
);
},
{
closed = 1;
nodes = (
(282,300,o),
(249,296,o),
(216,293,cs),
(199,292,o),
(211,332,o),
(212,341,cs),
(218,379,o),
(256,559,o),
(317,506,c),
(336,485,o),
(338,444,o),
(344,417,cs),
(348,396,o),
(351,374,o),
(354,353,cs),
(362,294,o),
(369,300,o),
(315,300,cs)
);
},
{
closed = 1;
nodes = (
(660,176,o),
(618,169,o),
(575,160,c),
(575,171,o),
(575,182,o),
(575,193,c),
(574,214,o),
(574,235,o),
(574,256,c),
(590,255,o),
(606,255,o),
(623,255,c),
(656,254,o),
(690,257,o),
(723,261,cs),
(753,265,o),
(786,283,o),
(793,314,c),
(799,336,o),
(793,358,o),
(781,376,c),
(770,397,o),
(750,409,o),
(729,418,c),
(700,433,o),
(668,426,o),
(638,423,c),
(618,422,o),
(598,420,o),
(578,417,c),
(579,442,o),
(580,467,o),
(582,492,c),
(642,487,o),
(702,487,o),
(762,484,c),
(862,487,o),
(876,590,o),
(794,636,cs),
(751,660,o),
(701,650,o),
(655,650,cs),
(614,650,o),
(572,651,o),
(531,646,cs),
(493,642,o),
(440,633,o),
(416,599,c),
(402,576,o),
(406,548,o),
(404,522,cs),
(401,468,o),
(401,414,o),
(401,359,cs),
(402,316,o),
(403,271,o),
(405,228,cs),
(407,177,o),
(410,124,o),
(428,77,cs),
(443,36,o),
(467,12,o),
(511,6,cs),
(576,-4,o),
(643,-3,o),
(708,11,cs),
(752,20,o),
(815,21,o),
(840,67,cs),
(852,89,o),
(849,117,o),
(836,138,cs),
(809,182,o),
(751,203,o),
(702,188,cs)
);
}
);
width = 873;
}
);
leftKerningGroup = A1;
unicode = 230;
},
{
glyphname = Agrave;
layers = (
{
anchors = (
{
name = bottom;
position = "{439, 42}";
}
);
layerId = "75E525D2-6D94-455D-A64D-8DDBA529DB5E";
shapes = (
{
closed = 1;
nodes = (
(554,288,o),
(549,376,o),
(525,460,cs),
(510,510,o),
(488,560,o),
(449,596,cs),
(431,613,o),
(409,627,o),
(385,635,c),
(353,647,o),
(324,651,o),
(291,653,cs),
(255,655,o),
(225,650,o),
(190,636,c),
(17,547,o),
(18,286,o),
(31,117,c),
(35,91,o),
(33,63,o),
(50,42,c),
(80,-1,o),
(146,-16,o),
(190,13,c),
(221,37,o),
(217,66,o),
(210,101,c),
(211,108,o),
(202,137,o),
(211,138,c),
(259,137,o),
(306,134,o),
(354,134,c),
(361,132,o),
(357,121,o),
(357,116,c),
(338,33,o),
(439,-34,o),
(510,7,cs),
(565,38,o),
(552,121,o),
(556,177,c),
(556,177,o),
(556,201,o),
(556,201,c)
);
},
{
closed = 1;
nodes = (
(282,300,o),
(249,296,o),
(216,293,cs),
(199,292,o),
(211,332,o),
(212,341,cs),
(218,379,o),
(256,559,o),
(317,506,c),
(336,485,o),
(338,444,o),
(344,417,cs),
(348,396,o),
(351,374,o),
(354,353,cs),
(362,294,o),
(369,300,o),
(315,300,cs)
);
},
{
closed = 1;
nodes = (
(358,723,o),
(377,730,o),
(390,745,cs),
(422,783,o),
(381,831,o),
(343,842,c),
(327,849,o),
(313,858,o),
(300,870,cs),
(280,887,o),
(252,894,o),
(226,891,c),
(202,887,o),
(183,867,o),
(181,842,cs),
(179,814,o),
(207,780,o),
(227,762,c),
(258,737,o),
(298,720,o),
(338,722,cs)
);
}
);
width = 581;
}
);
leftKerningGroup = A1;
rightKerningGroup = A;
unicode = 192;
},
{
glyphname = Aacute;
layers = (
{
anchors = (
{
name = bottom;
position = "{439, 42}";
}
);
layerId = "75E525D2-6D94-455D-A64D-8DDBA529DB5E";
shapes = (
{
closed = 1;
nodes = (
(554,288,o),
(549,376,o),
(525,460,cs),
(510,510,o),
(488,560,o),
(449,596,cs),
(431,613,o),
(409,627,o),
(385,635,c),
(353,647,o),
(324,651,o),
(291,653,cs),
(255,655,o),
(225,650,o),
(190,636,c),
(17,547,o),
(18,286,o),
(31,117,c),
(35,91,o),
(33,63,o),
(50,42,c),
(80,-1,o),
(146,-16,o),
(190,13,c),
(221,37,o),
(217,66,o),
(210,101,c),
(211,108,o),
(202,137,o),
(211,138,c),
(259,137,o),
(306,134,o),
(354,134,c),
(361,132,o),
(357,121,o),
(357,116,c),
(338,33,o),
(439,-34,o),
(510,7,cs),
(565,38,o),
(552,121,o),
(556,177,c),
(556,177,o),
(556,201,o),
(556,201,c)
);
},
{
closed = 1;
nodes = (
(282,300,o),
(249,296,o),
(216,293,cs),
(199,292,o),
(211,332,o),
(212,341,cs),
(218,379,o),
(256,559,o),
(317,506,c),
(336,485,o),
(338,444,o),
(344,417,cs),
(348,396,o),
(351,374,o),
(354,353,cs),
(362,294,o),
(369,300,o),
(315,300,cs)
);
},
{
closed = 1;
nodes = (
(284,720,o),
(324,737,o),
(355,762,c),
(375,780,o),
(403,814,o),
(401,842,cs),
(399,867,o),
(380,887,o),
(356,891,c),
(330,894,o),
(302,887,o),
(282,870,cs),
(269,858,o),
(255,849,o),
(239,842,c),
(201,831,o),
(160,783,o),
(192,745,cs),
(205,730,o),
(224,723,o),
(244,722,cs)
);
}
);
width = 581;
}
);
leftKerningGroup = A1;
rightKerningGroup = A;
unicode = 193;
},
{
glyphname = Acircumflex;
layers = (
{
anchors = (
{
name = bottom;
position = "{439, 42}";
}
);
layerId = "75E525D2-6D94-455D-A64D-8DDBA529DB5E";
shapes = (
{
closed = 1;
nodes = (
(554,288,o),
(549,376,o),
(525,460,cs),
(510,510,o),
(488,560,o),
(449,596,cs),
(431,613,o),
(409,627,o),
(385,635,c),
(353,647,o),
(324,651,o),
(291,653,cs),
(255,655,o),
(225,650,o),
(190,636,c),
(17,547,o),
(18,286,o),
(31,117,c),
(35,91,o),
(33,63,o),
(50,42,c),
(80,-1,o),
(146,-16,o),
(190,13,c),
(221,37,o),
(217,66,o),
(210,101,c),
(211,108,o),
(202,137,o),
(211,138,c),
(259,137,o),
(306,134,o),
(354,134,c),
(361,132,o),
(357,121,o),
(357,116,c),
(338,33,o),
(439,-34,o),
(510,7,cs),
(565,38,o),
(552,121,o),
(556,177,c),
(556,177,o),
(556,201,o),
(556,201,c)
);
},
{
closed = 1;
nodes = (
(282,300,o),
(249,296,o),
(216,293,cs),
(199,292,o),
(211,332,o),
(212,341,cs),
(218,379,o),
(256,559,o),
(317,506,c),
(336,485,o),
(338,444,o),
(344,417,cs),
(348,396,o),
(351,374,o),
(354,353,cs),
(362,294,o),
(369,300,o),
(315,300,cs)
);
},
{
closed = 1;
nodes = (
(227,887,o),
(192,839,o),
(160,803,c),
(128,747,o),
(196,699,o),
(248,718,c),
(267,724,o),
(279,741,o),
(294,752,c),
(300,754,o),
(307,743,o),
(311,740,c),
(345,700,o),
(433,702,o),
(433,766,c),
(431,789,o),
(416,806,o),
(399,820,cs),
(364,850,o),
(328,886,o),
(279,885,c)
);
}
);
width = 581;
}
);
leftKerningGroup = A1;
rightKerningGroup = A;
unicode = 194;
},
{
glyphname = Atilde;
layers = (
{
anchors = (
{
name = bottom;
position = "{439, 42}";
}
);
layerId = "75E525D2-6D94-455D-A64D-8DDBA529DB5E";
shapes = (
{
closed = 1;
nodes = (
(554,288,o),
(549,376,o),
(525,460,cs),
(510,510,o),
(488,560,o),
(449,596,cs),
(431,613,o),
(409,627,o),
(385,635,c),
(353,647,o),
(324,651,o),
(291,653,cs),
(255,655,o),
(225,650,o),
(190,636,c),
(17,547,o),
(18,286,o),
(31,117,c),
(35,91,o),
(33,63,o),
(50,42,c),
(80,-1,o),
(146,-16,o),
(190,13,c),
(221,37,o),
(217,66,o),
(210,101,c),
(211,108,o),
(202,137,o),
(211,138,c),
(259,137,o),
(306,134,o),
(354,134,c),
(361,132,o),
(357,121,o),
(357,116,c),
(338,33,o),
(439,-34,o),
(510,7,cs),
(565,38,o),
(552,121,o),
(556,177,c),
(556,177,o),
(556,201,o),
(556,201,c)
);
},
{
closed = 1;
nodes = (
(282,300,o),
(249,296,o),
(216,293,cs),
(199,292,o),
(211,332,o),
(212,341,cs),
(218,379,o),
(256,559,o),
(317,506,c),
(336,485,o),
(338,444,o),
(344,417,cs),
(348,396,o),
(351,374,o),
(354,353,cs),
(362,294,o),
(369,300,o),
(315,300,cs)
);
},
{
closed = 1;
nodes = (
(450,697,o),
(518,748,o),
(502,812,c),
(493,842,o),
(461,861,o),
(430,860,c),
(407,861,o),
(391,846,o),
(375,831,c),
(369,827,o),
(362,837,o),
(357,840,cs),
(341,851,o),
(325,865,o),
(307,873,c),
(259,901,o),
(195,911,o),
(148,877,c),
(112,853,o),
(95,808,o),
(100,766,c),
(107,730,o),
(145,705,o),
(181,707,cs),
(205,709,o),
(230,724,o),
(235,749,cs),
(236,754,o),
(237,760,o),
(239,765,cs),
(242,775,o),
(265,750,o),
(270,747,c),
(304,719,o),
(346,699,o),
(391,700,c)
);
}
);
width = 581;
}
);
leftKerningGroup = A1;
rightKerningGroup = A;
unicode = 195;
},
{
glyphname = Adieresis;
layers = (
{
anchors = (
{
name = bottom;
position = "{439, 42}";
}
);
layerId = "75E525D2-6D94-455D-A64D-8DDBA529DB5E";
shapes = (
{
closed = 1;
nodes = (
(554,288,o),
(549,376,o),
(525,460,cs),
(510,510,o),
(488,560,o),
(449,596,cs),
(431,613,o),
(409,627,o),
(385,635,c),
(353,647,o),
(324,651,o),
(291,653,cs),
(255,655,o),
(225,650,o),
(190,636,c),
(17,547,o),
(18,286,o),
(31,117,c),
(35,91,o),
(33,63,o),
(50,42,c),
(80,-1,o),
(146,-16,o),
(190,13,c),
(221,37,o),
(217,66,o),
(210,101,c),
(211,108,o),
(202,137,o),
(211,138,c),
(259,137,o),
(306,134,o),
(354,134,c),
(361,132,o),
(357,121,o),
(357,116,c),
(338,33,o),
(439,-34,o),
(510,7,cs),
(565,38,o),
(552,121,o),
(556,177,c),
(556,177,o),
(556,201,o),
(556,201,c)
);
},
{
closed = 1;
nodes = (
(282,300,o),
(249,296,o),
(216,293,cs),
(199,292,o),
(211,332,o),
(212,341,cs),
(218,379,o),
(256,559,o),
(317,506,c),
(336,485,o),
(338,444,o),
(344,417,cs),
(348,396,o),
(351,374,o),
(354,353,cs),
(362,294,o),
(369,300,o),
(315,300,cs)
);
},
{
closed = 1;
nodes = (
(290,848,o),
(250,888,o),
(201,888,cs),
(152,888,o),
(112,848,o),
(112,799,cs),
(112,750,o),
(152,710,o),
(201,710,cs),
(250,710,o),
(290,750,o),
(290,799,cs)
);
},
{
closed = 1;
nodes = (
(480,848,o),
(440,888,o),
(391,888,cs),
(342,888,o),
(302,848,o),
(302,799,cs),
(302,750,o),
(342,710,o),
(391,710,cs),
(440,710,o),
(480,750,o),
(480,799,cs)
);
}
);
width = 581;
}
);
leftKerningGroup = A1;
rightKerningGroup = A;
unicode = 196;
},
{
glyphname = Aring;
layers = (
{
anchors = (
{
name = bottom;
position = "{439, 42}";
}
);
layerId = "75E525D2-6D94-455D-A64D-8DDBA529DB5E";
shapes = (
{
closed = 1;
nodes = (
(554,288,o),
(549,376,o),
(525,460,cs),
(510,510,o),
(488,560,o),
(449,596,cs),
(431,613,o),
(409,627,o),
(385,635,c),
(353,647,o),
(324,651,o),
(291,653,cs),
(255,655,o),
(225,650,o),
(190,636,c),
(17,547,o),
(18,286,o),
(31,117,c),
(35,91,o),
(33,63,o),
(50,42,c),
(80,-1,o),
(146,-16,o),
(190,13,c),
(221,37,o),
(217,66,o),
(210,101,c),
(211,108,o),
(202,137,o),
(211,138,c),
(259,137,o),
(306,134,o),
(354,134,c),
(361,132,o),
(357,121,o),
(357,116,c),
(338,33,o),
(439,-34,o),
(510,7,cs),
(565,38,o),
(552,121,o),
(556,177,c),
(556,177,o),
(556,201,o),
(556,201,c)
);
},
{
closed = 1;
nodes = (
(282,300,o),
(249,296,o),
(216,293,cs),
(199,292,o),
(211,332,o),
(212,341,cs),
(218,379,o),
(256,559,o),
(317,506,c),
(336,485,o),
(338,444,o),
(344,417,cs),
(348,396,o),
(351,374,o),
(354,353,cs),
(362,294,o),
(369,300,o),
(315,300,cs)
);
},
{
closed = 1;
nodes = (
(191,897,o),
(153,789,o),
(220,729,c),
(275,676,o),
(378,699,o),
(389,780,c),
(401,847,o),
(348,900,o),
(281,898,c)
);
},
{
closed = 1;
nodes = (
(267,805,o),
(270,816,o),
(278,822,c),
(286,825,o),
(301,832,o),
(307,823,c),
(313,808,o),
(309,789,o),
(299,776,c),
(281,759,o),
(266,774,o),
(267,795,c)
);
}
);
width = 581;
}
);
leftKerningGroup = A1;
rightKerningGroup = A;
unicode = 197;
},
{
glyphname = Ccedilla;
layers = (
{
anchors = (
{
name = top;
position = "{320, 669}";
}
);
layerId = "75E525D2-6D94-455D-A64D-8DDBA529DB5E";
shapes = (
{
closed = 1;
nodes = (
(17,509,o),
(238,715,o),
(445,623,cs),
(671,524,o),
(530,260,o),
(393,459,c),
(389,467,o),
(383,474,o),
(376,479,c),
(351,483,o),
(327,468,o),
(308,454,cs),
(243,405,o),
(204,314,o),
(231,234,c),
(246,183,o),
(297,145,o),
(346,182,c),
(363,193,o),
(370,213,o),
(384,227,c),
(412,252,o),
(456,254,o),
(490,240,cs),
(516,229,o),
(532,217,o),
(548,193,cs),
(562,170,o),
(562,137,o),
(546,115,cs),
(538,104,o),
(531,92,o),
(521,83,c),
(490,50,o),
(450,25,o),
(406,12,cs),
(304,-18,o),
(190,19,o),
(116,93,cs),
(60,147,o),
(31,223,o),
(26,300,c)
);
},
{
closed = 1;
nodes = (
(444,-257,o),
(308,-257,o),
(253,-199,cs),
(205,-149,o),
(256,-97,o),
(313,-123,cs),
(317,-125,o),
(327,-130,o),
(325,-122,c),
(317,-116,o),
(308,-111,o),
(301,-104,c),
(273,-84,o),
(265,-67,o),
(268,-32,c),
(271,-12,o),
(268,12,o),
(284,27,cs),
(311,54,o),
(362,31,o),
(368,-5,c),
(372,-18,o),
(367,-30,o),
(385,-33,cs),
(441,-42,o),
(468,-111,o),
(460,-160,c),
(460,-161,o),
(460,-161,o),
(460,-162,c)
);
}
);
width = 590;
}
);
leftKerningGroup = C2;
rightKerningGroup = C;
unicode = 199;
},
{
glyphname = Egrave;
layers = (
{
anchors = (
{
name = bottom;
position = "{361, 42}";
}
);
layerId = "75E525D2-6D94-455D-A64D-8DDBA529DB5E";
shapes = (
{
closed = 1;
nodes = (
(279,176,o),
(237,169,o),
(194,160,c),
(194,171,o),
(194,182,o),
(194,193,c),
(193,214,o),
(193,235,o),
(193,256,c),
(209,255,o),
(225,255,o),
(242,255,c),
(275,254,o),
(309,257,o),
(342,261,cs),
(372,265,o),
(405,283,o),
(412,314,c),
(418,336,o),
(412,358,o),
(400,376,c),
(389,397,o),
(369,409,o),
(348,418,c),
(319,433,o),
(287,426,o),
(257,423,c),
(237,422,o),
(217,420,o),
(197,417,c),
(198,442,o),
(199,467,o),
(201,492,c),
(261,487,o),
(321,487,o),
(381,484,c),
(481,487,o),
(495,590,o),
(413,636,cs),
(370,660,o),
(320,650,o),
(274,650,cs),
(233,650,o),
(191,651,o),
(150,646,cs),
(112,642,o),
(59,633,o),
(35,599,c),
(21,576,o),
(25,548,o),
(23,522,cs),
(20,468,o),
(20,414,o),
(20,359,cs),
(21,316,o),
(22,271,o),
(24,228,cs),
(26,177,o),
(29,124,o),
(47,77,cs),
(62,36,o),
(86,12,o),
(130,6,cs),
(195,-4,o),
(262,-3,o),
(327,11,cs),
(371,20,o),
(434,21,o),
(459,67,cs),
(471,89,o),
(468,117,o),
(455,138,cs),
(428,182,o),
(370,203,o),
(321,188,cs)
);
},
{
closed = 1;
nodes = (
(310,723,o),
(329,730,o),
(342,745,cs),
(374,783,o),
(333,831,o),
(295,842,c),
(279,849,o),
(265,858,o),
(252,870,cs),
(232,887,o),
(204,894,o),
(178,891,c),
(154,887,o),
(135,867,o),
(133,842,cs),
(131,814,o),
(159,780,o),
(179,762,c),
(210,737,o),
(250,720,o),
(290,722,cs)
);
}
);
width = 492;
}
);
leftKerningGroup = B1;
rightKerningGroup = H;
unicode = 200;
},
{
glyphname = Eacute;
layers = (
{
anchors = (
{
name = bottom;
position = "{361, 42}";
}
);
layerId = "75E525D2-6D94-455D-A64D-8DDBA529DB5E";
shapes = (
{
closed = 1;
nodes = (
(279,176,o),
(237,169,o),
(194,160,c),
(194,171,o),
(194,182,o),
(194,193,c),
(193,214,o),
(193,235,o),
(193,256,c),
(209,255,o),
(225,255,o),
(242,255,c),
(275,254,o),
(309,257,o),
(342,261,cs),
(372,265,o),
(405,283,o),
(412,314,c),
(418,336,o),
(412,358,o),
(400,376,c),
(389,397,o),
(369,409,o),
(348,418,c),
(319,433,o),
(287,426,o),
(257,423,c),
(237,422,o),
(217,420,o),
(197,417,c),
(198,442,o),
(199,467,o),
(201,492,c),
(261,487,o),
(321,487,o),
(381,484,c),
(481,487,o),
(495,590,o),
(413,636,cs),
(370,660,o),
(320,650,o),
(274,650,cs),
(233,650,o),
(191,651,o),
(150,646,cs),
(112,642,o),
(59,633,o),
(35,599,c),
(21,576,o),
(25,548,o),
(23,522,cs),
(20,468,o),
(20,414,o),
(20,359,cs),
(21,316,o),
(22,271,o),
(24,228,cs),
(26,177,o),
(29,124,o),
(47,77,cs),
(62,36,o),
(86,12,o),
(130,6,cs),
(195,-4,o),
(262,-3,o),
(327,11,cs),
(371,20,o),
(434,21,o),
(459,67,cs),
(471,89,o),
(468,117,o),
(455,138,cs),
(428,182,o),
(370,203,o),
(321,188,cs)
);
},
{
closed = 1;
nodes = (
(236,720,o),
(276,737,o),
(307,762,c),
(327,780,o),
(355,814,o),
(353,842,cs),
(351,867,o),
(332,887,o),
(308,891,c),
(282,894,o),
(254,887,o),
(234,870,cs),
(221,858,o),
(207,849,o),
(191,842,c),
(153,831,o),
(112,783,o),
(144,745,cs),
(157,730,o),
(176,723,o),
(196,722,cs)
);
}
);
width = 492;
}
);
leftKerningGroup = B1;
rightKerningGroup = H;
unicode = 201;
},
{
glyphname = Ecircumflex;
layers = (
{
anchors = (
{
name = bottom;
position = "{361, 42}";
}
);
layerId = "75E525D2-6D94-455D-A64D-8DDBA529DB5E";
shapes = (
{
closed = 1;
nodes = (
(279,176,o),
(237,169,o),
(194,160,c),
(194,171,o),
(194,182,o),
(194,193,c),
(193,214,o),
(193,235,o),
(193,256,c),
(209,255,o),
(225,255,o),
(242,255,c),
(275,254,o),
(309,257,o),
(342,261,cs),
(372,265,o),
(405,283,o),
(412,314,c),
(418,336,o),
(412,358,o),
(400,376,c),
(389,397,o),
(369,409,o),
(348,418,c),
(319,433,o),
(287,426,o),
(257,423,c),
(237,422,o),
(217,420,o),
(197,417,c),
(198,442,o),
(199,467,o),
(201,492,c),
(261,487,o),
(321,487,o),
(381,484,c),
(481,487,o),
(495,590,o),
(413,636,cs),
(370,660,o),
(320,650,o),
(274,650,cs),
(233,650,o),
(191,651,o),
(150,646,cs),
(112,642,o),
(59,633,o),
(35,599,c),
(21,576,o),
(25,548,o),
(23,522,cs),
(20,468,o),
(20,414,o),
(20,359,cs),
(21,316,o),
(22,271,o),
(24,228,cs),
(26,177,o),
(29,124,o),
(47,77,cs),
(62,36,o),
(86,12,o),
(130,6,cs),
(195,-4,o),
(262,-3,o),
(327,11,cs),
(371,20,o),
(434,21,o),
(459,67,cs),
(471,89,o),
(468,117,o),
(455,138,cs),
(428,182,o),
(370,203,o),
(321,188,cs)
);
},
{
closed = 1;
nodes = (
(179,887,o),
(144,839,o),
(112,803,c),
(80,747,o),
(148,699,o),
(200,718,c),
(219,724,o),
(231,741,o),
(246,752,c),
(252,754,o),
(259,743,o),
(263,740,c),
(297,700,o),
(385,702,o),
(385,766,c),
(383,789,o),
(368,806,o),
(351,820,cs),
(316,850,o),
(280,886,o),
(231,885,c)
);
}
);
width = 492;
}
);
leftKerningGroup = B1;
rightKerningGroup = H;
unicode = 202;
},
{
glyphname = Edieresis;
layers = (
{
anchors = (
{
name = bottom;
position = "{361, 42}";
}
);
layerId = "75E525D2-6D94-455D-A64D-8DDBA529DB5E";
shapes = (
{
closed = 1;
nodes = (
(279,176,o),
(237,169,o),
(194,160,c),
(194,171,o),
(194,182,o),
(194,193,c),
(193,214,o),
(193,235,o),
(193,256,c),
(209,255,o),
(225,255,o),
(242,255,c),
(275,254,o),
(309,257,o),
(342,261,cs),
(372,265,o),
(405,283,o),
(412,314,c),
(418,336,o),
(412,358,o),
(400,376,c),
(389,397,o),
(369,409,o),
(348,418,c),
(319,433,o),
(287,426,o),
(257,423,c),
(237,422,o),
(217,420,o),
(197,417,c),
(198,442,o),
(199,467,o),
(201,492,c),
(261,487,o),
(321,487,o),
(381,484,c),
(481,487,o),
(495,590,o),
(413,636,cs),
(370,660,o),
(320,650,o),
(274,650,cs),
(233,650,o),
(191,651,o),
(150,646,cs),
(112,642,o),
(59,633,o),
(35,599,c),
(21,576,o),
(25,548,o),
(23,522,cs),
(20,468,o),
(20,414,o),
(20,359,cs),
(21,316,o),
(22,271,o),
(24,228,cs),
(26,177,o),
(29,124,o),
(47,77,cs),
(62,36,o),
(86,12,o),
(130,6,cs),
(195,-4,o),
(262,-3,o),
(327,11,cs),
(371,20,o),
(434,21,o),
(459,67,cs),
(471,89,o),
(468,117,o),
(455,138,cs),
(428,182,o),
(370,203,o),
(321,188,cs)
);
},
{
closed = 1;
nodes = (
(242,848,o),
(202,888,o),
(153,888,cs),
(104,888,o),
(64,848,o),
(64,799,cs),
(64,750,o),
(104,710,o),
(153,710,cs),
(202,710,o),
(242,750,o),
(242,799,cs)
);
},
{
closed = 1;
nodes = (
(432,848,o),
(392,888,o),
(343,888,cs),
(294,888,o),
(254,848,o),
(254,799,cs),
(254,750,o),
(294,710,o),
(343,710,cs),
(392,710,o),
(432,750,o),
(432,799,cs)
);
}
);
width = 492;
}
);
leftKerningGroup = B1;
rightKerningGroup = H;
unicode = 203;
},
{
glyphname = Igrave;
layers = (
{
anchors = (
{
name = bottom;
position = "{123, 42}";
}
);
layerId = "75E525D2-6D94-455D-A64D-8DDBA529DB5E";
shapes = (
{
closed = 1;
nodes = (
(0,6,o),
(29,269,o),
(20,359,c),
(20,414,o),
(20,468,o),
(23,522,cs),
(25,548,o),
(21,576,o),
(35,599,c),
(73,653,o),
(162,636,o),
(194,583,c),
(211,559,o),
(204,529,o),
(202,503,cs),
(194,400,o),
(191,296,o),
(194,193,c),
(194,139,o),
(199,83,o),
(179,32,c),
(171,16,o),
(149,7,o),
(131,7,cs)
);
},
{
closed = 1;
nodes = (
(120,720,o),
(80,737,o),
(49,762,c),
(29,780,o),
(1,814,o),
(3,842,cs),
(5,867,o),
(24,887,o),
(48,891,c),
(74,894,o),
(102,887,o),
(122,870,cs),
(135,858,o),
(149,849,o),
(165,842,c),
(203,831,o),
(244,783,o),
(212,745,cs),
(199,730,o),
(180,723,o),
(160,722,cs)
);
}
);
width = 226;
}
);
leftKerningGroup = B1;
rightKerningGroup = H;
unicode = 204;
},
{
glyphname = Iacute;
layers = (
{
anchors = (
{
name = bottom;
position = "{123, 42}";
}
);
layerId = "75E525D2-6D94-455D-A64D-8DDBA529DB5E";
shapes = (
{
closed = 1;
nodes = (
(0,6,o),
(29,269,o),
(20,359,c),
(20,414,o),
(20,468,o),
(23,522,cs),
(25,548,o),
(21,576,o),
(35,599,c),
(73,653,o),
(162,636,o),
(194,583,c),
(211,559,o),
(204,529,o),
(202,503,cs),
(194,400,o),
(191,296,o),
(194,193,c),
(194,139,o),
(199,83,o),
(179,32,c),
(171,16,o),
(149,7,o),
(131,7,cs)
);
},
{
closed = 1;
nodes = (
(46,723,o),
(27,730,o),
(14,745,cs),
(-18,783,o),
(23,831,o),
(61,842,c),
(77,849,o),
(91,858,o),
(104,870,cs),
(124,887,o),
(152,894,o),
(178,891,c),
(202,887,o),
(221,867,o),
(223,842,cs),
(225,814,o),
(197,780,o),
(177,762,c),
(146,737,o),
(106,720,o),
(66,722,cs)
);
}
);
width = 226;
}
);
leftKerningGroup = B1;
rightKerningGroup = H;
unicode = 205;
},
{
glyphname = Icircumflex;
layers = (
{
anchors = (
{
name = bottom;
position = "{123, 42}";
}
);
layerId = "75E525D2-6D94-455D-A64D-8DDBA529DB5E";
shapes = (
{
closed = 1;
nodes = (
(0,6,o),
(29,269,o),
(20,359,c),
(20,414,o),
(20,468,o),
(23,522,cs),
(25,548,o),
(21,576,o),
(35,599,c),
(73,653,o),
(162,636,o),
(194,583,c),
(211,559,o),
(204,529,o),
(202,503,cs),
(194,400,o),
(191,296,o),
(194,193,c),
(194,139,o),
(199,83,o),
(179,32,c),
(171,16,o),
(149,7,o),
(131,7,cs)
);
},
{
closed = 1;
nodes = (
(150,886,o),
(186,850,o),
(221,820,cs),
(238,806,o),
(253,789,o),
(255,766,c),
(255,702,o),
(167,700,o),
(133,740,c),
(129,743,o),
(122,754,o),
(116,752,c),
(101,741,o),
(89,724,o),
(70,718,c),
(18,699,o),
(-50,747,o),
(-18,803,c),
(14,839,o),
(49,887,o),
(101,885,c)
);
}
);
width = 226;
}
);
leftKerningGroup = B1;
rightKerningGroup = H;
unicode = 206;
},
{
glyphname = Idieresis;
layers = (
{
anchors = (
{
name = bottom;
position = "{123, 42}";
}
);
layerId = "75E525D2-6D94-455D-A64D-8DDBA529DB5E";
shapes = (
{
closed = 1;
nodes = (
(0,6,o),
(29,269,o),
(20,359,c),
(20,414,o),
(20,468,o),
(23,522,cs),
(25,548,o),
(21,576,o),
(35,599,c),
(73,653,o),
(162,636,o),
(194,583,c),
(211,559,o),
(204,529,o),
(202,503,cs),
(194,400,o),
(191,296,o),
(194,193,c),
(194,139,o),
(199,83,o),
(179,32,c),
(171,16,o),
(149,7,o),
(131,7,cs)
);
},
{
closed = 1;
nodes = (
(112,750,o),
(72,710,o),
(23,710,cs),
(-26,710,o),
(-66,750,o),
(-66,799,cs),
(-66,848,o),
(-26,888,o),
(23,888,cs),
(72,888,o),
(112,848,o),
(112,799,cs)
);
},
{
closed = 1;
nodes = (
(302,750,o),
(262,710,o),
(213,710,cs),
(164,710,o),
(124,750,o),
(124,799,cs),
(124,848,o),
(164,888,o),
(213,888,cs),
(262,888,o),
(302,848,o),
(302,799,cs)
);
}
);
width = 226;
}
);
leftKerningGroup = B1;
rightKerningGroup = H;
unicode = 207;
},
{
glyphname = Eth;
layers = (
{
anchors = (
{
name = top;
position = "{281, 674}";
},
{
name = left;
position = "{24, 325}";
}
);
layerId = "75E525D2-6D94-455D-A64D-8DDBA529DB5E";
shapes = (
{
closed = 1;
nodes = (
(277,639,o),
(203,652,o),
(127,649,cs),
(86,648,o),
(44,635,o),
(31,592,cs),
(24,570,o),
(24,545,o),
(23,522,cs),
(20,468,o),
(20,414,o),
(20,359,c),
(26,304,o),
(22,249,o),
(26,193,cs),
(30,137,o),
(34,60,o),
(83,23,c),
(109,2,o),
(144,-1,o),
(176,0,cs),
(311,1,o),
(464,58,o),
(517,191,cs),
(584,358,o),
(514,539,o),
(347,609,cs)
);
},
{
closed = 1;
nodes = (
(285,187,o),
(242,165,o),
(194,154,c),
(194,167,o),
(194,180,o),
(194,193,c),
(191,296,o),
(194,400,o),
(202,503,c),
(202,503,o),
(202,504,o),
(202,505,c),
(234,496,o),
(263,483,o),
(290,463,c),
(359,409,o),
(360,301,o),
(313,232,c)
);
},
{
closed = 1;
nodes = (
(197,255,o),
(235,249,o),
(268,264,c),
(340,299,o),
(301,385,o),
(237,400,c),
(213,408,o),
(188,409,o),
(163,407,c),
(132,407,o),
(101,406,o),
(70,406,c),
(24,403,o),
(-31,406,o),
(-67,371,c),
(-83,356,o),
(-83,330,o),
(-72,311,cs),
(-56,284,o),
(-24,270,o),
(6,263,c),
(57,254,o),
(109,254,o),
(161,254,c)
);
}
);
width = 568;
}
);
leftKerningGroup = B1;
rightKerningGroup = C;
unicode = 208;
},
{
glyphname = Ntilde;
layers = (
{
anchors = (
{
name = bottom;
position = "{312, 42}";
}
);
layerId = "75E525D2-6D94-455D-A64D-8DDBA529DB5E";
shapes = (
{
closed = 1;
nodes = (
(533,636,o),
(444,653,o),
(406,599,c),
(392,576,o),
(396,548,o),
(394,522,cs),
(391,468,o),
(391,414,o),
(391,359,c),
(392,346,o),
(393,329,o),
(393,309,c),
(352,367,o),
(313,427,o),
(273,486,cs),
(254,513,o),
(236,541,o),
(217,568,cs),
(182,618,o),
(78,668,o),
(35,599,cs),
(21,576,o),
(25,548,o),
(23,522,cs),
(20,468,o),
(20,414,o),
(20,359,c),
(29,269,o),
(0,6,o),
(131,7,cs),
(149,7,o),
(171,16,o),
(179,32,c),
(199,83,o),
(194,139,o),
(194,193,cs),
(193,235,o),
(192,276,o),
(193,318,c),
(235,256,o),
(282,196,o),
(330,138,c),
(353,112,o),
(404,54,o),
(449,26,c),
(463,14,o),
(480,7,o),
(502,7,cs),
(533,7,o),
(560,32,o),
(562,63,c),
(566,106,o),
(565,149,o),
(565,193,c),
(562,296,o),
(565,400,o),
(573,503,cs),
(575,529,o),
(582,559,o),
(565,583,c)
);
},
{
closed = 1;
nodes = (
(450,697,o),
(518,748,o),
(502,812,c),
(493,842,o),
(461,861,o),
(430,860,c),
(407,861,o),
(391,846,o),
(375,831,c),
(369,827,o),
(362,837,o),
(357,840,cs),
(341,851,o),
(325,865,o),
(307,873,c),
(259,901,o),
(195,911,o),
(148,877,c),
(112,853,o),
(95,808,o),
(100,766,c),
(107,730,o),
(145,705,o),
(181,707,cs),
(205,709,o),
(230,724,o),
(235,749,cs),
(236,754,o),
(237,760,o),
(239,765,cs),
(242,775,o),
(265,750,o),
(270,747,c),
(304,719,o),
(346,699,o),
(391,700,c)
);
}
);
width = 597;
}
);
leftKerningGroup = B1;
rightKerningGroup = H;
unicode = 209;
},
{
glyphname = Ograve;
layers = (
{
anchors = (
{
name = bottom;
position = "{345, 42}";
}
);
layerId = "75E525D2-6D94-455D-A64D-8DDBA529DB5E";
shapes = (
{
closed = 1;
nodes = (
(653,236,o),
(629,177,o),
(587,127,cs),
(504,28,o),
(366,-25,o),
(239,9,cs),
(214,16,o),
(190,25,o),
(168,38,cs),
(-39,156,o),
(-5,446,o),
(168,579,cs),
(235,631,o),
(324,655,o),
(408,640,cs),
(559,614,o),
(667,469,o),
(660,317,c),
(660,310,o),
(660,303,o),
(659,296,cs)
);
},
{
closed = 1;
nodes = (
(221,239,o),
(228,210,o),
(243,189,cs),
(279,141,o),
(350,174,o),
(387,202,cs),
(425,231,o),
(451,273,o),
(463,319,cs),
(472,352,o),
(469,391,o),
(451,421,cs),
(431,456,o),
(374,476,o),
(337,463,cs),
(301,450,o),
(271,411,o),
(253,379,cs),
(232,343,o),
(224,306,o),
(222,265,cs)
);
},
{
closed = 1;
nodes = (
(351,720,o),
(311,737,o),
(280,762,c),
(260,780,o),
(232,814,o),
(234,842,cs),
(236,867,o),
(255,887,o),
(279,891,c),
(305,894,o),
(333,887,o),
(353,870,cs),
(366,858,o),
(380,849,o),
(396,842,c),
(434,831,o),
(475,783,o),
(443,745,cs),
(430,730,o),
(411,723,o),
(391,722,cs)
);
}
);
width = 686;
}
);
leftKerningGroup = C2;
rightKerningGroup = C;
unicode = 210;
},
{
glyphname = Oacute;
layers = (
{
anchors = (
{
name = bottom;
position = "{345, 42}";
}
);
layerId = "75E525D2-6D94-455D-A64D-8DDBA529DB5E";
shapes = (
{
closed = 1;
nodes = (
(653,236,o),
(629,177,o),
(587,127,cs),
(504,28,o),
(366,-25,o),
(239,9,cs),
(214,16,o),
(190,25,o),
(168,38,cs),
(-39,156,o),
(-5,446,o),
(168,579,cs),
(235,631,o),
(324,655,o),
(408,640,cs),
(559,614,o),
(667,469,o),
(660,317,c),
(660,310,o),
(660,303,o),
(659,296,cs)
);
},
{
closed = 1;
nodes = (
(221,239,o),
(228,210,o),
(243,189,cs),
(279,141,o),
(350,174,o),
(387,202,cs),
(425,231,o),
(451,273,o),
(463,319,cs),
(472,352,o),
(469,391,o),
(451,421,cs),
(431,456,o),
(374,476,o),
(337,463,cs),
(301,450,o),
(271,411,o),
(253,379,cs),
(232,343,o),
(224,306,o),
(222,265,cs)
);
},
{
closed = 1;
nodes = (
(277,723,o),
(258,730,o),
(245,745,cs),
(213,783,o),
(254,831,o),
(292,842,c),
(308,849,o),
(322,858,o),
(335,870,cs),
(355,887,o),
(383,894,o),
(409,891,c),
(433,887,o),
(452,867,o),
(454,842,cs),
(456,814,o),
(428,780,o),
(408,762,c),
(377,737,o),
(337,720,o),
(297,722,cs)
);
}
);
width = 686;
}
);
leftKerningGroup = C2;
rightKerningGroup = C;
unicode = 211;
},
{
glyphname = Ocircumflex;
layers = (
{
anchors = (
{
name = bottom;
position = "{345, 42}";
}
);
layerId = "75E525D2-6D94-455D-A64D-8DDBA529DB5E";
shapes = (
{
closed = 1;
nodes = (
(653,236,o),
(629,177,o),
(587,127,cs),
(504,28,o),
(366,-25,o),
(239,9,cs),
(214,16,o),
(190,25,o),
(168,38,cs),
(-39,156,o),
(-5,446,o),
(168,579,cs),
(235,631,o),
(324,655,o),
(408,640,cs),
(559,614,o),
(667,469,o),
(660,317,c),
(660,310,o),
(660,303,o),
(659,296,cs)
);
},
{
closed = 1;
nodes = (
(221,239,o),
(228,210,o),
(243,189,cs),
(279,141,o),
(350,174,o),
(387,202,cs),
(425,231,o),
(451,273,o),
(463,319,cs),
(472,352,o),
(469,391,o),
(451,421,cs),
(431,456,o),
(374,476,o),
(337,463,cs),
(301,450,o),
(271,411,o),
(253,379,cs),
(232,343,o),
(224,306,o),
(222,265,cs)
);
},
{
closed = 1;
nodes = (
(381,886,o),
(417,850,o),
(452,820,cs),
(469,806,o),
(484,789,o),
(486,766,c),
(486,702,o),
(398,700,o),
(364,740,c),
(360,743,o),
(353,754,o),
(347,752,c),
(332,741,o),
(320,724,o),
(301,718,c),
(249,699,o),
(181,747,o),
(213,803,c),
(245,839,o),
(280,887,o),
(332,885,c)
);
}
);
width = 686;
}
);
leftKerningGroup = C2;
rightKerningGroup = C;
unicode = 212;
},
{
glyphname = Otilde;
layers = (
{
anchors = (
{
name = bottom;
position = "{345, 42}";
}
);
layerId = "75E525D2-6D94-455D-A64D-8DDBA529DB5E";
shapes = (
{
closed = 1;
nodes = (
(653,236,o),
(629,177,o),
(587,127,cs),
(504,28,o),
(366,-25,o),
(239,9,cs),
(214,16,o),
(190,25,o),
(168,38,cs),
(-39,156,o),
(-5,446,o),
(168,579,cs),
(235,631,o),
(324,655,o),
(408,640,cs),
(559,614,o),
(667,469,o),
(660,317,c),
(660,310,o),
(660,303,o),
(659,296,cs)
);
},
{
closed = 1;
nodes = (
(221,239,o),
(228,210,o),
(243,189,cs),
(279,141,o),
(350,174,o),
(387,202,cs),
(425,231,o),
(451,273,o),
(463,319,cs),
(472,352,o),
(469,391,o),
(451,421,cs),
(431,456,o),
(374,476,o),
(337,463,cs),
(301,450,o),
(271,411,o),
(253,379,cs),
(232,343,o),
(224,306,o),
(222,265,cs)
);
},
{
closed = 1;
nodes = (
(399,699,o),
(357,719,o),
(323,747,c),
(318,750,o),
(295,775,o),
(292,765,cs),
(290,760,o),
(289,754,o),
(288,749,cs),
(283,724,o),
(258,709,o),
(234,707,cs),
(198,705,o),
(160,730,o),
(153,766,c),
(148,808,o),
(165,853,o),
(201,877,c),
(248,911,o),
(312,901,o),
(360,873,c),
(378,865,o),
(394,851,o),
(410,840,cs),
(415,837,o),
(422,827,o),
(428,831,c),
(444,846,o),
(460,861,o),
(483,860,c),
(514,861,o),
(546,842,o),
(555,812,c),
(571,748,o),
(503,697,o),
(444,700,c)
);
}
);
width = 686;
}
);
leftKerningGroup = C2;
rightKerningGroup = C;
unicode = 213;
},
{
glyphname = Odieresis;
layers = (
{
anchors = (
{
name = bottom;
position = "{345, 42}";
}
);
layerId = "75E525D2-6D94-455D-A64D-8DDBA529DB5E";
shapes = (
{
closed = 1;
nodes = (
(653,236,o),
(629,177,o),
(587,127,cs),
(504,28,o),
(366,-25,o),
(239,9,cs),
(214,16,o),
(190,25,o),
(168,38,cs),
(-39,156,o),
(-5,446,o),
(168,579,cs),
(235,631,o),
(324,655,o),
(408,640,cs),
(559,614,o),
(667,469,o),
(660,317,c),
(660,310,o),
(660,303,o),
(659,296,cs)
);
},
{
closed = 1;
nodes = (
(221,239,o),
(228,210,o),
(243,189,cs),
(279,141,o),
(350,174,o),
(387,202,cs),
(425,231,o),
(451,273,o),
(463,319,cs),
(472,352,o),
(469,391,o),
(451,421,cs),
(431,456,o),
(374,476,o),
(337,463,cs),
(301,450,o),
(271,411,o),
(253,379,cs),
(232,343,o),
(224,306,o),
(222,265,cs)
);
},
{
closed = 1;
nodes = (
(343,750,o),
(303,710,o),
(254,710,cs),
(205,710,o),
(165,750,o),
(165,799,cs),
(165,848,o),
(205,888,o),
(254,888,cs),
(303,888,o),
(343,848,o),
(343,799,cs)
);
},
{
closed = 1;
nodes = (
(533,750,o),
(493,710,o),
(444,710,cs),
(395,710,o),
(355,750,o),
(355,799,cs),
(355,848,o),
(395,888,o),
(444,888,cs),
(493,888,o),
(533,848,o),
(533,799,cs)
);
}
);
width = 686;
}
);
leftKerningGroup = C2;
rightKerningGroup = C;
unicode = 214;
},
{
glyphname = Oslash;
layers = (
{
anchors = (
{
name = top;
position = "{344, 669}";
},
{
name = bottom;
position = "{345, 42}";
}
);
layerId = "75E525D2-6D94-455D-A64D-8DDBA529DB5E";
shapes = (
{
closed = 1;
nodes = (
(653,236,o),
(629,177,o),
(587,127,cs),
(504,28,o),
(366,-25,o),
(239,9,cs),
(214,16,o),
(190,25,o),
(168,38,cs),
(-39,156,o),
(-5,446,o),
(168,579,cs),
(235,631,o),
(324,655,o),
(408,640,cs),
(559,614,o),
(667,469,o),
(660,317,c),
(660,310,o),
(660,303,o),
(659,296,cs)
);
},
{
closed = 1;
nodes = (
(221,239,o),
(228,210,o),
(243,189,cs),
(279,141,o),
(350,174,o),
(387,202,cs),
(425,231,o),
(451,273,o),
(463,319,cs),
(472,352,o),
(469,391,o),
(451,421,cs),
(431,456,o),
(374,476,o),
(337,463,cs),
(301,450,o),
(271,411,o),
(253,379,cs),
(232,343,o),
(224,306,o),
(222,265,cs)
);
},
{
closed = 1;
nodes = (
(544,663,o),
(566,605,o),
(541,561,c),
(469,416,o),
(394,273,o),
(328,125,c),
(315,98,o),
(303,70,o),
(290,43,cs),
(280,23,o),
(261,8,o),
(241,-2,c),
(177,-31,o),
(108,16,o),
(144,86,c),
(203,217,o),
(265,347,o),
(330,476,cs),
(351,520,o),
(374,563,o),
(398,605,c),
(417,636,o),
(452,659,o),
(489,660,c)
);
}
);
width = 686;
}
);
leftKerningGroup = C2;
rightKerningGroup = C;
unicode = 216;
},
{
glyphname = Ugrave;
layers = (
{
anchors = (
{
name = bottom;
position = "{300, 42}";
}
);
layerId = "75E525D2-6D94-455D-A64D-8DDBA529DB5E";
shapes = (
{
closed = 1;
nodes = (
(183,634,o),
(214,594,o),
(218,537,c),
(219,483,o),
(215,428,o),
(219,374,cs),
(223,302,o),
(237,226,o),
(279,166,c),
(283,156,o),
(295,169,o),
(300,172,c),
(327,199,o),
(338,236,o),
(348,271,c),
(370,357,o),
(378,448,o),
(375,536,cs),
(373,570,o),
(369,600,o),
(399,624,cs),
(422,642,o),
(455,645,o),
(483,638,cs),
(537,626,o),
(567,588,o),
(570,534,cs),
(573,483,o),
(573,432,o),
(568,381,cs),
(556,276,o),
(542,162,o),
(475,75,cs),
(424,12,o),
(336,-20,o),
(257,0,c),
(98,35,o),
(38,218,o),
(25,362,cs),
(20,415,o),
(19,467,o),
(21,520,cs),
(25,592,o),
(40,651,o),
(126,645,c)
);
},
{
closed = 1;
nodes = (
(298,720,o),
(258,737,o),
(227,762,c),
(207,780,o),
(179,814,o),
(181,842,cs),
(183,867,o),
(202,887,o),
(226,891,c),
(252,894,o),
(280,887,o),
(300,870,cs),
(313,858,o),
(327,849,o),
(343,842,c),
(381,831,o),
(422,783,o),
(390,745,cs),
(377,730,o),
(358,723,o),
(338,722,cs)
);
}
);
width = 593;
}
);
unicode = 217;
},
{
glyphname = Uacute;
layers = (
{
anchors = (
{
name = bottom;
position = "{300, 42}";
}
);
layerId = "75E525D2-6D94-455D-A64D-8DDBA529DB5E";
shapes = (
{
closed = 1;
nodes = (
(183,634,o),
(214,594,o),
(218,537,c),
(219,483,o),
(215,428,o),
(219,374,cs),
(223,302,o),
(237,226,o),
(279,166,c),
(283,156,o),
(295,169,o),
(300,172,c),
(327,199,o),
(338,236,o),
(348,271,c),
(370,357,o),
(378,448,o),
(375,536,cs),
(373,570,o),
(369,600,o),
(399,624,cs),
(422,642,o),
(455,645,o),
(483,638,cs),
(537,626,o),
(567,588,o),
(570,534,cs),
(573,483,o),
(573,432,o),
(568,381,cs),
(556,276,o),
(542,162,o),
(475,75,cs),
(424,12,o),
(336,-20,o),
(257,0,c),
(98,35,o),
(38,218,o),
(25,362,cs),
(20,415,o),
(19,467,o),
(21,520,cs),
(25,592,o),
(40,651,o),
(126,645,c)
);
},
{
closed = 1;
nodes = (
(224,723,o),
(205,730,o),
(192,745,cs),
(160,783,o),
(201,831,o),
(239,842,c),
(255,849,o),
(269,858,o),
(282,870,cs),
(302,887,o),
(330,894,o),
(356,891,c),
(380,887,o),
(399,867,o),
(401,842,cs),
(403,814,o),
(375,780,o),
(355,762,c),
(324,737,o),
(284,720,o),
(244,722,cs)
);
}
);
width = 593;
}
);
unicode = 218;
},
{
glyphname = Ucircumflex;
layers = (
{
anchors = (
{
name = bottom;
position = "{300, 42}";
}
);
layerId = "75E525D2-6D94-455D-A64D-8DDBA529DB5E";
shapes = (
{
closed = 1;
nodes = (
(183,634,o),
(214,594,o),
(218,537,c),
(219,483,o),
(215,428,o),
(219,374,cs),
(223,302,o),
(237,226,o),
(279,166,c),
(283,156,o),
(295,169,o),
(300,172,c),
(327,199,o),
(338,236,o),
(348,271,c),
(370,357,o),
(378,448,o),
(375,536,cs),
(373,570,o),
(369,600,o),
(399,624,cs),
(422,642,o),
(455,645,o),
(483,638,cs),
(537,626,o),
(567,588,o),
(570,534,cs),
(573,483,o),
(573,432,o),
(568,381,cs),
(556,276,o),
(542,162,o),
(475,75,cs),
(424,12,o),
(336,-20,o),
(257,0,c),
(98,35,o),
(38,218,o),
(25,362,cs),
(20,415,o),
(19,467,o),
(21,520,cs),
(25,592,o),
(40,651,o),
(126,645,c)
);
},
{
closed = 1;
nodes = (
(328,886,o),
(364,850,o),
(399,820,cs),
(416,806,o),
(431,789,o),
(433,766,c),
(433,702,o),
(345,700,o),
(311,740,c),
(307,743,o),
(300,754,o),
(294,752,c),
(279,741,o),
(267,724,o),
(248,718,c),
(196,699,o),
(128,747,o),
(160,803,c),
(192,839,o),
(227,887,o),
(279,885,c)
);
}
);
width = 593;
}
);
unicode = 219;
},
{
glyphname = Udieresis;
layers = (
{
anchors = (
{
name = bottom;
position = "{300, 42}";
}
);
layerId = "75E525D2-6D94-455D-A64D-8DDBA529DB5E";
shapes = (
{
closed = 1;
nodes = (
(183,634,o),
(214,594,o),
(218,537,c),
(219,483,o),
(215,428,o),
(219,374,cs),
(223,302,o),
(237,226,o),
(279,166,c),
(283,156,o),
(295,169,o),
(300,172,c),
(327,199,o),
(338,236,o),
(348,271,c),
(370,357,o),
(378,448,o),
(375,536,cs),
(373,570,o),
(369,600,o),
(399,624,cs),
(422,642,o),
(455,645,o),
(483,638,cs),
(537,626,o),
(567,588,o),
(570,534,cs),
(573,483,o),
(573,432,o),
(568,381,cs),
(556,276,o),
(542,162,o),
(475,75,cs),
(424,12,o),
(336,-20,o),
(257,0,c),
(98,35,o),
(38,218,o),
(25,362,cs),
(20,415,o),
(19,467,o),
(21,520,cs),
(25,592,o),
(40,651,o),
(126,645,c)
);
},
{
closed = 1;
nodes = (
(290,750,o),
(250,710,o),
(201,710,cs),
(152,710,o),
(112,750,o),
(112,799,cs),
(112,848,o),
(152,888,o),
(201,888,cs),
(250,888,o),
(290,848,o),
(290,799,cs)
);
},
{
closed = 1;
nodes = (
(480,750,o),
(440,710,o),
(391,710,cs),
(342,710,o),
(302,750,o),
(302,799,cs),
(302,848,o),
(342,888,o),
(391,888,cs),
(440,888,o),
(480,848,o),
(480,799,cs)
);
}
);
width = 593;
}
);
unicode = 220;
},
{
glyphname = Yacute;
layers = (
{
anchors = (
{
name = bottom;
position = "{274, 0}";
}
);
layerId = "75E525D2-6D94-455D-A64D-8DDBA529DB5E";
shapes = (
{
closed = 1;
nodes = (
(177,148,o),
(175,194,o),
(181,240,c),
(181,244,o),
(174,245,o),
(171,248,c),
(154,257,o),
(140,269,o),
(125,281,c),
(103,301,o),
(85,324,o),
(69,349,c),
(32,416,o),
(13,504,o),
(34,578,c),
(43,601,o),
(55,626,o),
(81,634,c),
(121,649,o),
(171,631,o),
(192,594,c),
(231,530,o),
(202,440,o),
(259,385,c),
(272,370,o),
(290,386,o),
(302,394,c),
(337,427,o),
(349,476,o),
(355,521,c),
(361,552,o),
(353,587,o),
(373,613,c),
(379,619,o),
(385,624,o),
(391,629,cs),
(417,647,o),
(453,647,o),
(482,638,c),
(530,620,o),
(564,582,o),
(555,528,c),
(552,497,o),
(548,466,o),
(542,436,cs),
(525,344,o),
(465,258,o),
(376,226,c),
(369,225,o),
(373,218,o),
(373,213,c),
(376,179,o),
(375,145,o),
(373,111,cs),
(372,85,o),
(376,51,o),
(359,29,cs),
(303,-41,o),
(168,12,o),
(175,102,c)
);
},
{
closed = 1;
nodes = (
(224,723,o),
(205,730,o),
(192,745,cs),
(160,783,o),
(201,831,o),
(239,842,c),
(255,849,o),
(269,858,o),
(282,870,cs),
(302,887,o),
(330,894,o),
(356,891,c),
(380,887,o),
(399,867,o),
(401,842,cs),
(403,814,o),
(375,780,o),
(355,762,c),
(324,737,o),
(284,720,o),
(244,722,cs)
);
}
);
width = 582;
}
);
leftKerningGroup = Y;
rightKerningGroup = Y;
unicode = 221;
},
{
glyphname = agrave;
layers = (
{
anchors = (
{
name = bottom;
position = "{439, 42}";
}
);
layerId = "75E525D2-6D94-455D-A64D-8DDBA529DB5E";
shapes = (
{
closed = 1;
nodes = (
(554,288,o),
(549,376,o),
(525,460,cs),
(510,510,o),
(488,560,o),
(449,596,cs),
(431,613,o),
(409,627,o),
(385,635,c),
(353,647,o),
(324,651,o),
(291,653,cs),
(255,655,o),
(225,650,o),
(190,636,c),
(17,547,o),
(18,286,o),
(31,117,c),
(35,91,o),
(33,63,o),
(50,42,c),
(80,-1,o),
(146,-16,o),
(190,13,c),
(221,37,o),
(217,66,o),
(210,101,c),
(211,108,o),
(202,137,o),
(211,138,c),
(259,137,o),
(306,134,o),
(354,134,c),
(361,132,o),
(357,121,o),
(357,116,c),
(338,33,o),
(439,-34,o),
(510,7,cs),
(565,38,o),
(552,121,o),
(556,177,c),
(556,177,o),
(556,201,o),
(556,201,c)
);
},
{
closed = 1;
nodes = (
(282,300,o),
(249,296,o),
(216,293,cs),
(199,292,o),
(211,332,o),
(212,341,cs),
(218,379,o),
(256,559,o),
(317,506,c),
(336,485,o),
(338,444,o),
(344,417,cs),
(348,396,o),
(351,374,o),
(354,353,cs),
(362,294,o),
(369,300,o),
(315,300,cs)
);
},
{
closed = 1;
nodes = (
(358,723,o),
(377,730,o),
(390,745,cs),
(422,783,o),
(381,831,o),
(343,842,c),
(327,849,o),
(313,858,o),
(300,870,cs),
(280,887,o),
(252,894,o),
(226,891,c),
(202,887,o),
(183,867,o),
(181,842,cs),
(179,814,o),
(207,780,o),
(227,762,c),
(258,737,o),
(298,720,o),
(338,722,cs)
);
}
);
width = 581;
}
);
leftKerningGroup = A1;
rightKerningGroup = A;
unicode = 224;
},
{
glyphname = aacute;
layers = (
{
anchors = (
{
name = bottom;
position = "{439, 42}";
}
);
layerId = "75E525D2-6D94-455D-A64D-8DDBA529DB5E";
shapes = (
{
closed = 1;
nodes = (
(554,288,o),
(549,376,o),
(525,460,cs),
(510,510,o),
(488,560,o),
(449,596,cs),
(431,613,o),
(409,627,o),
(385,635,c),
(353,647,o),
(324,651,o),
(291,653,cs),
(255,655,o),
(225,650,o),
(190,636,c),
(17,547,o),
(18,286,o),
(31,117,c),
(35,91,o),
(33,63,o),
(50,42,c),
(80,-1,o),
(146,-16,o),
(190,13,c),
(221,37,o),
(217,66,o),
(210,101,c),
(211,108,o),
(202,137,o),
(211,138,c),
(259,137,o),
(306,134,o),
(354,134,c),
(361,132,o),
(357,121,o),
(357,116,c),
(338,33,o),
(439,-34,o),
(510,7,cs),
(565,38,o),
(552,121,o),
(556,177,c),
(556,177,o),
(556,201,o),
(556,201,c)
);
},
{
closed = 1;
nodes = (
(282,300,o),
(249,296,o),
(216,293,cs),
(199,292,o),
(211,332,o),
(212,341,cs),
(218,379,o),
(256,559,o),
(317,506,c),
(336,485,o),
(338,444,o),
(344,417,cs),
(348,396,o),
(351,374,o),
(354,353,cs),
(362,294,o),
(369,300,o),
(315,300,cs)
);
},
{
closed = 1;
nodes = (
(284,720,o),
(324,737,o),
(355,762,c),
(375,780,o),
(403,814,o),
(401,842,cs),
(399,867,o),
(380,887,o),
(356,891,c),
(330,894,o),
(302,887,o),
(282,870,cs),
(269,858,o),
(255,849,o),
(239,842,c),
(201,831,o),
(160,783,o),
(192,745,cs),
(205,730,o),
(224,723,o),
(244,722,cs)
);
}
);
width = 581;
}
);
leftKerningGroup = A1;
rightKerningGroup = A;
unicode = 225;
},
{
glyphname = acircumflex;
layers = (
{
anchors = (
{
name = bottom;
position = "{439, 42}";
}
);
layerId = "75E525D2-6D94-455D-A64D-8DDBA529DB5E";
shapes = (
{
closed = 1;
nodes = (
(554,288,o),
(549,376,o),
(525,460,cs),
(510,510,o),
(488,560,o),
(449,596,cs),
(431,613,o),
(409,627,o),
(385,635,c),
(353,647,o),
(324,651,o),
(291,653,cs),
(255,655,o),
(225,650,o),
(190,636,c),
(17,547,o),
(18,286,o),
(31,117,c),
(35,91,o),
(33,63,o),
(50,42,c),
(80,-1,o),
(146,-16,o),
(190,13,c),
(221,37,o),
(217,66,o),
(210,101,c),
(211,108,o),
(202,137,o),
(211,138,c),
(259,137,o),
(306,134,o),
(354,134,c),
(361,132,o),
(357,121,o),
(357,116,c),
(338,33,o),
(439,-34,o),
(510,7,cs),
(565,38,o),
(552,121,o),
(556,177,c),
(556,177,o),
(556,201,o),
(556,201,c)
);
},
{
closed = 1;
nodes = (
(282,300,o),
(249,296,o),
(216,293,cs),
(199,292,o),
(211,332,o),
(212,341,cs),
(218,379,o),
(256,559,o),
(317,506,c),
(336,485,o),
(338,444,o),
(344,417,cs),
(348,396,o),
(351,374,o),
(354,353,cs),
(362,294,o),
(369,300,o),
(315,300,cs)
);
},
{
closed = 1;
nodes = (
(227,887,o),
(192,839,o),
(160,803,c),
(128,747,o),
(196,699,o),
(248,718,c),
(267,724,o),
(279,741,o),
(294,752,c),
(300,754,o),
(307,743,o),
(311,740,c),
(345,700,o),
(433,702,o),
(433,766,c),
(431,789,o),
(416,806,o),
(399,820,cs),
(364,850,o),
(328,886,o),
(279,885,c)
);
}
);
width = 581;
}
);
leftKerningGroup = A1;
rightKerningGroup = A;
unicode = 226;
},
{
glyphname = atilde;
layers = (
{
anchors = (
{
name = bottom;
position = "{439, 42}";
}
);
layerId = "75E525D2-6D94-455D-A64D-8DDBA529DB5E";
shapes = (
{
closed = 1;
nodes = (
(554,288,o),
(549,376,o),
(525,460,cs),
(510,510,o),
(488,560,o),
(449,596,cs),
(431,613,o),
(409,627,o),
(385,635,c),
(353,647,o),
(324,651,o),
(291,653,cs),
(255,655,o),
(225,650,o),
(190,636,c),
(17,547,o),
(18,286,o),
(31,117,c),
(35,91,o),
(33,63,o),
(50,42,c),
(80,-1,o),
(146,-16,o),
(190,13,c),
(221,37,o),
(217,66,o),
(210,101,c),
(211,108,o),
(202,137,o),
(211,138,c),
(259,137,o),
(306,134,o),
(354,134,c),
(361,132,o),
(357,121,o),
(357,116,c),
(338,33,o),
(439,-34,o),
(510,7,cs),
(565,38,o),
(552,121,o),
(556,177,c),
(556,177,o),
(556,201,o),
(556,201,c)
);
},
{
closed = 1;
nodes = (
(282,300,o),
(249,296,o),
(216,293,cs),
(199,292,o),
(211,332,o),
(212,341,cs),
(218,379,o),
(256,559,o),
(317,506,c),
(336,485,o),
(338,444,o),
(344,417,cs),
(348,396,o),
(351,374,o),
(354,353,cs),
(362,294,o),
(369,300,o),
(315,300,cs)
);
},
{
closed = 1;
nodes = (
(450,697,o),
(518,748,o),
(502,812,c),
(493,842,o),
(461,861,o),
(430,860,c),
(407,861,o),
(391,846,o),
(375,831,c),
(369,827,o),
(362,837,o),
(357,840,cs),
(341,851,o),
(325,865,o),
(307,873,c),
(259,901,o),
(195,911,o),
(148,877,c),
(112,853,o),
(95,808,o),
(100,766,c),
(107,730,o),
(145,705,o),
(181,707,cs),
(205,709,o),
(230,724,o),
(235,749,cs),
(236,754,o),
(237,760,o),
(239,765,cs),
(242,775,o),
(265,750,o),
(270,747,c),
(304,719,o),
(346,699,o),
(391,700,c)
);
}
);
width = 581;
}
);
leftKerningGroup = A1;
rightKerningGroup = A;
unicode = 227;
},
